<svg width="69" height="60" viewBox="0 0 69 60" fill="none" xmlns="http://www.w3.org/2000/svg">
<path d="M19.4639 37.1876L19.4638 37.1875C19.1835 36.949 19.0222 36.6004 19.0222 36.2323C19.0222 35.8646 19.1843 35.5162 19.4637 35.2779L19.4639 35.2777L26.6216 29.1945C27.1495 28.7453 27.9421 28.809 28.3921 29.3358L28.3922 29.3359C28.8415 29.8634 28.7786 30.655 28.2498 31.1037L19.4639 37.1876ZM19.4639 37.1876L26.6217 43.2708C26.8577 43.4714 27.1474 43.5702 27.4348 43.5702C27.7898 43.5702 28.1433 43.4205 28.3921 43.1288C28.8416 42.6017 28.7785 41.8101 28.2498 41.3609L22.216 36.2323L28.2498 31.1038L19.4639 37.1876ZM46.784 36.2323L40.7502 41.3609L40.7501 41.361C40.2223 41.8101 40.1583 42.6015 40.6083 43.1286C40.8566 43.4205 41.2103 43.5702 41.5652 43.5702C41.8526 43.5702 42.1423 43.4714 42.3783 43.2708L49.5361 37.1876L49.5362 37.1875C49.8165 36.949 49.9778 36.6004 49.9778 36.2323C49.9778 35.8648 49.8165 35.5162 49.5362 35.2777L49.5361 35.2777L42.3785 29.1946C41.8512 28.7453 41.0578 28.809 40.6085 29.3358C40.1584 29.8635 40.2221 30.6551 40.7502 31.1037C40.7502 31.1037 40.7502 31.1037 40.7502 31.1037L46.784 36.2323ZM31.7056 48.1057L31.706 48.1057C31.7928 48.1238 31.8796 48.1329 31.9661 48.1329C32.5472 48.1329 33.0689 47.7281 33.1937 47.1372L33.1937 47.1372L37.6547 25.9975L37.5079 25.9665L37.6547 25.9974C37.7978 25.3191 37.3628 24.6544 36.6845 24.5118L36.6845 24.5117C36.0056 24.3691 35.3395 24.8026 35.1964 25.4802L35.3432 25.5112L35.1964 25.4802L30.7355 46.6199C30.5924 47.2977 31.0273 47.963 31.7056 48.1057ZM65.6377 15.8205H3.36226V7.91273C3.36226 5.12612 5.63426 2.85805 8.42689 2.85805H60.5731C63.3657 2.85805 65.6377 5.12612 65.6377 7.91273V15.8205ZM3.36226 18.3286H65.6377V52.0873C65.6377 54.8739 63.3657 57.1419 60.5731 57.1419H8.42689C5.63426 57.1419 3.36226 54.8739 3.36226 52.0873V18.3286ZM68.15 17.0745V7.91273C68.15 3.74251 64.7506 0.35 60.5731 0.35H8.42689C4.2494 0.35 0.85 3.74251 0.85 7.91273V17.0745V52.0873C0.85 56.2581 4.24941 59.65 8.42689 59.65H60.5731C64.7506 59.65 68.15 56.2581 68.15 52.0873V17.0745ZM16.2488 9.40181C16.2488 11.4108 17.8872 13.0456 19.8993 13.0456C21.9121 13.0456 23.5498 11.4108 23.5498 9.40181C23.5498 7.3922 21.9121 5.75799 19.8993 5.75799C17.8872 5.75799 16.2488 7.39219 16.2488 9.40181ZM18.7611 9.40181C18.7611 8.77586 19.272 8.26604 19.8993 8.26604C20.5272 8.26604 21.0375 8.77581 21.0375 9.40181C21.0375 10.0278 20.5272 10.5376 19.8993 10.5376C19.272 10.5376 18.7611 10.0278 18.7611 9.40181ZM5.49366 9.36793C5.49366 11.3775 7.1314 13.0117 9.14414 13.0117C11.1569 13.0117 12.7946 11.3775 12.7946 9.36793C12.7946 7.35832 11.1569 5.72411 9.14414 5.72411C7.1314 5.72411 5.49366 7.35832 5.49366 9.36793ZM8.00592 9.36793C8.00592 8.74254 8.51687 8.23216 9.14414 8.23216C9.77199 8.23216 10.2824 8.7425 10.2824 9.36793C10.2824 9.99393 9.77204 10.5037 9.14414 10.5037C8.51682 10.5037 8.00592 9.99388 8.00592 9.36793ZM27.0046 9.43508C27.0046 11.4447 28.6423 13.0789 30.6545 13.0789C32.6672 13.0789 34.305 11.4447 34.305 9.43508C34.305 7.42607 32.6672 5.79188 30.6545 5.79188C28.6423 5.79188 27.0046 7.42609 27.0046 9.43508ZM29.5169 9.43508C29.5169 8.80903 30.0272 8.29931 30.6545 8.29931C31.2824 8.29931 31.7927 8.80908 31.7927 9.43508C31.7927 10.0611 31.2824 10.5709 30.6545 10.5709C30.0272 10.5709 29.5169 10.0611 29.5169 9.43508Z" fill="#EA2D2E" stroke="#EA2D2E" stroke-width="0.3"/>
</svg>
