<svg width="80" height="90" viewBox="0 0 80 90" fill="none" xmlns="http://www.w3.org/2000/svg">
<path d="M77.6696 20.7524L42.3063 0.509709C41.7206 0.145631 40.9152 0 40.0366 0C39.158 0 38.3526 0.218447 37.7669 0.509709L2.62326 20.8252C1.37859 21.5534 0.5 23.3738 0.5 24.7573V65.3155C0.5 66.1165 0.646432 67.0631 1.23216 67.8641L79.4268 22.7184C78.9875 21.8447 78.3286 21.1893 77.6696 20.7524Z" fill="#9B4F96"/>
<path d="M1.01251 67.7911C1.37859 68.3737 1.8911 68.8834 2.40362 69.1746L37.6937 89.4902C38.2794 89.8542 39.0848 89.9999 39.9634 89.9999C40.842 89.9999 41.6474 89.7814 42.2331 89.4902L77.3767 69.1746C78.6214 68.4465 79.5 66.6261 79.5 65.2426V24.6843C79.5 24.029 79.4268 23.3008 79.0607 22.6455L1.01251 67.7911Z" fill="#68217A"/>
<path d="M55.6316 53.8106C52.5565 59.199 46.6993 62.8397 40.0366 62.8397C30.1524 62.8397 22.0987 54.83 22.0987 44.9999C22.0987 35.1698 30.1524 27.1601 40.0366 27.1601C46.6993 27.1601 52.5565 30.8009 55.6316 36.2621L65.1497 30.8009C60.171 22.1359 50.7993 16.2378 40.0366 16.2378C24.0755 16.2378 11.1163 29.1261 11.1163 44.9999C11.1163 60.8737 24.0755 73.7621 40.0366 73.7621C50.7261 73.7621 60.0978 67.9368 65.0765 59.3446L55.6316 53.8106ZM64.1979 46.6019L64.8568 43.4708H61.7817V40.0485H65.5158L66.3943 35.5339H69.9819L69.1033 39.9757H71.8855L72.7641 35.5339H76.2785L75.3999 39.9757H77.1571V43.398H74.741L74.082 46.5291H77.1571V49.9514H73.4231L72.5445 54.3203H68.9569L69.8355 49.9514H67.0533L66.1747 54.3203H62.6603L63.5389 49.9514H61.7817V46.5291H64.1979V46.6019ZM67.7122 46.6019H70.4944L71.1534 43.4708H68.3712L67.7122 46.6019Z" fill="white"/>
</svg>
