<svg width="139" height="24" viewBox="0 0 139 24" fill="none" xmlns="http://www.w3.org/2000/svg">
<path d="M8.7 23.3C7.04 23.3 5.61 22.96 4.41 22.28C3.23 21.58 2.34 20.64 1.74 19.46C1.14 18.28 0.84 16.97 0.84 15.53C0.84 14.07 1.14 12.75 1.74 11.57C2.34 10.37 3.24 9.43 4.44 8.75C5.64 8.05 7.1 7.7 8.82 7.7C10.36 7.7 11.7 8.02 12.84 8.66L12.54 11.66C11.46 11.1 10.34 10.82 9.18 10.82C7.76 10.82 6.65 11.25 5.85 12.11C5.05 12.97 4.65 14.11 4.65 15.53C4.65 16.89 5.06 18.02 5.88 18.92C6.7 19.8 7.79 20.24 9.15 20.24C10.29 20.24 11.43 19.91 12.57 19.25L12.9 22.4C12.36 22.68 11.72 22.9 10.98 23.06C10.26 23.22 9.5 23.3 8.7 23.3ZM49.9548 8V23H46.4748L46.4148 22.1C45.9548 22.44 45.4248 22.73 44.8248 22.97C44.2248 23.19 43.6448 23.3 43.0848 23.3C40.8648 23.3 39.2448 22.66 38.2248 21.38C37.2248 20.1 36.7248 18.33 36.7248 16.07V8H40.4448V16.07C40.4448 17.47 40.6748 18.51 41.1348 19.19C41.6148 19.85 42.3748 20.18 43.4148 20.18C44.5748 20.18 45.5148 19.76 46.2348 18.92V8H49.9548ZM54.9275 8H58.4075L58.4975 9.59C58.9375 9.09 59.4975 8.65 60.1775 8.27C60.8775 7.89 61.6075 7.7 62.3675 7.7C62.6075 7.7 62.8275 7.72 63.0275 7.76L62.7575 11.42C62.3775 11.32 61.9475 11.27 61.4675 11.27C60.8475 11.27 60.2775 11.42 59.7575 11.72C59.2375 12 58.8675 12.35 58.6475 12.77V23H54.9275V8ZM70.5898 23.3C69.6298 23.3 68.7498 23.21 67.9498 23.03C67.1698 22.85 66.3598 22.57 65.5198 22.19L65.8498 19.01C66.6898 19.51 67.4698 19.89 68.1898 20.15C68.9298 20.39 69.6898 20.51 70.4698 20.51C71.9898 20.51 72.7498 20.01 72.7498 19.01C72.7498 18.47 72.5498 18.06 72.1498 17.78C71.7498 17.48 71.0298 17.13 69.9898 16.73C68.5098 16.19 67.4198 15.58 66.7198 14.9C66.0198 14.2 65.6698 13.26 65.6698 12.08C65.6698 10.78 66.1698 9.73 67.1698 8.93C68.1698 8.11 69.5198 7.7 71.2198 7.7C72.9198 7.7 74.4698 8.09 75.8698 8.87L75.5398 12.05C74.7798 11.53 74.0598 11.13 73.3798 10.85C72.7198 10.57 72.0198 10.43 71.2798 10.43C70.6398 10.43 70.1398 10.56 69.7798 10.82C69.4398 11.08 69.2698 11.45 69.2698 11.93C69.2698 12.31 69.3698 12.62 69.5698 12.86C69.7898 13.1 70.0898 13.32 70.4698 13.52C70.8498 13.7 71.4798 13.96 72.3598 14.3C73.8198 14.86 74.8698 15.48 75.5098 16.16C76.1498 16.82 76.4698 17.71 76.4698 18.83C76.4698 20.25 75.9598 21.35 74.9398 22.13C73.9198 22.91 72.4698 23.3 70.5898 23.3ZM85.4054 23.3C84.0854 23.3 83.0854 22.92 82.4054 22.16C81.7254 21.38 81.3854 20.45 81.3854 19.37V11.06H79.2554L79.5854 8H81.3854V4.7L85.1054 4.31V8H88.4054V11.06H85.1054V17.84C85.1054 18.64 85.1454 19.2 85.2254 19.52C85.3254 19.82 85.5154 20.02 85.7954 20.12C86.0954 20.2 86.6254 20.24 87.3854 20.24H88.4054L88.0754 23.3H85.4054ZM99.5579 23.3C97.8179 23.3 96.3279 22.95 95.0879 22.25C93.8679 21.53 92.9479 20.58 92.3279 19.4C91.7279 18.2 91.4279 16.87 91.4279 15.41C91.4279 14.01 91.7179 12.73 92.2979 11.57C92.8779 10.41 93.7179 9.49 94.8179 8.81C95.9179 8.11 97.2279 7.76 98.7479 7.76C100.148 7.76 101.328 8.05 102.288 8.63C103.268 9.21 103.998 9.99 104.478 10.97C104.978 11.95 105.228 13.05 105.228 14.27C105.228 14.87 105.148 15.55 104.988 16.31H95.2979C95.4979 17.63 96.0179 18.62 96.8579 19.28C97.6979 19.92 98.7079 20.24 99.8879 20.24C101.508 20.24 103.008 19.83 104.388 19.01L104.568 22.16C103.928 22.5 103.178 22.78 102.318 23C101.478 23.2 100.558 23.3 99.5579 23.3ZM101.448 13.79C101.448 13.01 101.228 12.32 100.788 11.72C100.348 11.12 99.6679 10.82 98.7479 10.82C97.8279 10.82 97.0879 11.09 96.5279 11.63C95.9679 12.17 95.5879 12.89 95.3879 13.79H101.448ZM109.237 0.499998H112.957V14.15L117.607 8H121.807L116.347 15.2L121.927 23H117.727L112.957 16.34V23H109.237V0.499998ZM128.421 23.3C127.181 23.3 126.141 22.9 125.301 22.1C124.481 21.28 124.071 20.18 124.071 18.8C124.071 17.5 124.541 16.46 125.481 15.68C126.421 14.88 127.531 14.32 128.811 14C130.091 13.66 131.321 13.47 132.501 13.43C132.461 12.55 132.231 11.92 131.811 11.54C131.411 11.16 130.741 10.97 129.801 10.97C129.141 10.97 128.491 11.06 127.851 11.24C127.231 11.42 126.511 11.71 125.691 12.11L125.361 9.08C127.181 8.2 129.001 7.76 130.821 7.76C132.581 7.76 133.921 8.24 134.841 9.2C135.781 10.16 136.251 11.69 136.251 13.79V17.84C136.251 18.6 136.281 19.15 136.341 19.49C136.421 19.81 136.541 20.02 136.701 20.12C136.881 20.2 137.171 20.24 137.571 20.24H138.051L137.721 23.3H136.371C135.551 23.3 134.861 23.15 134.301 22.85C133.741 22.53 133.311 22.1 133.011 21.56C132.531 22.1 131.871 22.53 131.031 22.85C130.211 23.15 129.341 23.3 128.421 23.3ZM129.981 20.45C130.361 20.45 130.791 20.36 131.271 20.18C131.751 19.98 132.171 19.71 132.531 19.37V15.95C131.331 16.01 130.271 16.27 129.351 16.73C128.431 17.19 127.971 17.83 127.971 18.65C127.971 19.27 128.131 19.73 128.451 20.03C128.771 20.31 129.281 20.45 129.981 20.45Z" fill="#5E81F4"/>
<path d="M25.0754 23.3C23.4954 23.3 22.1254 22.95 20.9654 22.25C19.8054 21.55 18.9154 20.61 18.2954 19.43C17.6754 18.25 17.3654 16.95 17.3654 15.53C17.3654 14.11 17.6754 12.8 18.2954 11.6C18.9154 10.4 19.8054 9.45 20.9654 8.75C22.1254 8.05 23.4954 7.7 25.0754 7.7C26.6554 7.7 28.0254 8.05 29.1854 8.75C30.3454 9.45 31.2354 10.4 31.8554 11.6C32.4754 12.8 32.7854 14.11 32.7854 15.53C32.7854 16.95 32.4754 18.25 31.8554 19.43C31.2354 20.61 30.3454 21.55 29.1854 22.25C28.0254 22.95 26.6554 23.3 25.0754 23.3ZM25.0754 20.24C26.2954 20.24 27.2454 19.81 27.9254 18.95C28.6254 18.09 28.9754 16.95 28.9754 15.53C28.9754 14.09 28.6254 12.94 27.9254 12.08C27.2454 11.2 26.2954 10.76 25.0754 10.76C23.8554 10.76 22.8954 11.2 22.1954 12.08C21.5154 12.94 21.1754 14.09 21.1754 15.53C21.1754 16.95 21.5154 18.09 22.1954 18.95C22.8954 19.81 23.8554 20.24 25.0754 20.24Z" fill="#003CFF"/>
</svg>
