<svg width="140" height="36" viewBox="0 0 140 36" fill="none" xmlns="http://www.w3.org/2000/svg">
<path d="M9.20122 29.3C7.54122 29.3 6.11122 28.96 4.91122 28.28C3.73122 27.58 2.84122 26.64 2.24122 25.46C1.64122 24.28 1.34122 22.97 1.34122 21.53C1.34122 20.07 1.64122 18.75 2.24122 17.57C2.84122 16.37 3.74122 15.43 4.94122 14.75C6.14122 14.05 7.60122 13.7 9.32122 13.7C10.8612 13.7 12.2012 14.02 13.3412 14.66L13.0412 17.66C11.9612 17.1 10.8412 16.82 9.68122 16.82C8.26122 16.82 7.15122 17.25 6.35122 18.11C5.55122 18.97 5.15122 20.11 5.15122 21.53C5.15122 22.89 5.56122 24.02 6.38122 24.92C7.20122 25.8 8.29122 26.24 9.65122 26.24C10.7912 26.24 11.9312 25.91 13.0712 25.25L13.4012 28.4C12.8612 28.68 12.2212 28.9 11.4812 29.06C10.7612 29.22 10.0012 29.3 9.20122 29.3ZM50.456 14V29H46.976L46.916 28.1C46.456 28.44 45.926 28.73 45.326 28.97C44.726 29.19 44.146 29.3 43.586 29.3C41.366 29.3 39.746 28.66 38.726 27.38C37.726 26.1 37.226 24.33 37.226 22.07V14H40.946V22.07C40.946 23.47 41.176 24.51 41.636 25.19C42.116 25.85 42.876 26.18 43.916 26.18C45.076 26.18 46.016 25.76 46.736 24.92V14H50.456ZM55.4287 14H58.9087L58.9987 15.59C59.4387 15.09 59.9987 14.65 60.6787 14.27C61.3787 13.89 62.1087 13.7 62.8687 13.7C63.1087 13.7 63.3287 13.72 63.5287 13.76L63.2587 17.42C62.8787 17.32 62.4487 17.27 61.9687 17.27C61.3487 17.27 60.7787 17.42 60.2587 17.72C59.7387 18 59.3687 18.35 59.1487 18.77V29H55.4287V14ZM71.0911 29.3C70.1311 29.3 69.2511 29.21 68.4511 29.03C67.6711 28.85 66.8611 28.57 66.0211 28.19L66.3511 25.01C67.1911 25.51 67.9711 25.89 68.6911 26.15C69.4311 26.39 70.1911 26.51 70.9711 26.51C72.4911 26.51 73.2511 26.01 73.2511 25.01C73.2511 24.47 73.0511 24.06 72.6511 23.78C72.2511 23.48 71.5311 23.13 70.4911 22.73C69.0111 22.19 67.9211 21.58 67.2211 20.9C66.5211 20.2 66.1711 19.26 66.1711 18.08C66.1711 16.78 66.6711 15.73 67.6711 14.93C68.6711 14.11 70.0211 13.7 71.7211 13.7C73.4211 13.7 74.9711 14.09 76.3711 14.87L76.0411 18.05C75.2811 17.53 74.5611 17.13 73.8811 16.85C73.2211 16.57 72.5211 16.43 71.7811 16.43C71.1411 16.43 70.6411 16.56 70.2811 16.82C69.9411 17.08 69.7711 17.45 69.7711 17.93C69.7711 18.31 69.8711 18.62 70.0711 18.86C70.2911 19.1 70.5911 19.32 70.9711 19.52C71.3511 19.7 71.9811 19.96 72.8611 20.3C74.3211 20.86 75.3711 21.48 76.0111 22.16C76.6511 22.82 76.9711 23.71 76.9711 24.83C76.9711 26.25 76.4611 27.35 75.4411 28.13C74.4211 28.91 72.9711 29.3 71.0911 29.3ZM85.9066 29.3C84.5866 29.3 83.5866 28.92 82.9066 28.16C82.2266 27.38 81.8866 26.45 81.8866 25.37V17.06H79.7566L80.0866 14H81.8866V10.7L85.6066 10.31V14H88.9066V17.06H85.6066V23.84C85.6066 24.64 85.6466 25.2 85.7266 25.52C85.8266 25.82 86.0166 26.02 86.2966 26.12C86.5966 26.2 87.1266 26.24 87.8866 26.24H88.9066L88.5766 29.3H85.9066ZM100.059 29.3C98.3191 29.3 96.8291 28.95 95.5891 28.25C94.3691 27.53 93.4491 26.58 92.8291 25.4C92.2291 24.2 91.9291 22.87 91.9291 21.41C91.9291 20.01 92.2191 18.73 92.7991 17.57C93.3791 16.41 94.2191 15.49 95.3191 14.81C96.4191 14.11 97.7291 13.76 99.2491 13.76C100.649 13.76 101.829 14.05 102.789 14.63C103.769 15.21 104.499 15.99 104.979 16.97C105.479 17.95 105.729 19.05 105.729 20.27C105.729 20.87 105.649 21.55 105.489 22.31H95.7991C95.9991 23.63 96.5191 24.62 97.3591 25.28C98.1991 25.92 99.2091 26.24 100.389 26.24C102.009 26.24 103.509 25.83 104.889 25.01L105.069 28.16C104.429 28.5 103.679 28.78 102.819 29C101.979 29.2 101.059 29.3 100.059 29.3ZM101.949 19.79C101.949 19.01 101.729 18.32 101.289 17.72C100.849 17.12 100.169 16.82 99.2491 16.82C98.3291 16.82 97.5891 17.09 97.0291 17.63C96.4691 18.17 96.0891 18.89 95.8891 19.79H101.949ZM109.739 6.5H113.459V20.15L118.109 14H122.309L116.849 21.2L122.429 29H118.229L113.459 22.34V29H109.739V6.5ZM128.923 29.3C127.683 29.3 126.643 28.9 125.803 28.1C124.983 27.28 124.573 26.18 124.573 24.8C124.573 23.5 125.043 22.46 125.983 21.68C126.923 20.88 128.033 20.32 129.313 20C130.593 19.66 131.823 19.47 133.003 19.43C132.963 18.55 132.733 17.92 132.313 17.54C131.913 17.16 131.243 16.97 130.303 16.97C129.643 16.97 128.993 17.06 128.353 17.24C127.733 17.42 127.013 17.71 126.193 18.11L125.863 15.08C127.683 14.2 129.503 13.76 131.323 13.76C133.083 13.76 134.423 14.24 135.343 15.2C136.283 16.16 136.753 17.69 136.753 19.79V23.84C136.753 24.6 136.783 25.15 136.843 25.49C136.923 25.81 137.043 26.02 137.203 26.12C137.383 26.2 137.673 26.24 138.073 26.24H138.553L138.223 29.3H136.873C136.053 29.3 135.363 29.15 134.803 28.85C134.243 28.53 133.813 28.1 133.513 27.56C133.033 28.1 132.373 28.53 131.533 28.85C130.713 29.15 129.843 29.3 128.923 29.3ZM130.483 26.45C130.863 26.45 131.293 26.36 131.773 26.18C132.253 25.98 132.673 25.71 133.033 25.37V21.95C131.833 22.01 130.773 22.27 129.853 22.73C128.933 23.19 128.473 23.83 128.473 24.65C128.473 25.27 128.633 25.73 128.953 26.03C129.273 26.31 129.783 26.45 130.483 26.45Z" fill="#5E81F4"/>
<path d="M25.5766 29.3C23.9966 29.3 22.6266 28.95 21.4666 28.25C20.3066 27.55 19.4166 26.61 18.7966 25.43C18.1766 24.25 17.8666 22.95 17.8666 21.53C17.8666 20.11 18.1766 18.8 18.7966 17.6C19.4166 16.4 20.3066 15.45 21.4666 14.75C22.6266 14.05 23.9966 13.7 25.5766 13.7C27.1566 13.7 28.5266 14.05 29.6866 14.75C30.8466 15.45 31.7366 16.4 32.3566 17.6C32.9766 18.8 33.2866 20.11 33.2866 21.53C33.2866 22.95 32.9766 24.25 32.3566 25.43C31.7366 26.61 30.8466 27.55 29.6866 28.25C28.5266 28.95 27.1566 29.3 25.5766 29.3ZM25.5766 26.24C26.7966 26.24 27.7466 25.81 28.4266 24.95C29.1266 24.09 29.4766 22.95 29.4766 21.53C29.4766 20.09 29.1266 18.94 28.4266 18.08C27.7466 17.2 26.7966 16.76 25.5766 16.76C24.3566 16.76 23.3966 17.2 22.6966 18.08C22.0166 18.94 21.6766 20.09 21.6766 21.53C21.6766 22.95 22.0166 24.09 22.6966 24.95C23.3966 25.81 24.3566 26.24 25.5766 26.24Z" fill="#003CFF"/>
<path d="M16.1974 13.733L23.0791 5.5L33.5012 9.21597L31.0548 11.2853V12.5833C27.817 11.1667 24.5012 12.1111 24.5012 12.1111C24.5012 12.1111 20.7117 13.5278 19.3584 15.9615V14.6538L16.615 13.8665V19.9411C16.8022 20.1196 16.8343 20.2702 16.7543 20.6086L17.3907 22.2552L17.0924 22.4332L16.615 21.2762L16.6349 22.5H16.257V21.2762L15.8195 22.4332L15.5012 22.2552L16.1178 20.6086C16.0161 20.3505 16.0214 20.2046 16.1974 19.9411V13.733Z" fill="#5E81F4"/>
</svg>
