<svg width="67" height="68" viewBox="0 0 67 68" fill="none" xmlns="http://www.w3.org/2000/svg">
<mask id="path-1-outside-1" maskUnits="userSpaceOnUse" x="0" y="0.5" width="67" height="67" fill="black">
<rect fill="white" y="0.5" width="67" height="67"/>
<path d="M29.2478 54.4854C29.1452 54.4853 29.0433 54.4684 28.9463 54.4353C25.2226 53.25 21.8373 51.1895 19.0741 48.4264C16.3109 45.6633 14.2503 42.2781 13.065 38.5546C13.0173 38.4161 13.0031 38.2682 13.0236 38.1231C13.044 37.978 13.0986 37.8398 13.1828 37.7198L26.9761 18.039C35.7882 6.60315 49.9934 0.482216 65.0074 1.63888C65.2282 1.65571 65.4357 1.751 65.5924 1.90751C65.7491 2.06402 65.8446 2.27143 65.8617 2.49223C67.0156 17.5038 60.8972 31.7102 49.4943 40.4978L49.4609 40.5229L29.7793 54.3138C29.6241 54.4246 29.4384 54.4845 29.2478 54.4854ZM14.9758 38.3951C16.0887 41.6766 17.9421 44.658 20.3924 47.1082C22.8427 49.5584 25.8242 51.4117 29.1058 52.5245L48.3784 39.0175C59.0708 30.7696 64.8988 17.5177 64.0668 3.43648C49.9674 2.60168 36.7177 8.43692 28.4704 19.14L14.9758 38.3951Z"/>
<path d="M62.7477 21.2854C62.6889 21.2856 62.6302 21.2803 62.5724 21.2696C58.525 20.4985 54.8046 18.5239 51.8977 15.6041C48.9778 12.6974 47.0031 8.97707 46.232 4.92985C46.1858 4.68815 46.2376 4.43803 46.3759 4.23451C46.5142 4.03098 46.7277 3.89073 46.9694 3.84461C47.2111 3.79848 47.4612 3.85026 47.6648 3.98855C47.8683 4.12684 48.0085 4.34032 48.0547 4.58201C48.7563 8.2639 50.5528 11.6483 53.2093 14.2926C55.8537 16.949 59.2382 18.7454 62.9203 19.447C63.1467 19.4905 63.3487 19.6168 63.4871 19.8012C63.6254 19.9857 63.6902 20.215 63.6686 20.4445C63.6471 20.6741 63.5408 20.8873 63.3706 21.0428C63.2003 21.1983 62.9783 21.2848 62.7477 21.2854Z"/>
<path d="M41.5569 33.2082C39.8764 33.2073 38.2481 32.6237 36.9497 31.5569C35.6512 30.4901 34.7627 29.0062 34.4357 27.3578C34.1088 25.7095 34.3635 23.9987 35.1564 22.5171C35.9494 21.0355 37.2316 19.8746 38.7845 19.2323C40.3375 18.59 42.0651 18.506 43.673 18.9947C45.281 19.4833 46.6697 20.5143 47.6027 21.912C48.5356 23.3097 48.9551 24.9877 48.7895 26.66C48.624 28.3323 47.8837 29.8955 46.6948 31.0832C46.0206 31.7583 45.2196 32.2935 44.3379 32.6582C43.4562 33.0229 42.5111 33.2098 41.5569 33.2082ZM41.5569 20.5332C40.3047 20.533 39.0911 20.967 38.123 21.7612C37.1549 22.5555 36.4921 23.6608 36.2477 24.8889C36.0032 26.117 36.1922 27.3919 36.7824 28.4963C37.3726 29.6007 38.3275 30.4663 39.4844 30.9456C40.6413 31.4249 41.9286 31.4882 43.1269 31.1248C44.3253 30.7613 45.3605 29.9936 46.0563 28.9525C46.752 27.9114 47.0652 26.6612 46.9425 25.415C46.8198 24.1688 46.2687 23.0038 45.3832 22.1184C44.8818 21.6144 44.2855 21.2149 43.6287 20.9428C42.972 20.6707 42.2678 20.5315 41.5569 20.5332Z"/>
<path d="M36.5479 66.4295H36.4922C36.3431 66.4205 36.1983 66.3755 36.0702 66.2985C35.9421 66.2215 35.8346 66.1146 35.7567 65.9871L28.4574 54.0439C28.3291 53.8339 28.2895 53.5816 28.3473 53.3424C28.405 53.1032 28.5554 52.8968 28.7654 52.7685C28.9754 52.6402 29.2277 52.6006 29.4669 52.6583C29.7061 52.7161 29.9125 52.8665 30.0408 53.0764L36.6444 63.8815L41.6432 57.5509C42.7452 56.1478 43.5574 54.5396 44.0325 52.8199C44.5077 51.1002 44.6364 49.3032 44.4111 47.5334L43.8007 42.8399C43.7828 42.7181 43.7893 42.594 43.8198 42.4747C43.8504 42.3554 43.9043 42.2434 43.9786 42.1452C44.0529 42.047 44.146 41.9645 44.2525 41.9027C44.3589 41.8408 44.4766 41.8008 44.5988 41.7849C44.7209 41.769 44.8449 41.7776 44.9637 41.8102C45.0824 41.8427 45.1935 41.8986 45.2904 41.9745C45.3874 42.0504 45.4682 42.1449 45.5283 42.2524C45.5883 42.3599 45.6263 42.4783 45.6402 42.6006L46.2505 47.295C46.5074 49.3108 46.3608 51.3575 45.8194 53.3162C45.278 55.2748 44.3524 57.1062 43.0967 58.7039L37.2724 66.0807C37.1855 66.1895 37.0753 66.2773 36.9499 66.3377C36.8245 66.3981 36.6871 66.4294 36.5479 66.4295Z"/>
<path d="M13.9397 39.1789C13.7692 39.179 13.602 39.1321 13.4564 39.0434L1.51461 31.7445C1.38715 31.6667 1.28037 31.5592 1.20335 31.4312C1.12634 31.3032 1.08137 31.1586 1.07226 31.0095C1.06315 30.8604 1.09018 30.7114 1.15105 30.575C1.21191 30.4386 1.30481 30.3189 1.42185 30.2261L8.79899 24.402C10.3969 23.1466 12.2284 22.2213 14.1871 21.6799C16.1458 21.1386 18.1925 20.9918 20.2084 21.2483L24.9029 21.8586C25.0253 21.8725 25.1437 21.9105 25.2512 21.9705C25.3587 22.0306 25.4531 22.1114 25.5291 22.2084C25.605 22.3053 25.6609 22.4164 25.6934 22.5351C25.726 22.6539 25.7346 22.7779 25.7187 22.9C25.7028 23.0221 25.6627 23.1398 25.6009 23.2463C25.539 23.3528 25.4566 23.4458 25.3584 23.5201C25.2602 23.5944 25.1482 23.6484 25.0289 23.6789C24.9096 23.7094 24.7854 23.7159 24.6636 23.698L19.97 23.0877C18.2 22.8626 16.403 22.9914 14.6833 23.4666C12.9636 23.9417 11.3553 24.7537 9.95199 25.8555L3.61839 30.8568L14.4239 37.4601C14.5964 37.5656 14.7296 37.7246 14.8034 37.9128C14.8772 38.101 14.8874 38.3082 14.8326 38.5028C14.7778 38.6974 14.6609 38.8688 14.4997 38.9908C14.3385 39.1128 14.1419 39.1789 13.9397 39.1789Z"/>
<path d="M13.3015 66.5C13.1181 66.5 12.9388 66.4455 12.7863 66.3436C12.6338 66.2417 12.5149 66.0968 12.4447 65.9274C12.3745 65.7579 12.3562 65.5714 12.392 65.3915C12.4277 65.2116 12.516 65.0464 12.6457 64.9167L20.9301 56.6327C21.0156 56.5441 21.118 56.4734 21.2311 56.4248C21.3443 56.3762 21.466 56.3506 21.5892 56.3495C21.7124 56.3485 21.8345 56.3719 21.9485 56.4186C22.0625 56.4652 22.1661 56.5341 22.2532 56.6212C22.3403 56.7083 22.4091 56.8118 22.4558 56.9258C22.5024 57.0398 22.5259 57.162 22.5248 57.2851C22.5237 57.4083 22.4982 57.53 22.4495 57.6432C22.4009 57.7563 22.3303 57.8587 22.2417 57.9442L13.9573 66.2282C13.7834 66.4022 13.5475 66.4999 13.3015 66.5Z"/>
<path d="M1.92739 55.1263C1.74396 55.1263 1.56466 55.0719 1.41216 54.9699C1.25965 54.868 1.14079 54.7232 1.0706 54.5537C1.00041 54.3842 0.982038 54.1978 1.01781 54.0179C1.05359 53.838 1.1419 53.6727 1.27159 53.543L9.55591 45.259C9.64148 45.1704 9.74383 45.0997 9.857 45.0511C9.97017 45.0025 10.0919 44.9769 10.2151 44.9759C10.3382 44.9748 10.4604 44.9983 10.5744 45.0449C10.6884 45.0915 10.7919 45.1604 10.879 45.2475C10.9661 45.3346 11.035 45.4381 11.0816 45.5521C11.1283 45.6661 11.1517 45.7883 11.1507 45.9114C11.1496 46.0346 11.124 46.1563 11.0754 46.2695C11.0268 46.3826 10.9561 46.485 10.8675 46.5706L2.5832 54.8545C2.40928 55.0285 2.17339 55.1263 1.92739 55.1263Z"/>
<path d="M2.48952 65.9379C2.30608 65.9378 2.12678 65.8834 1.97428 65.7815C1.82177 65.6796 1.70291 65.5347 1.63272 65.3652C1.56253 65.1958 1.54416 65.0093 1.57993 64.8294C1.61571 64.6495 1.70402 64.4842 1.83371 64.3545L10.7497 55.4389C10.9247 55.2699 11.159 55.1764 11.4022 55.1785C11.6454 55.1807 11.8781 55.2782 12.05 55.4502C12.222 55.6222 12.3196 55.8548 12.3217 56.098C12.3238 56.3412 12.2303 56.5755 12.0613 56.7504L3.14532 65.6661C2.97141 65.8401 2.73551 65.9378 2.48952 65.9379Z"/>
</mask>
<path d="M29.2478 54.4854C29.1452 54.4853 29.0433 54.4684 28.9463 54.4353C25.2226 53.25 21.8373 51.1895 19.0741 48.4264C16.3109 45.6633 14.2503 42.2781 13.065 38.5546C13.0173 38.4161 13.0031 38.2682 13.0236 38.1231C13.044 37.978 13.0986 37.8398 13.1828 37.7198L26.9761 18.039C35.7882 6.60315 49.9934 0.482216 65.0074 1.63888C65.2282 1.65571 65.4357 1.751 65.5924 1.90751C65.7491 2.06402 65.8446 2.27143 65.8617 2.49223C67.0156 17.5038 60.8972 31.7102 49.4943 40.4978L49.4609 40.5229L29.7793 54.3138C29.6241 54.4246 29.4384 54.4845 29.2478 54.4854ZM14.9758 38.3951C16.0887 41.6766 17.9421 44.658 20.3924 47.1082C22.8427 49.5584 25.8242 51.4117 29.1058 52.5245L48.3784 39.0175C59.0708 30.7696 64.8988 17.5177 64.0668 3.43648C49.9674 2.60168 36.7177 8.43692 28.4704 19.14L14.9758 38.3951Z" fill="#0ACF83"/>
<path d="M62.7477 21.2854C62.6889 21.2856 62.6302 21.2803 62.5724 21.2696C58.525 20.4985 54.8046 18.5239 51.8977 15.6041C48.9778 12.6974 47.0031 8.97707 46.232 4.92985C46.1858 4.68815 46.2376 4.43803 46.3759 4.23451C46.5142 4.03098 46.7277 3.89073 46.9694 3.84461C47.2111 3.79848 47.4612 3.85026 47.6648 3.98855C47.8683 4.12684 48.0085 4.34032 48.0547 4.58201C48.7563 8.2639 50.5528 11.6483 53.2093 14.2926C55.8537 16.949 59.2382 18.7454 62.9203 19.447C63.1467 19.4905 63.3487 19.6168 63.4871 19.8012C63.6254 19.9857 63.6902 20.215 63.6686 20.4445C63.6471 20.6741 63.5408 20.8873 63.3706 21.0428C63.2003 21.1983 62.9783 21.2848 62.7477 21.2854Z" fill="#0ACF83"/>
<path d="M41.5569 33.2082C39.8764 33.2073 38.2481 32.6237 36.9497 31.5569C35.6512 30.4901 34.7627 29.0062 34.4357 27.3578C34.1088 25.7095 34.3635 23.9987 35.1564 22.5171C35.9494 21.0355 37.2316 19.8746 38.7845 19.2323C40.3375 18.59 42.0651 18.506 43.673 18.9947C45.281 19.4833 46.6697 20.5143 47.6027 21.912C48.5356 23.3097 48.9551 24.9877 48.7895 26.66C48.624 28.3323 47.8837 29.8955 46.6948 31.0832C46.0206 31.7583 45.2196 32.2935 44.3379 32.6582C43.4562 33.0229 42.5111 33.2098 41.5569 33.2082ZM41.5569 20.5332C40.3047 20.533 39.0911 20.967 38.123 21.7612C37.1549 22.5555 36.4921 23.6608 36.2477 24.8889C36.0032 26.117 36.1922 27.3919 36.7824 28.4963C37.3726 29.6007 38.3275 30.4663 39.4844 30.9456C40.6413 31.4249 41.9286 31.4882 43.1269 31.1248C44.3253 30.7613 45.3605 29.9936 46.0563 28.9525C46.752 27.9114 47.0652 26.6612 46.9425 25.415C46.8198 24.1688 46.2687 23.0038 45.3832 22.1184C44.8818 21.6144 44.2855 21.2149 43.6287 20.9428C42.972 20.6707 42.2678 20.5315 41.5569 20.5332Z" fill="#0ACF83"/>
<path d="M36.5479 66.4295H36.4922C36.3431 66.4205 36.1983 66.3755 36.0702 66.2985C35.9421 66.2215 35.8346 66.1146 35.7567 65.9871L28.4574 54.0439C28.3291 53.8339 28.2895 53.5816 28.3473 53.3424C28.405 53.1032 28.5554 52.8968 28.7654 52.7685C28.9754 52.6402 29.2277 52.6006 29.4669 52.6583C29.7061 52.7161 29.9125 52.8665 30.0408 53.0764L36.6444 63.8815L41.6432 57.5509C42.7452 56.1478 43.5574 54.5396 44.0325 52.8199C44.5077 51.1002 44.6364 49.3032 44.4111 47.5334L43.8007 42.8399C43.7828 42.7181 43.7893 42.594 43.8198 42.4747C43.8504 42.3554 43.9043 42.2434 43.9786 42.1452C44.0529 42.047 44.146 41.9645 44.2525 41.9027C44.3589 41.8408 44.4766 41.8008 44.5988 41.7849C44.7209 41.769 44.8449 41.7776 44.9637 41.8102C45.0824 41.8427 45.1935 41.8986 45.2904 41.9745C45.3874 42.0504 45.4682 42.1449 45.5283 42.2524C45.5883 42.3599 45.6263 42.4783 45.6402 42.6006L46.2505 47.295C46.5074 49.3108 46.3608 51.3575 45.8194 53.3162C45.278 55.2748 44.3524 57.1062 43.0967 58.7039L37.2724 66.0807C37.1855 66.1895 37.0753 66.2773 36.9499 66.3377C36.8245 66.3981 36.6871 66.4294 36.5479 66.4295Z" fill="#0ACF83"/>
<path d="M13.9397 39.1789C13.7692 39.179 13.602 39.1321 13.4564 39.0434L1.51461 31.7445C1.38715 31.6667 1.28037 31.5592 1.20335 31.4312C1.12634 31.3032 1.08137 31.1586 1.07226 31.0095C1.06315 30.8604 1.09018 30.7114 1.15105 30.575C1.21191 30.4386 1.30481 30.3189 1.42185 30.2261L8.79899 24.402C10.3969 23.1466 12.2284 22.2213 14.1871 21.6799C16.1458 21.1386 18.1925 20.9918 20.2084 21.2483L24.9029 21.8586C25.0253 21.8725 25.1437 21.9105 25.2512 21.9705C25.3587 22.0306 25.4531 22.1114 25.5291 22.2084C25.605 22.3053 25.6609 22.4164 25.6934 22.5351C25.726 22.6539 25.7346 22.7779 25.7187 22.9C25.7028 23.0221 25.6627 23.1398 25.6009 23.2463C25.539 23.3528 25.4566 23.4458 25.3584 23.5201C25.2602 23.5944 25.1482 23.6484 25.0289 23.6789C24.9096 23.7094 24.7854 23.7159 24.6636 23.698L19.97 23.0877C18.2 22.8626 16.403 22.9914 14.6833 23.4666C12.9636 23.9417 11.3553 24.7537 9.95199 25.8555L3.61839 30.8568L14.4239 37.4601C14.5964 37.5656 14.7296 37.7246 14.8034 37.9128C14.8772 38.101 14.8874 38.3082 14.8326 38.5028C14.7778 38.6974 14.6609 38.8688 14.4997 38.9908C14.3385 39.1128 14.1419 39.1789 13.9397 39.1789Z" fill="#0ACF83"/>
<path d="M13.3015 66.5C13.1181 66.5 12.9388 66.4455 12.7863 66.3436C12.6338 66.2417 12.5149 66.0968 12.4447 65.9274C12.3745 65.7579 12.3562 65.5714 12.392 65.3915C12.4277 65.2116 12.516 65.0464 12.6457 64.9167L20.9301 56.6327C21.0156 56.5441 21.118 56.4734 21.2311 56.4248C21.3443 56.3762 21.466 56.3506 21.5892 56.3495C21.7124 56.3485 21.8345 56.3719 21.9485 56.4186C22.0625 56.4652 22.1661 56.5341 22.2532 56.6212C22.3403 56.7083 22.4091 56.8118 22.4558 56.9258C22.5024 57.0398 22.5259 57.162 22.5248 57.2851C22.5237 57.4083 22.4982 57.53 22.4495 57.6432C22.4009 57.7563 22.3303 57.8587 22.2417 57.9442L13.9573 66.2282C13.7834 66.4022 13.5475 66.4999 13.3015 66.5Z" fill="#0ACF83"/>
<path d="M1.92739 55.1263C1.74396 55.1263 1.56466 55.0719 1.41216 54.9699C1.25965 54.868 1.14079 54.7232 1.0706 54.5537C1.00041 54.3842 0.982038 54.1978 1.01781 54.0179C1.05359 53.838 1.1419 53.6727 1.27159 53.543L9.55591 45.259C9.64148 45.1704 9.74383 45.0997 9.857 45.0511C9.97017 45.0025 10.0919 44.9769 10.2151 44.9759C10.3382 44.9748 10.4604 44.9983 10.5744 45.0449C10.6884 45.0915 10.7919 45.1604 10.879 45.2475C10.9661 45.3346 11.035 45.4381 11.0816 45.5521C11.1283 45.6661 11.1517 45.7883 11.1507 45.9114C11.1496 46.0346 11.124 46.1563 11.0754 46.2695C11.0268 46.3826 10.9561 46.485 10.8675 46.5706L2.5832 54.8545C2.40928 55.0285 2.17339 55.1263 1.92739 55.1263Z" fill="#0ACF83"/>
<path d="M2.48952 65.9379C2.30608 65.9378 2.12678 65.8834 1.97428 65.7815C1.82177 65.6796 1.70291 65.5347 1.63272 65.3652C1.56253 65.1958 1.54416 65.0093 1.57993 64.8294C1.61571 64.6495 1.70402 64.4842 1.83371 64.3545L10.7497 55.4389C10.9247 55.2699 11.159 55.1764 11.4022 55.1785C11.6454 55.1807 11.8781 55.2782 12.05 55.4502C12.222 55.6222 12.3196 55.8548 12.3217 56.098C12.3238 56.3412 12.2303 56.5755 12.0613 56.7504L3.14532 65.6661C2.97141 65.8401 2.73551 65.9378 2.48952 65.9379Z" fill="#0ACF83"/>
<path d="M29.2478 54.4854C29.1452 54.4853 29.0433 54.4684 28.9463 54.4353C25.2226 53.25 21.8373 51.1895 19.0741 48.4264C16.3109 45.6633 14.2503 42.2781 13.065 38.5546C13.0173 38.4161 13.0031 38.2682 13.0236 38.1231C13.044 37.978 13.0986 37.8398 13.1828 37.7198L26.9761 18.039C35.7882 6.60315 49.9934 0.482216 65.0074 1.63888C65.2282 1.65571 65.4357 1.751 65.5924 1.90751C65.7491 2.06402 65.8446 2.27143 65.8617 2.49223C67.0156 17.5038 60.8972 31.7102 49.4943 40.4978L49.4609 40.5229L29.7793 54.3138C29.6241 54.4246 29.4384 54.4845 29.2478 54.4854ZM14.9758 38.3951C16.0887 41.6766 17.9421 44.658 20.3924 47.1082C22.8427 49.5584 25.8242 51.4117 29.1058 52.5245L48.3784 39.0175C59.0708 30.7696 64.8988 17.5177 64.0668 3.43648C49.9674 2.60168 36.7177 8.43692 28.4704 19.14L14.9758 38.3951Z" stroke="#0ACF83" stroke-width="1.4" mask="url(#path-1-outside-1)"/>
<path d="M62.7477 21.2854C62.6889 21.2856 62.6302 21.2803 62.5724 21.2696C58.525 20.4985 54.8046 18.5239 51.8977 15.6041C48.9778 12.6974 47.0031 8.97707 46.232 4.92985C46.1858 4.68815 46.2376 4.43803 46.3759 4.23451C46.5142 4.03098 46.7277 3.89073 46.9694 3.84461C47.2111 3.79848 47.4612 3.85026 47.6648 3.98855C47.8683 4.12684 48.0085 4.34032 48.0547 4.58201C48.7563 8.2639 50.5528 11.6483 53.2093 14.2926C55.8537 16.949 59.2382 18.7454 62.9203 19.447C63.1467 19.4905 63.3487 19.6168 63.4871 19.8012C63.6254 19.9857 63.6902 20.215 63.6686 20.4445C63.6471 20.6741 63.5408 20.8873 63.3706 21.0428C63.2003 21.1983 62.9783 21.2848 62.7477 21.2854Z" stroke="#0ACF83" stroke-width="1.4" mask="url(#path-1-outside-1)"/>
<path d="M41.5569 33.2082C39.8764 33.2073 38.2481 32.6237 36.9497 31.5569C35.6512 30.4901 34.7627 29.0062 34.4357 27.3578C34.1088 25.7095 34.3635 23.9987 35.1564 22.5171C35.9494 21.0355 37.2316 19.8746 38.7845 19.2323C40.3375 18.59 42.0651 18.506 43.673 18.9947C45.281 19.4833 46.6697 20.5143 47.6027 21.912C48.5356 23.3097 48.9551 24.9877 48.7895 26.66C48.624 28.3323 47.8837 29.8955 46.6948 31.0832C46.0206 31.7583 45.2196 32.2935 44.3379 32.6582C43.4562 33.0229 42.5111 33.2098 41.5569 33.2082ZM41.5569 20.5332C40.3047 20.533 39.0911 20.967 38.123 21.7612C37.1549 22.5555 36.4921 23.6608 36.2477 24.8889C36.0032 26.117 36.1922 27.3919 36.7824 28.4963C37.3726 29.6007 38.3275 30.4663 39.4844 30.9456C40.6413 31.4249 41.9286 31.4882 43.1269 31.1248C44.3253 30.7613 45.3605 29.9936 46.0563 28.9525C46.752 27.9114 47.0652 26.6612 46.9425 25.415C46.8198 24.1688 46.2687 23.0038 45.3832 22.1184C44.8818 21.6144 44.2855 21.2149 43.6287 20.9428C42.972 20.6707 42.2678 20.5315 41.5569 20.5332Z" stroke="#0ACF83" stroke-width="1.4" mask="url(#path-1-outside-1)"/>
<path d="M36.5479 66.4295H36.4922C36.3431 66.4205 36.1983 66.3755 36.0702 66.2985C35.9421 66.2215 35.8346 66.1146 35.7567 65.9871L28.4574 54.0439C28.3291 53.8339 28.2895 53.5816 28.3473 53.3424C28.405 53.1032 28.5554 52.8968 28.7654 52.7685C28.9754 52.6402 29.2277 52.6006 29.4669 52.6583C29.7061 52.7161 29.9125 52.8665 30.0408 53.0764L36.6444 63.8815L41.6432 57.5509C42.7452 56.1478 43.5574 54.5396 44.0325 52.8199C44.5077 51.1002 44.6364 49.3032 44.4111 47.5334L43.8007 42.8399C43.7828 42.7181 43.7893 42.594 43.8198 42.4747C43.8504 42.3554 43.9043 42.2434 43.9786 42.1452C44.0529 42.047 44.146 41.9645 44.2525 41.9027C44.3589 41.8408 44.4766 41.8008 44.5988 41.7849C44.7209 41.769 44.8449 41.7776 44.9637 41.8102C45.0824 41.8427 45.1935 41.8986 45.2904 41.9745C45.3874 42.0504 45.4682 42.1449 45.5283 42.2524C45.5883 42.3599 45.6263 42.4783 45.6402 42.6006L46.2505 47.295C46.5074 49.3108 46.3608 51.3575 45.8194 53.3162C45.278 55.2748 44.3524 57.1062 43.0967 58.7039L37.2724 66.0807C37.1855 66.1895 37.0753 66.2773 36.9499 66.3377C36.8245 66.3981 36.6871 66.4294 36.5479 66.4295Z" stroke="#0ACF83" stroke-width="1.4" mask="url(#path-1-outside-1)"/>
<path d="M13.9397 39.1789C13.7692 39.179 13.602 39.1321 13.4564 39.0434L1.51461 31.7445C1.38715 31.6667 1.28037 31.5592 1.20335 31.4312C1.12634 31.3032 1.08137 31.1586 1.07226 31.0095C1.06315 30.8604 1.09018 30.7114 1.15105 30.575C1.21191 30.4386 1.30481 30.3189 1.42185 30.2261L8.79899 24.402C10.3969 23.1466 12.2284 22.2213 14.1871 21.6799C16.1458 21.1386 18.1925 20.9918 20.2084 21.2483L24.9029 21.8586C25.0253 21.8725 25.1437 21.9105 25.2512 21.9705C25.3587 22.0306 25.4531 22.1114 25.5291 22.2084C25.605 22.3053 25.6609 22.4164 25.6934 22.5351C25.726 22.6539 25.7346 22.7779 25.7187 22.9C25.7028 23.0221 25.6627 23.1398 25.6009 23.2463C25.539 23.3528 25.4566 23.4458 25.3584 23.5201C25.2602 23.5944 25.1482 23.6484 25.0289 23.6789C24.9096 23.7094 24.7854 23.7159 24.6636 23.698L19.97 23.0877C18.2 22.8626 16.403 22.9914 14.6833 23.4666C12.9636 23.9417 11.3553 24.7537 9.95199 25.8555L3.61839 30.8568L14.4239 37.4601C14.5964 37.5656 14.7296 37.7246 14.8034 37.9128C14.8772 38.101 14.8874 38.3082 14.8326 38.5028C14.7778 38.6974 14.6609 38.8688 14.4997 38.9908C14.3385 39.1128 14.1419 39.1789 13.9397 39.1789Z" stroke="#0ACF83" stroke-width="1.4" mask="url(#path-1-outside-1)"/>
<path d="M13.3015 66.5C13.1181 66.5 12.9388 66.4455 12.7863 66.3436C12.6338 66.2417 12.5149 66.0968 12.4447 65.9274C12.3745 65.7579 12.3562 65.5714 12.392 65.3915C12.4277 65.2116 12.516 65.0464 12.6457 64.9167L20.9301 56.6327C21.0156 56.5441 21.118 56.4734 21.2311 56.4248C21.3443 56.3762 21.466 56.3506 21.5892 56.3495C21.7124 56.3485 21.8345 56.3719 21.9485 56.4186C22.0625 56.4652 22.1661 56.5341 22.2532 56.6212C22.3403 56.7083 22.4091 56.8118 22.4558 56.9258C22.5024 57.0398 22.5259 57.162 22.5248 57.2851C22.5237 57.4083 22.4982 57.53 22.4495 57.6432C22.4009 57.7563 22.3303 57.8587 22.2417 57.9442L13.9573 66.2282C13.7834 66.4022 13.5475 66.4999 13.3015 66.5Z" stroke="#0ACF83" stroke-width="1.4" mask="url(#path-1-outside-1)"/>
<path d="M1.92739 55.1263C1.74396 55.1263 1.56466 55.0719 1.41216 54.9699C1.25965 54.868 1.14079 54.7232 1.0706 54.5537C1.00041 54.3842 0.982038 54.1978 1.01781 54.0179C1.05359 53.838 1.1419 53.6727 1.27159 53.543L9.55591 45.259C9.64148 45.1704 9.74383 45.0997 9.857 45.0511C9.97017 45.0025 10.0919 44.9769 10.2151 44.9759C10.3382 44.9748 10.4604 44.9983 10.5744 45.0449C10.6884 45.0915 10.7919 45.1604 10.879 45.2475C10.9661 45.3346 11.035 45.4381 11.0816 45.5521C11.1283 45.6661 11.1517 45.7883 11.1507 45.9114C11.1496 46.0346 11.124 46.1563 11.0754 46.2695C11.0268 46.3826 10.9561 46.485 10.8675 46.5706L2.5832 54.8545C2.40928 55.0285 2.17339 55.1263 1.92739 55.1263Z" stroke="#0ACF83" stroke-width="1.4" mask="url(#path-1-outside-1)"/>
<path d="M2.48952 65.9379C2.30608 65.9378 2.12678 65.8834 1.97428 65.7815C1.82177 65.6796 1.70291 65.5347 1.63272 65.3652C1.56253 65.1958 1.54416 65.0093 1.57993 64.8294C1.61571 64.6495 1.70402 64.4842 1.83371 64.3545L10.7497 55.4389C10.9247 55.2699 11.159 55.1764 11.4022 55.1785C11.6454 55.1807 11.8781 55.2782 12.05 55.4502C12.222 55.6222 12.3196 55.8548 12.3217 56.098C12.3238 56.3412 12.2303 56.5755 12.0613 56.7504L3.14532 65.6661C2.97141 65.8401 2.73551 65.9378 2.48952 65.9379Z" stroke="#0ACF83" stroke-width="1.4" mask="url(#path-1-outside-1)"/>
</svg>
