<svg width="61" height="62" viewBox="0 0 61 62" fill="none" xmlns="http://www.w3.org/2000/svg">
<path d="M60.0298 52.0819L49.319 41.3715C49.3187 41.3712 49.3186 41.3711 49.3183 41.3708C49.3179 41.3704 49.3179 41.3704 49.3176 41.37L45.4888 37.5415C44.1955 36.2481 42.0906 36.2476 40.7968 37.5415L40.3275 38.0107L38.7106 36.3939C41.8783 32.5959 43.787 27.7132 43.787 22.3926C43.7867 10.321 33.9654 0.5 21.8932 0.5C9.82112 0.5 0 10.321 0 22.3926C0 34.4642 9.82112 44.2852 21.8932 44.2852C27.214 44.2852 32.0969 42.3765 35.895 39.2091L37.512 40.8258L37.0425 41.2952C35.7493 42.5887 35.7493 44.6935 37.0428 45.9871L51.5836 60.5274C52.88 61.824 54.9791 61.8244 56.2759 60.5275L60.0296 56.7739C61.3234 55.4804 61.3234 53.3756 60.0298 52.0819ZM21.8932 40.3038C12.0166 40.3038 3.98135 32.2689 3.98135 22.3926C3.98135 12.5163 12.0166 4.48133 21.8932 4.48133C31.7699 4.48133 39.8053 12.5163 39.8053 22.3926C39.8053 32.2689 31.7699 40.3038 21.8932 40.3038ZM40.3274 43.6412L43.1426 40.826L45.0952 42.7785L42.2799 45.5937L40.3274 43.6412ZM53.9298 57.243L45.0952 48.4088L47.9104 45.5936L56.745 54.4279L53.9298 57.243Z" fill="#FFCB3B"/>
</svg>
