<svg width="20" height="20" viewBox="0 0 20 20" fill="none" xmlns="http://www.w3.org/2000/svg">
<path d="M19.4517 5.58713C19.4072 4.5774 19.2439 3.88321 19.01 3.28169C18.7687 2.64319 18.3975 2.07154 17.9111 1.59632C17.4359 1.11371 16.8604 0.738706 16.2293 0.501172C15.6243 0.267263 14.9338 0.103976 13.924 0.0594561C12.9068 0.0111661 12.5838 0 10.0037 0C7.42359 0 7.10064 0.0111661 6.08714 0.0556857C5.0774 0.100205 4.38321 0.263637 3.78183 0.497401C3.14319 0.738706 2.57154 1.10994 2.09632 1.59632C1.61371 2.07154 1.23885 2.64696 1.00117 3.27806C0.767263 3.88321 0.603976 4.57363 0.559456 5.58336C0.511166 6.60064 0.5 6.92359 0.5 9.5037C0.5 12.0838 0.511166 12.4068 0.555686 13.4203C0.600205 14.43 0.763637 15.1242 0.997546 15.7257C1.23885 16.3642 1.61371 16.9359 2.09632 17.4111C2.57154 17.8937 3.14696 18.2687 3.77806 18.5062C4.38321 18.7401 5.07363 18.9034 6.08351 18.9479C7.09687 18.9926 7.41997 19.0036 10.0001 19.0036C12.5802 19.0036 12.9031 18.9926 13.9166 18.9479C14.9264 18.9034 15.6206 18.7401 16.2219 18.5062C17.4991 18.0124 18.5088 17.0027 19.0026 15.7257C19.2364 15.1206 19.3998 14.43 19.4443 13.4203C19.4888 12.4068 19.5 12.0838 19.5 9.5037C19.5 6.92359 19.4962 6.60064 19.4517 5.58713ZM17.7404 13.346C17.6995 14.2741 17.5436 14.7753 17.4137 15.1094C17.0943 15.9373 16.4373 16.5943 15.6094 16.9137C15.2753 17.0436 14.7705 17.1995 13.846 17.2402C12.8437 17.2849 12.5431 17.2959 10.0075 17.2959C7.47188 17.2959 7.1675 17.2849 6.16878 17.2402C5.24068 17.1995 4.73951 17.0436 4.4054 16.9137C3.99341 16.7614 3.6184 16.5201 3.31401 16.2045C2.99846 15.8964 2.75716 15.5252 2.60489 15.1132C2.47496 14.779 2.31907 14.2741 2.27832 13.3498C2.23365 12.3474 2.22263 12.0467 2.22263 9.51109C2.22263 6.97551 2.23365 6.67112 2.27832 5.67255C2.31907 4.74445 2.47496 4.24328 2.60489 3.90917C2.75716 3.49703 2.99846 3.12217 3.31779 2.81764C3.6258 2.50209 3.99704 2.26078 4.40917 2.10866C4.74328 1.97873 5.24822 1.82284 6.17255 1.78194C7.17489 1.73742 7.47565 1.72626 10.0111 1.72626C12.5505 1.72626 12.8511 1.73742 13.8498 1.78194C14.7779 1.82284 15.2791 1.97873 15.6132 2.10866C16.0252 2.26078 16.4002 2.50209 16.7045 2.81764C17.0201 3.1258 17.2614 3.49703 17.4137 3.90917C17.5436 4.24328 17.6995 4.74808 17.7404 5.67255C17.7849 6.67489 17.7961 6.97551 17.7961 9.51109C17.7961 12.0467 17.7849 12.3437 17.7404 13.346Z" fill="#1D2530"/>
<path d="M10.0036 4.62207C7.30851 4.62207 5.12183 6.80861 5.12183 9.50385C5.12183 12.1991 7.30851 14.3856 10.0036 14.3856C12.6989 14.3856 14.8854 12.1991 14.8854 9.50385C14.8854 6.80861 12.6989 4.62207 10.0036 4.62207ZM10.0036 12.6705C8.25516 12.6705 6.83692 11.2524 6.83692 9.50385C6.83692 7.75526 8.25516 6.33716 10.0036 6.33716C11.7522 6.33716 13.1703 7.75526 13.1703 9.50385C13.1703 11.2524 11.7522 12.6705 10.0036 12.6705Z" fill="#1D2530"/>
<path d="M16.2184 4.42922C16.2184 5.05859 15.7081 5.5689 15.0786 5.5689C14.4492 5.5689 13.9389 5.05859 13.9389 4.42922C13.9389 3.79971 14.4492 3.28955 15.0786 3.28955C15.7081 3.28955 16.2184 3.79971 16.2184 4.42922Z" fill="#1D2530"/>
</svg>
