<svg width="68" height="90" viewBox="0 0 68 90" fill="none" xmlns="http://www.w3.org/2000/svg">
<path d="M22.4036 68.5296C22.4036 68.5296 19.0684 70.4988 24.781 71.1645C31.7011 71.9662 35.2383 71.8508 42.8632 70.3886C42.8632 70.3886 44.873 71.6633 47.6719 72.7679C30.5738 80.2006 8.97468 72.3372 22.4036 68.5296ZM20.3125 58.8279C20.3125 58.8279 16.5711 61.64 22.2878 62.2397C29.6811 63.0136 35.5176 63.0775 45.6246 61.1031C45.6246 61.1031 47.0189 62.5416 49.2156 63.3258C28.5467 69.4612 5.52479 63.8091 20.3125 58.8279Z" fill="#0074BD"/>
<path d="M37.9255 42.3702C42.1411 47.2937 36.8206 51.7205 36.8206 51.7205C36.8206 51.7205 47.5176 46.1179 42.6053 39.0995C38.0159 32.5571 34.499 29.3081 53.544 18.1008C53.545 18.1008 23.6476 25.6747 37.9255 42.3702Z" fill="#EA2D2E"/>
<path d="M60.5395 75.7055C60.5395 75.7055 63.0093 77.7716 57.8198 79.3688C47.9525 82.4015 16.7461 83.3165 8.07817 79.4894C4.96443 78.1137 10.807 76.2053 12.6442 75.8045C14.5606 75.383 15.6553 75.4603 15.6553 75.4603C12.1902 72.9841 -6.74306 80.323 6.0389 82.4283C40.8973 88.1607 69.5801 79.8459 60.5395 75.7055ZM24.0094 48.7756C24.0094 48.7756 8.13707 52.6017 18.3892 53.9928C22.7196 54.5801 31.3459 54.4452 39.3872 53.7609C45.9569 53.2014 52.55 52.005 52.55 52.005C52.55 52.005 50.2355 53.0128 48.5588 54.1731C32.4376 58.4753 1.30127 56.471 10.2657 52.073C17.8449 48.3521 24.0094 48.7756 24.0094 48.7756ZM52.484 64.9228C68.8702 56.2856 61.293 47.9842 56.005 49.1022C54.7121 49.3763 54.1312 49.6133 54.1312 49.6133C54.1312 49.6133 54.6136 48.8467 55.5307 48.518C65.9931 44.7877 74.0374 59.5243 52.157 65.3608C52.157 65.3608 52.4078 65.13 52.484 64.9228Z" fill="#0074BD"/>
<path d="M42.6063 0C42.6063 0 51.6804 9.21126 33.9983 23.3728C19.8189 34.7357 30.7647 41.2131 33.9922 48.617C25.7153 41.039 19.6442 34.3678 23.7167 28.1603C29.6974 19.049 46.2664 14.6294 42.6063 0Z" fill="#EA2D2E"/>
<path d="M25.621 88.3369C41.3461 89.3571 65.5014 87.7692 66.0732 80.219C66.0732 80.219 64.9743 83.0806 53.0749 85.3517C39.6511 87.9155 23.0922 87.6177 13.2737 85.9731C13.2737 85.9731 15.2845 87.663 25.621 88.3369Z" fill="#0074BD"/>
</svg>
