<svg width="200" height="200" viewBox="0 0 200 200" fill="none" xmlns="http://www.w3.org/2000/svg">
<path d="M100 187.888C152.136 187.888 194.4 163.491 194.4 133.396C194.4 103.301 152.136 78.9041 100 78.9041C47.8643 78.9041 5.60001 103.301 5.60001 133.396C5.60001 163.491 47.8643 187.888 100 187.888Z" fill="#F5F5F5"/>
<path d="M16.448 122.6L119.424 182.052C120.044 182.366 120.729 182.529 121.424 182.529C122.119 182.529 122.804 182.366 123.424 182.052L179.48 149.688C180.584 149.048 180.584 148.016 179.48 147.376L76.504 87.9239C75.8839 87.6104 75.1988 87.447 74.504 87.447C73.8092 87.447 73.1241 87.6104 72.504 87.9239L16.448 120.288C15.34 120.928 15.34 121.96 16.448 122.6Z" fill="#E0E0E0"/>
<path d="M24.184 116.172L28.328 114.304C28.328 114.304 30.136 106.012 30.156 99.452C30.18 90.252 25.396 78.652 18.1 80.52C10.804 82.388 20.124 92.72 21.624 100.696C23.124 108.672 24.184 116.172 24.184 116.172Z" fill="#2B478B"/>
<path opacity="0.15" d="M24.184 116.172L28.328 114.304C28.328 114.304 30.136 106.012 30.156 99.452C30.18 90.252 25.396 78.652 18.1 80.52C10.804 82.388 20.124 92.72 21.624 100.696C23.124 108.672 24.184 116.172 24.184 116.172Z" fill="black"/>
<path d="M26.34 115.428C26.3089 115.424 26.2788 115.414 26.2517 115.398C26.2245 115.383 26.2007 115.362 26.1817 115.337C26.1628 115.312 26.1489 115.283 26.1411 115.253C26.1332 115.223 26.1315 115.191 26.136 115.16C28.876 94.944 19.808 83.72 19.736 83.608C19.7157 83.584 19.7004 83.5562 19.691 83.5262C19.6816 83.4962 19.6783 83.4646 19.6813 83.4333C19.6843 83.402 19.6935 83.3716 19.7083 83.3439C19.7232 83.3162 19.7435 83.2918 19.768 83.272C19.8169 83.232 19.8796 83.213 19.9426 83.219C20.0055 83.225 20.0635 83.2555 20.104 83.304C20.196 83.416 29.396 94.804 26.628 115.224C26.6237 115.257 26.6127 115.289 26.5956 115.317C26.5785 115.345 26.5557 115.37 26.5287 115.389C26.5016 115.408 26.4709 115.422 26.4384 115.428C26.4059 115.435 26.3724 115.435 26.34 115.428Z" fill="white"/>
<path d="M21.6 117.332L24.528 116C24.528 116 25.584 110.292 23.468 103.012C21.628 96.676 16.04 91.012 12.868 91.76C9.69598 92.508 9.54798 94.696 10.816 97.128C12.084 99.56 20.624 105.916 21.6 117.332Z" fill="#2B478B"/>
<path opacity="0.2" d="M21.6 117.332L24.528 116C24.528 116 25.584 110.292 23.468 103.012C21.628 96.676 16.04 91.012 12.868 91.76C9.69598 92.508 9.54798 94.696 10.816 97.128C12.084 99.56 20.624 105.916 21.6 117.332Z" fill="white"/>
<path d="M23.112 116.868C23.0497 116.861 22.9926 116.83 22.953 116.781C22.9134 116.733 22.8944 116.67 22.9 116.608C24.252 103.784 13.084 93.9 12.972 93.808C12.9248 93.7666 12.8959 93.7082 12.8918 93.6456C12.8877 93.5829 12.9086 93.5212 12.95 93.474C12.9914 93.4268 13.0498 93.3979 13.1124 93.3938C13.1751 93.3897 13.2368 93.4106 13.284 93.452C13.4 93.552 24.752 103.6 23.376 116.652C23.373 116.684 23.3638 116.714 23.3488 116.742C23.3339 116.77 23.3136 116.795 23.289 116.815C23.2645 116.835 23.2362 116.85 23.2058 116.859C23.1754 116.868 23.1435 116.871 23.112 116.868Z" fill="white"/>
<path d="M159.66 45.9001C159.663 45.6822 159.634 45.4651 159.572 45.2561L161.912 42.5761L158.912 40.8921C158.628 40.6961 158.224 40.6721 157.676 40.9921L152.476 44.0121L151.776 44.4121C151.899 43.8089 151.982 43.1982 152.024 42.5841C152.044 42.3281 152.048 42.0841 152.048 41.8401L152.144 41.8881L153.9 39.8361L150.9 38.1481C149.892 37.5321 148.188 38.7481 148.188 39.2401C148.188 39.8321 148.444 42.9321 148.188 43.8201C147.932 44.7081 145.252 50.8321 145.252 50.8321V51.2321V63.5921L155.032 57.9361C156.316 57.1921 157.208 55.6081 157.208 54.5361C157.222 54.0562 157.134 53.5788 156.948 53.1361C157.78 52.6561 158.608 50.9201 158.608 50.1841C158.608 49.0721 158.228 48.7841 158.228 48.7841C159.067 48.0496 159.582 47.0128 159.66 45.9001Z" fill="#2B478B"/>
<path opacity="0.1" d="M159.66 45.9001C159.663 45.6822 159.634 45.4651 159.572 45.2561L161.912 42.5761L158.912 40.8921C158.628 40.6961 158.224 40.6721 157.676 40.9921L152.476 44.0121L151.776 44.4121C151.899 43.8089 151.982 43.1982 152.024 42.5841C152.044 42.3281 152.048 42.0841 152.048 41.8401L152.144 41.8881L153.9 39.8361L150.9 38.1481C149.892 37.5321 148.188 38.7481 148.188 39.2401C148.188 39.8321 148.444 42.9321 148.188 43.8201C147.932 44.7081 145.252 50.8321 145.252 50.8321V51.2321V63.5921L155.032 57.9361C156.316 57.1921 157.208 55.6081 157.208 54.5361C157.222 54.0562 157.134 53.5788 156.948 53.1361C157.78 52.6561 158.608 50.9201 158.608 50.1841C158.608 49.0721 158.228 48.7841 158.228 48.7841C159.067 48.0496 159.582 47.0128 159.66 45.9001Z" fill="black"/>
<path d="M148.344 65.3481L145.248 63.5601L145.24 50.7921L148.332 52.5801L148.344 65.3481Z" fill="#E0E0E0"/>
<path d="M148.344 65.3481L145.248 63.5601L145.24 50.7921L148.332 52.5801L148.344 65.3481Z" fill="#2B478B"/>
<path opacity="0.3" d="M148.344 65.3481L145.248 63.5601L145.24 50.7921L148.332 52.5801L148.344 65.3481Z" fill="black"/>
<path d="M161.812 52.1801C161.812 53.8281 160.872 54.4081 160.04 54.8881C160.221 55.3348 160.307 55.8143 160.292 56.2961C160.292 57.3601 159.404 58.9521 158.124 59.6881L148.344 65.3441V53.1201V52.5801C148.344 52.5801 151.032 46.4561 151.284 45.5641C151.536 44.6721 151.284 41.5641 151.284 40.9921C151.284 40.4201 153.712 38.7761 154.484 40.4721C155.256 42.1681 155.32 43.8961 154.884 46.1521L160.796 42.7321C162.044 42.0121 162.556 43.0441 162.556 43.8521C162.556 45.0001 162.02 46.1321 161.308 46.5641C161.308 46.5641 162.668 46.6321 162.668 48.2161C162.656 48.7169 162.532 49.2087 162.305 49.6552C162.078 50.1017 161.754 50.4916 161.356 50.7961C161.356 50.7961 161.812 51.0761 161.812 52.1801Z" fill="#2B478B"/>
<path d="M142.664 70.3482L146.936 67.8842L146.924 53.0242L142.664 55.4882V70.3482Z" fill="#37474F"/>
<path d="M142.664 70.3481L139.568 68.5641V53.7041L142.664 55.4881V70.3481Z" fill="#263238"/>
<path d="M143.832 51.2401L146.924 53.0241L142.664 55.4881L139.568 53.7041L143.832 51.2401Z" fill="#455A64"/>
<path d="M151.268 45.564C151.016 46.456 148.328 52.58 148.328 52.58L145.24 50.84C145.24 50.84 147.92 44.712 148.176 43.828C148.432 42.944 148.176 39.828 148.176 39.248L151.272 40.992C151.268 41.6 151.528 44.68 151.268 45.564Z" fill="#2B478B"/>
<path opacity="0.2" d="M151.268 45.564C151.016 46.456 148.328 52.58 148.328 52.58L145.24 50.84C145.24 50.84 147.92 44.712 148.176 43.828C148.432 42.944 148.176 39.828 148.176 39.248L151.272 40.992C151.268 41.6 151.528 44.68 151.268 45.564Z" fill="black"/>
<path d="M187.564 58.5408L184.62 56.7048C183.532 56.0088 181.876 56.0808 179.996 57.1048C177.396 58.4928 175.1 61.9968 174.108 64.9688L172 63.6568C170.932 62.8848 169.432 62.7208 167.74 63.6248C167.532 63.7368 167.34 63.8608 167.116 63.9888L166.792 64.2088C166.7 64.2728 166.604 64.3328 166.512 64.4008C166.42 64.4688 166.224 64.6208 166.084 64.7328L165.924 64.8568C165.76 64.9928 165.596 65.1368 165.436 65.2848L165.364 65.3528C165.184 65.5168 165.012 65.6888 164.84 65.8648C164.313 66.4093 163.831 66.9966 163.4 67.6208C162.2 69.3408 161.44 71.2608 161.4 72.9648C161.296 76.1368 163.188 78.2248 165.552 79.5968L167.876 81.0408C169.255 81.9238 170.757 82.5978 172.332 83.0408L176.2 84.2048L180.268 78.8008C184.16 73.6408 188.832 66.4888 188.988 61.7048C189.04 60.1808 188.496 59.0968 187.564 58.5408Z" fill="#2B478B"/>
<path d="M167.828 81.0322L165.536 79.6001C163.176 78.2281 161.28 76.1401 161.384 72.9681C161.44 71.2681 162.212 69.3401 163.404 67.6241L166.424 69.5001C165.224 71.2161 164.46 73.1441 164.404 74.8441C164.312 77.6921 165.816 79.6642 167.828 81.0322Z" fill="#2B478B"/>
<g opacity="0.3">
<path opacity="0.3" d="M167.828 81.0322L165.536 79.6001C163.176 78.2281 161.28 76.1401 161.384 72.9681C161.44 71.2681 162.212 69.3401 163.404 67.6241L166.424 69.5001C165.224 71.2161 164.46 73.1441 164.404 74.8441C164.312 77.6921 165.816 79.6642 167.828 81.0322Z" fill="black"/>
</g>
<path d="M187.552 58.5201C186.46 57.8881 184.84 57.9881 183.016 58.9641C179.88 60.6361 177.176 65.3881 176.688 68.5641C176.392 65.8001 173.912 63.8161 170.776 65.4961C169.035 66.4745 167.545 67.8438 166.424 69.4961L163.404 67.6201L163.556 67.4041C163.6 67.3441 163.64 67.2881 163.688 67.2281L164.024 66.7881C164.349 66.3867 164.697 66.0034 165.064 65.6401C165.152 65.5441 165.248 65.4561 165.34 65.3681L165.54 65.1841C166.215 64.574 166.958 64.045 167.756 63.6081C168.475 63.201 169.289 62.9899 170.116 62.9961C170.8 63.0146 171.462 63.239 172.016 63.6401L174.108 64.9281C175.096 61.9601 177.396 58.4601 180 57.0721C181.88 56.0641 183.532 55.9921 184.62 56.6721L187.552 58.5201Z" fill="#2B478B"/>
<path opacity="0.1" d="M187.552 58.5201C186.46 57.8881 184.84 57.9881 183.016 58.9641C179.88 60.6361 177.176 65.3881 176.688 68.5641C176.392 65.8001 173.912 63.8161 170.776 65.4961C169.035 66.4745 167.545 67.8438 166.424 69.4961L163.404 67.6201L163.556 67.4041C163.6 67.3441 163.64 67.2881 163.688 67.2281L164.024 66.7881C164.349 66.3867 164.697 66.0034 165.064 65.6401C165.152 65.5441 165.248 65.4561 165.34 65.3681L165.54 65.1841C166.215 64.574 166.958 64.045 167.756 63.6081C168.475 63.201 169.289 62.9899 170.116 62.9961C170.8 63.0146 171.462 63.239 172.016 63.6401L174.108 64.9281C175.096 61.9601 177.396 58.4601 180 57.0721C181.88 56.0641 183.532 55.9921 184.62 56.6721L187.552 58.5201Z" fill="black"/>
<path d="M139.78 27.724L136.82 25.884L135.684 28.172L137.284 29.92C137.284 29.92 137.38 30.264 138.16 29.66C138.787 29.0925 139.332 28.441 139.78 27.724Z" fill="#2B478B"/>
<path opacity="0.3" d="M139.78 27.724L136.82 25.884L135.684 28.172L137.284 29.92C137.284 29.92 137.38 30.264 138.16 29.66C138.787 29.0925 139.332 28.441 139.78 27.724Z" fill="black"/>
<path d="M137.544 31.7681C137.544 35.3681 136.508 39.7681 134.588 43.8161C132.396 48.4481 129.06 52.6761 124.828 54.9401C122.404 56.2361 120.184 56.5081 118.344 55.9321L115.384 54.0921C117.304 53.3601 119.252 51.7761 120.932 49.5961L119.116 48.4641C118.49 48.0337 118.059 47.3741 117.916 46.6281C118.355 46.4969 118.771 46.2971 119.148 46.0361L117.948 45.2841C117.04 44.7201 116.528 43.4401 116.612 41.7681C117.27 41.8714 117.943 41.7547 118.528 41.4361C118.342 41.3697 118.165 41.2782 118.004 41.1641C116.604 40.1681 116.368 37.4601 117.448 34.6601L120.4 36.4961C122.032 36.9361 124 36.7761 126.08 35.8001C125.572 32.6281 127.712 28.1681 130.48 26.6881C131.712 26.0321 132.804 26.1161 133.548 26.7921C134.577 25.9713 135.505 25.0314 136.312 23.9921L139.272 25.8321C138.893 27.3224 138.212 28.7191 137.272 29.9361C138.182 29.3025 139.016 28.5656 139.756 27.7401C139.158 29.1547 138.417 30.5044 137.544 31.7681Z" fill="#2B478B"/>
<path d="M137.544 31.768C137.544 35.368 136.508 39.768 134.588 43.816C132.396 48.448 129.06 52.676 124.828 54.94C122.404 56.236 120.184 56.508 118.344 55.932C120.604 55.068 122.9 53.032 124.744 50.224C122.872 51.176 121.344 50.408 120.872 48.468C121.592 48.239 122.253 47.8538 122.808 47.34C120.768 47.896 119.424 46.228 119.556 43.608C120.215 43.7113 120.89 43.5947 121.476 43.276C121.326 43.2222 121.183 43.1524 121.048 43.068C119.564 42.132 119.288 39.36 120.396 36.5C120.712 37.992 123.48 39.144 125.872 39.108C128.184 39.072 128.98 37.728 129.024 37.644C128.516 34.472 130.66 30.012 133.424 28.532C134.652 27.876 135.744 27.96 136.492 28.632C137.522 27.8125 138.45 26.8725 139.256 25.832C138.877 27.3223 138.196 28.7191 137.256 29.936C138.166 29.3025 139 28.5656 139.74 27.74C139.147 29.154 138.411 30.5037 137.544 31.768Z" fill="#2B478B"/>
<path opacity="0.1" d="M139.276 25.816C138.47 26.8548 137.543 27.7947 136.516 28.616C136.324 28.4406 136.1 28.3047 135.856 28.216L133.552 26.8C134.581 25.9793 135.509 25.0394 136.316 24L139.276 25.816Z" fill="black"/>
<path opacity="0.3" d="M122.824 47.34C122.269 47.8538 121.608 48.239 120.888 48.468L117.932 46.628C118.371 46.4968 118.787 46.297 119.164 46.036L120.84 47.076L120.892 47.112L120.968 47.16C121.249 47.3143 121.558 47.4098 121.878 47.4407C122.197 47.4717 122.519 47.4374 122.824 47.34Z" fill="black"/>
<path opacity="0.1" d="M129.044 37.6401C128.956 37.7961 128.14 39.0561 125.9 39.0921C123.5 39.1281 120.74 37.9761 120.424 36.4841C120.931 36.6195 121.452 36.6973 121.976 36.7161C123.406 36.7372 124.821 36.4192 126.104 35.7881L129.044 37.6401Z" fill="black"/>
<path opacity="0.2" d="M120.4 36.5001L117.444 34.6641C116.364 37.4641 116.6 40.1721 118 41.1681L118.2 41.2921L118.472 41.4641L121.056 43.0641C119.6 42.1361 119.304 39.3641 120.4 36.5001Z" fill="black"/>
<path opacity="0.3" d="M121.492 43.2761C120.906 43.5947 120.231 43.7114 119.572 43.6081L116.616 41.7681C117.254 41.8686 117.908 41.7605 118.48 41.4601L121.064 43.0601C121.199 43.1457 121.343 43.2181 121.492 43.2761Z" fill="black"/>
<path opacity="0.3" d="M124.76 50.2241C122.9 53.0241 120.604 55.0681 118.36 55.9321L115.4 54.0921C117.32 53.3561 119.268 51.7761 120.948 49.5961L122.1 50.3121C122.8 50.7521 123.72 50.7521 124.76 50.2241Z" fill="black"/>
<path opacity="0.2" d="M135.876 28.236C135.204 27.96 134.36 28.04 133.444 28.528C130.68 30.008 128.536 34.468 129.044 37.64L126.088 35.8C125.58 32.628 127.72 28.168 130.488 26.688C131.72 26.032 132.812 26.116 133.556 26.792L135.876 28.236Z" fill="black"/>
<path opacity="0.2" d="M120.84 47.0761L119.164 46.0361L117.964 45.2841C117.056 44.7201 116.544 43.4401 116.628 41.7681L119.584 43.6081C119.492 45.2321 119.976 46.4881 120.84 47.0761Z" fill="black"/>
<path opacity="0.2" d="M122 50.2561L120.932 49.6001L119.116 48.4721C118.489 48.0414 118.057 47.3799 117.916 46.6321L120.872 48.4721C121.013 49.1863 121.415 49.8223 122 50.2561Z" fill="black"/>
<path d="M176.972 102.2L177.412 101.488L175.176 100.02C173.26 98.66 170.484 98.72 167.4 100.512C161.648 103.856 157 111.964 157.02 118.616C157.02 121.768 158.084 124.028 159.8 125.18L162.008 126.636L162.376 126.032C163.884 126.136 165.62 125.688 167.468 124.612C173.224 121.268 177.868 113.164 177.868 106.508C177.897 105.023 177.591 103.55 176.972 102.2Z" fill="#2B478B"/>
<path opacity="0.2" d="M176.972 102.2L177.412 101.488L175.176 100.02C173.26 98.66 170.484 98.72 167.4 100.512C161.648 103.856 157 111.964 157.02 118.616C157.02 121.768 158.084 124.028 159.8 125.18L162.008 126.636L162.376 126.032C163.884 126.136 165.62 125.688 167.468 124.612C173.224 121.268 177.868 113.164 177.868 106.508C177.897 105.023 177.591 103.55 176.972 102.2Z" fill="black"/>
<path d="M180.128 108C180.148 114.652 175.5 122.76 169.728 126.104C163.956 129.448 159.296 126.764 159.28 120.104C159.264 113.444 163.908 105.344 169.66 102C175.412 98.6561 180.108 101.352 180.128 108Z" fill="#2B478B"/>
<path d="M178.4 109.016C178.4 114.56 174.544 121.316 169.752 124.104C164.96 126.892 161.056 124.652 161.04 119.108C161.024 113.564 164.896 106.808 169.692 104.02C174.488 101.232 178.376 103.468 178.4 109.016Z" fill="white"/>
<path d="M176.648 110.02C176.648 114.456 173.56 119.86 169.728 122.092C165.896 124.324 162.78 122.536 162.768 118.092C162.756 113.648 165.852 108.252 169.688 106.02C173.524 103.788 176.64 105.6 176.648 110.02Z" fill="#2B478B"/>
<path d="M174.92 111.032C174.92 114.36 172.604 118.412 169.72 120.088C166.836 121.764 164.52 120.416 164.496 117.092C164.472 113.768 166.808 109.708 169.696 108.036C172.584 106.364 174.908 107.708 174.92 111.032Z" fill="white"/>
<path d="M169.7 110.044C167.78 111.16 166.232 113.864 166.24 116.08C166.248 118.296 167.804 119.196 169.724 118.08C171.644 116.964 173.192 114.26 173.184 112.044C173.176 109.828 171.62 108.928 169.7 110.044Z" fill="#2B478B"/>
<path d="M169.704 112.052C169.199 112.385 168.78 112.831 168.48 113.356C168.18 113.881 168.007 114.468 167.976 115.072C167.976 116.18 168.756 116.628 169.716 116.072C170.222 115.74 170.642 115.294 170.943 114.769C171.244 114.244 171.417 113.656 171.448 113.052C171.444 111.944 170.664 111.496 169.704 112.052Z" fill="white"/>
<path d="M187.092 123.02L184.772 122.056L183.332 121.988V122.248L185.532 123.52L187.092 123.28V123.02Z" fill="#2B478B"/>
<path d="M183.332 121.988L184.772 122.056L187.092 123.02L185.532 123.26L183.332 121.988Z" fill="#2B478B"/>
<path opacity="0.2" d="M185.532 123.52V123.26L187.092 123.02V123.28L185.532 123.52Z" fill="black"/>
<path opacity="0.1" d="M185.532 123.26L183.332 121.988V122.248L185.532 123.52V123.26Z" fill="black"/>
<path d="M173.448 115.036L169.884 114.06V114.556L171.452 116.684L172.312 115.86L173.448 115.532V115.036Z" fill="#37474F"/>
<path d="M169.884 114.06L171.452 116.188L172.312 115.368L173.448 115.036L169.884 114.06Z" fill="#455A64"/>
<path d="M171.452 116.188V116.684L172.312 115.86V115.368L171.452 116.188Z" fill="#263238"/>
<path d="M172.312 115.368L173.448 115.036V115.532L172.312 115.86V115.368Z" fill="#263238"/>
<path d="M172.464 115.364C172.439 115.348 172.41 115.34 172.38 115.34C172.35 115.34 172.321 115.348 172.296 115.364C172.228 115.408 172.171 115.467 172.13 115.536C172.088 115.606 172.063 115.684 172.056 115.764C172.052 115.794 172.057 115.825 172.07 115.852C172.083 115.88 172.103 115.903 172.128 115.92L186.64 124.32L186.968 123.728L172.464 115.364Z" fill="#455A64"/>
<path d="M172.108 115.6C172.076 115.663 172.059 115.733 172.056 115.804C172.052 115.834 172.057 115.865 172.07 115.892C172.083 115.92 172.103 115.943 172.128 115.96L186.64 124.36L186.788 124.092L172.108 115.6Z" fill="#37474F"/>
<path d="M186.8 123.764C186.733 123.808 186.677 123.867 186.636 123.937C186.595 124.006 186.57 124.084 186.564 124.164C186.564 124.316 186.668 124.38 186.8 124.304C186.868 124.26 186.924 124.201 186.965 124.132C187.006 124.062 187.03 123.984 187.036 123.904C187.04 123.752 186.936 123.688 186.8 123.764Z" fill="#263238"/>
<path d="M185.376 123.608V123.348L183.18 122.076V122.34L183.296 123.168L184.96 124.512L185.376 123.612V123.608Z" fill="#2B478B"/>
<path opacity="0.2" d="M183.18 122.076L183.3 122.908L183.296 123.168L183.18 122.34V122.076Z" fill="black"/>
<path opacity="0.2" d="M185.376 123.348L184.96 124.248V124.508L185.376 123.608V123.348Z" fill="black"/>
<path opacity="0.1" d="M183.3 122.908L184.96 124.248V124.508L183.296 123.168L183.3 122.908Z" fill="black"/>
<path d="M186.996 104.58L184.676 105.544L183.24 105.612V105.352L185.436 104.08L186.996 104.32V104.58Z" fill="#2B478B"/>
<path d="M183.24 105.612L184.676 105.544L186.996 104.58L185.436 104.34L183.24 105.612Z" fill="#2B478B"/>
<path opacity="0.2" d="M185.436 104.08V104.34L186.996 104.58V104.32L185.436 104.08Z" fill="black"/>
<path opacity="0.1" d="M185.436 104.34L183.24 105.612V105.352L185.436 104.08V104.34Z" fill="black"/>
<path d="M173.352 112.564L169.792 113.54V113.044L171.356 110.92L172.216 111.74L173.352 112.068V112.564Z" fill="#37474F"/>
<path d="M169.792 113.54L171.356 111.412L172.216 112.236L173.352 112.564L169.792 113.54Z" fill="#455A64"/>
<path d="M171.356 111.412V110.92L172.216 111.74V112.236L171.356 111.412Z" fill="#263238"/>
<path d="M172.216 112.236L173.352 112.564V112.068L172.216 111.74V112.236Z" fill="#263238"/>
<path d="M172.368 112.236C172.343 112.253 172.314 112.261 172.284 112.261C172.254 112.261 172.225 112.253 172.2 112.236C172.132 112.192 172.075 112.133 172.034 112.064C171.992 111.994 171.967 111.917 171.96 111.836C171.957 111.806 171.962 111.776 171.975 111.748C171.987 111.721 172.007 111.697 172.032 111.68L186.544 103.28L186.872 103.868L172.368 112.236Z" fill="#455A64"/>
<path d="M172 112C171.965 111.938 171.946 111.868 171.944 111.796C171.941 111.766 171.946 111.736 171.959 111.708C171.971 111.681 171.991 111.657 172.016 111.64L186.528 103.24L186.676 103.504L172 112Z" fill="#37474F"/>
<path d="M186.708 103.836C186.641 103.792 186.584 103.733 186.543 103.664C186.502 103.594 186.478 103.516 186.472 103.436C186.472 103.284 186.576 103.22 186.708 103.296C186.775 103.34 186.832 103.399 186.873 103.469C186.914 103.538 186.938 103.616 186.944 103.696C186.944 103.848 186.84 103.912 186.708 103.836Z" fill="#263238"/>
<path d="M185.28 103.992V104.252L183.084 105.524V105.26L183.2 104.432L184.864 103.088L185.28 103.992Z" fill="#2B478B"/>
<path opacity="0.2" d="M183.084 105.524L183.204 104.692L183.2 104.432L183.084 105.26V105.524Z" fill="black"/>
<path opacity="0.2" d="M185.28 104.252L184.864 103.352V103.092L185.28 103.992V104.252Z" fill="black"/>
<path opacity="0.1" d="M183.204 104.692L184.864 103.352V103.092L183.2 104.432L183.204 104.692Z" fill="black"/>
<path d="M145.492 111.692L143.768 107.272L145.156 103.272V100.8L140.908 103.252V105.704L142.736 110.044C142.765 110.092 142.808 110.13 142.86 110.152L145.492 111.692Z" fill="#2B478B"/>
<path opacity="0.2" d="M145.492 111.692L143.768 107.272L145.156 103.272V100.8L140.908 103.252V105.704L142.736 110.044C142.765 110.092 142.808 110.13 142.86 110.152L145.492 111.692Z" fill="black"/>
<path d="M155.744 92.92C155.721 92.4782 155.594 92.0482 155.372 91.6651C155.151 91.282 154.843 90.9568 154.472 90.716L154 90.4C153.605 90.2007 153.17 90.0968 152.728 90.0968C152.286 90.0968 151.85 90.2007 151.456 90.4L134.148 100.4C133.777 100.641 133.468 100.966 133.247 101.349C133.026 101.732 132.899 102.162 132.876 102.604V108.452C132.899 108.894 133.026 109.324 133.247 109.707C133.468 110.09 133.777 110.415 134.148 110.656L134.636 110.956C135.03 111.157 135.465 111.262 135.908 111.262C136.35 111.262 136.786 111.157 137.18 110.956L143.58 107.256L145.396 111.6C145.422 111.645 145.46 111.682 145.506 111.706C145.552 111.73 145.604 111.74 145.656 111.735C145.707 111.731 145.757 111.711 145.798 111.68C145.839 111.648 145.87 111.605 145.888 111.556L147.816 104.8L154.472 100.956C154.843 100.715 155.151 100.39 155.372 100.007C155.594 99.6237 155.721 99.1937 155.744 98.752V92.92Z" fill="#2B478B"/>
<path opacity="0.2" d="M132.86 108.46C132.883 108.902 133.01 109.332 133.231 109.715C133.452 110.098 133.761 110.423 134.132 110.664L134.62 110.964C134.979 111.145 135.372 111.248 135.773 111.266C136.174 111.284 136.575 111.216 136.948 111.068C136.348 111.292 135.892 110.956 135.892 110.228V104.4C135.906 103.956 136.034 103.524 136.264 103.144L133.232 101.376C133.003 101.755 132.875 102.186 132.86 102.628V108.46Z" fill="black"/>
<path opacity="0.5" d="M155.704 92.56C155.556 92.02 155.06 91.848 154.472 92.184L137.164 102.184C136.786 102.414 136.476 102.741 136.268 103.132L133.236 101.368C133.448 100.979 133.757 100.651 134.132 100.416L151.436 90.416C151.831 90.2166 152.267 90.1128 152.71 90.1128C153.153 90.1128 153.589 90.2166 153.984 90.416L154.472 90.716C154.791 90.925 155.064 91.196 155.275 91.5128C155.487 91.8296 155.633 92.1857 155.704 92.56Z" fill="white"/>
<path d="M138.256 108.276C138.104 108.336 137.936 108.336 137.784 108.276C137.755 108.255 137.732 108.227 137.717 108.195C137.702 108.163 137.694 108.128 137.696 108.092C137.702 107.939 137.735 107.789 137.796 107.648C137.834 107.519 137.913 107.405 138.02 107.324C138.074 107.3 138.133 107.289 138.192 107.292H138.364C138.527 107.284 138.686 107.237 138.828 107.156C138.968 107.076 139.091 106.97 139.192 106.844C139.295 106.724 139.35 106.57 139.348 106.412C139.353 106.317 139.325 106.224 139.268 106.148C139.214 106.095 139.143 106.063 139.068 106.056C138.955 106.047 138.841 106.047 138.728 106.056C138.466 106.083 138.203 106.018 137.984 105.872C137.896 105.772 137.83 105.654 137.791 105.526C137.751 105.399 137.74 105.264 137.756 105.132C137.765 104.708 137.905 104.297 138.156 103.956C138.423 103.57 138.775 103.25 139.184 103.02C139.337 102.929 139.501 102.858 139.672 102.808C139.8 102.76 139.936 102.741 140.072 102.752C140.156 102.752 140.196 102.816 140.196 102.916C140.189 103.053 140.162 103.187 140.116 103.316C140.09 103.438 140.022 103.547 139.924 103.624C139.862 103.653 139.796 103.673 139.728 103.684C139.574 103.709 139.425 103.761 139.288 103.836C139.139 103.912 139.012 104.025 138.92 104.164C138.858 104.26 138.822 104.37 138.816 104.484C138.816 104.652 138.86 104.752 138.948 104.792C139.077 104.832 139.213 104.848 139.348 104.84H139.504C139.744 104.818 139.984 104.887 140.176 105.032C140.255 105.129 140.313 105.241 140.348 105.362C140.383 105.482 140.394 105.608 140.38 105.732C140.378 106.006 140.323 106.278 140.22 106.532C140.102 106.824 139.936 107.095 139.728 107.332C139.493 107.598 139.216 107.824 138.908 108C138.703 108.12 138.484 108.212 138.256 108.276Z" fill="white"/>
<path d="M140.852 106.616V102.296C140.852 102.152 140.984 102.004 141.252 101.856L141.536 101.692C141.792 101.544 141.936 101.54 141.936 101.692V103.36L143.092 102.692V101.024C143.092 100.88 143.224 100.736 143.492 100.584L143.768 100.424C144.028 100.272 144.168 100.272 144.168 100.424V104.748C144.168 104.892 144.036 105.036 143.768 105.188L143.492 105.348C143.232 105.5 143.092 105.5 143.092 105.348V103.588L141.936 104.256V106C141.936 106.144 141.808 106.292 141.536 106.44L141.252 106.604C140.984 106.756 140.852 106.76 140.852 106.616Z" fill="white"/>
<path d="M144.532 104.56C144.534 104.515 144.541 104.471 144.552 104.428L145.592 99.5319C145.624 99.3879 145.76 99.2479 145.992 99.1079L146.432 98.8519C146.68 98.7119 146.832 98.6919 146.832 98.7999L147.872 102.492C147.872 102.552 147.872 102.588 147.872 102.608C147.872 102.708 147.772 102.812 147.58 102.924L147.224 103.132C147.008 103.256 146.888 103.276 146.864 103.196L146.688 102.472L145.664 103.064L145.48 103.992C145.48 104.1 145.356 104.208 145.164 104.32L144.812 104.52C144.64 104.648 144.532 104.66 144.532 104.56ZM146.62 101.716L146.316 100.46C146.284 100.316 146.256 100.16 146.232 99.9919L146.2 100.012C146.176 100.204 146.152 100.392 146.12 100.572L145.82 102.172L146.62 101.716Z" fill="white"/>
<path d="M148.292 102.32V98.068C148.289 97.9834 148.312 97.9 148.356 97.828C148.41 97.7511 148.481 97.6881 148.564 97.644L149.688 96.992C149.977 96.7828 150.333 96.6874 150.688 96.724C150.94 96.78 151.068 97.052 151.068 97.524C151.05 98.0897 150.821 98.6281 150.424 99.032V99.06C150.475 99.0597 150.525 99.0698 150.572 99.0898C150.619 99.1097 150.661 99.1391 150.696 99.176C150.779 99.2604 150.84 99.3632 150.876 99.476L151.276 100.54L151.296 100.612C151.296 100.732 151.156 100.872 150.876 101.032L150.64 101.172C150.404 101.308 150.268 101.324 150.24 101.224L149.884 100.148C149.871 100.117 149.852 100.09 149.828 100.067C149.804 100.044 149.775 100.027 149.744 100.016C149.655 100.017 149.568 100.047 149.496 100.1L149.336 100.192V101.716C149.336 101.86 149.2 102.012 148.936 102.168L148.704 102.3C148.428 102.46 148.292 102.464 148.292 102.32ZM149.708 98.992C149.82 98.9205 149.91 98.8176 149.964 98.696C150.037 98.5423 150.072 98.3738 150.068 98.204C150.068 98.016 150.032 97.9 149.964 97.852C149.921 97.8286 149.871 97.8184 149.822 97.8226C149.773 97.8269 149.727 97.8454 149.688 97.876L149.332 98.084V99.2L149.708 98.992Z" fill="white"/>
<path d="M151.836 100.4C151.796 100.4 151.776 100.32 151.776 100.228V96.06C151.773 95.9747 151.794 95.8903 151.836 95.816C151.884 95.7442 151.948 95.6851 152.024 95.644L154.024 94.496C154.092 94.456 154.14 94.452 154.172 94.496C154.213 94.5661 154.229 94.6475 154.22 94.728V94.936C154.223 95.0329 154.207 95.1296 154.172 95.22C154.142 95.2905 154.09 95.3494 154.024 95.388L152.824 96.072V97.052L153.876 96.444C153.944 96.404 153.996 96.404 154.024 96.444C154.064 96.5128 154.081 96.5928 154.072 96.672V96.88C154.076 96.977 154.059 97.0737 154.024 97.164C153.995 97.2353 153.943 97.2946 153.876 97.332L152.824 97.94V99.032L154.024 98.344C154.092 98.304 154.14 98.304 154.168 98.344C154.204 98.4156 154.22 98.4961 154.212 98.576V98.784C154.215 98.8805 154.2 98.9768 154.168 99.068C154.14 99.1372 154.089 99.1949 154.024 99.232L152.024 100.384C151.996 100.4 151.964 100.41 151.932 100.412C151.899 100.415 151.867 100.411 151.836 100.4Z" fill="white"/>
<path d="M127.6 99.8001L125.876 95.3801L127.264 91.3801V88.9281L123.02 91.3801V93.8281L124.844 98.1681C124.873 98.2173 124.916 98.2565 124.968 98.2801L127.6 99.8001Z" fill="#2B478B"/>
<path opacity="0.2" d="M127.6 99.8001L125.876 95.3801L127.264 91.3801V88.9281L123.02 91.3801V93.8281L124.844 98.1681C124.873 98.2173 124.916 98.2565 124.968 98.2801L127.6 99.8001Z" fill="black"/>
<path d="M139.168 80.2481C139.145 79.8064 139.018 79.3763 138.797 78.9932C138.576 78.6101 138.267 78.2849 137.896 78.0441L137.408 77.7441C137.014 77.5448 136.578 77.4409 136.136 77.4409C135.694 77.4409 135.258 77.5448 134.864 77.7441L114.892 89.2761C114.521 89.5169 114.212 89.8421 113.991 90.2252C113.77 90.6083 113.643 91.0384 113.62 91.4801V97.3241C113.644 97.766 113.772 98.196 113.993 98.5795C114.214 98.963 114.522 99.2893 114.892 99.5321L115.38 99.8281C115.774 100.029 116.21 100.134 116.652 100.134C117.094 100.134 117.53 100.029 117.924 99.8281L125.664 95.3681L127.488 99.7041C127.514 99.749 127.553 99.7855 127.599 99.8092C127.645 99.8329 127.698 99.8429 127.749 99.8378C127.801 99.8327 127.85 99.8129 127.891 99.7807C127.932 99.7485 127.963 99.7053 127.98 99.6561L129.904 92.9201L137.904 88.3001C138.275 88.0593 138.584 87.734 138.805 87.3509C139.026 86.9678 139.153 86.5378 139.176 86.0961L139.168 80.2481Z" fill="#2B478B"/>
<path opacity="0.2" d="M113.62 97.324C113.644 97.7659 113.772 98.1959 113.993 98.5794C114.214 98.9629 114.522 99.2892 114.892 99.532L115.38 99.828C115.739 100.009 116.132 100.112 116.533 100.13C116.934 100.148 117.335 100.08 117.708 99.932C117.108 100.16 116.652 99.82 116.652 99.096V93.248C116.668 92.8046 116.796 92.3726 117.024 91.992L114 90.224C113.772 90.6046 113.644 91.0366 113.628 91.48L113.62 97.324Z" fill="black"/>
<path opacity="0.5" d="M139.128 79.888C138.98 79.348 138.484 79.176 137.896 79.512L117.924 91.044C117.547 91.2769 117.238 91.6053 117.028 91.996L114 90.228C114.213 89.8388 114.523 89.5109 114.9 89.276L134.864 77.744C135.259 77.5447 135.695 77.4408 136.138 77.4408C136.581 77.4408 137.017 77.5447 137.412 77.744L137.9 78.044C138.218 78.2527 138.491 78.5237 138.702 78.8406C138.913 79.1575 139.058 79.5137 139.128 79.888Z" fill="white"/>
<path d="M118.724 96.772V92.944C118.721 92.8668 118.74 92.7904 118.78 92.724C118.823 92.6595 118.88 92.6061 118.948 92.568L120.62 91.604C120.68 91.568 120.724 91.568 120.752 91.604C120.789 91.6669 120.804 91.7398 120.796 91.812V92C120.798 92.0874 120.783 92.1744 120.752 92.256C120.725 92.3182 120.679 92.3701 120.62 92.404L119.672 92.952V93.84L120.564 93.324C120.624 93.288 120.668 93.288 120.7 93.324C120.735 93.3861 120.749 93.4575 120.74 93.528V93.716C120.744 93.8032 120.73 93.8903 120.7 93.972C120.672 94.0356 120.624 94.0887 120.564 94.124L119.672 94.64V96.24C119.672 96.368 119.552 96.5 119.32 96.64L119.076 96.78C118.84 96.896 118.724 96.9 118.724 96.772Z" fill="white"/>
<path d="M121.2 93.408C121.2 91.96 121.728 90.928 122.8 90.312C123.316 90.016 123.712 89.964 123.98 90.16C124.248 90.356 124.38 90.828 124.38 91.572C124.401 92.2219 124.264 92.8672 123.98 93.452C123.708 93.9559 123.299 94.3721 122.8 94.652C121.708 95.276 121.2 94.86 121.2 93.408ZM123.148 93.54C123.249 93.376 123.317 93.1939 123.348 93.004C123.398 92.7147 123.42 92.4215 123.416 92.128C123.424 91.8596 123.401 91.5912 123.348 91.328C123.304 91.156 123.236 91.052 123.148 91.024C123.087 91.0117 123.024 91.0125 122.963 91.0262C122.903 91.04 122.846 91.0665 122.796 91.104C122.654 91.1849 122.532 91.2971 122.44 91.432C122.336 91.596 122.266 91.7799 122.236 91.972C122.183 92.2595 122.159 92.5517 122.164 92.844C122.155 93.1126 122.179 93.3814 122.236 93.644C122.28 93.82 122.348 93.92 122.44 93.948C122.502 93.9586 122.565 93.9567 122.627 93.9422C122.688 93.9278 122.745 93.9012 122.796 93.864C122.93 93.7829 123.044 93.6721 123.128 93.54H123.148Z" fill="white"/>
<path d="M124.988 93.276C124.952 93.276 124.932 93.208 124.932 93.124V89.296C124.932 89.168 125.052 89.032 125.288 88.896L125.528 88.752C125.764 88.616 125.88 88.616 125.88 88.752V92.028L126.788 91.504C126.852 91.468 126.9 91.464 126.928 91.504C126.962 91.5676 126.976 91.6402 126.968 91.712V91.9C126.972 91.9872 126.958 92.0742 126.928 92.156C126.899 92.2208 126.85 92.2742 126.788 92.308L125.16 93.248C125.08 93.284 125.024 93.296 124.988 93.276Z" fill="white"/>
<path d="M127.468 91.848C127.432 91.828 127.412 91.78 127.412 91.692V87.864C127.412 87.736 127.532 87.604 127.764 87.464L128.008 87.324C128.244 87.188 128.36 87.184 128.36 87.324V90.6L129.268 90.08C129.332 90.04 129.376 90.036 129.408 90.08C129.443 90.142 129.457 90.2134 129.448 90.284V90.472C129.452 90.5591 129.438 90.6462 129.408 90.728C129.377 90.7922 129.329 90.8463 129.268 90.884L127.64 91.82C127.56 91.852 127.504 91.864 127.468 91.848Z" fill="white"/>
<path d="M129.656 88.516C129.656 87.0653 130.189 86.0333 131.256 85.42C131.776 85.12 132.168 85.068 132.436 85.268C132.704 85.468 132.836 85.936 132.836 86.68C132.86 87.33 132.722 87.9758 132.436 88.56C132.166 89.0648 131.756 89.4813 131.256 89.76C130.192 90.3813 129.659 89.9666 129.656 88.516ZM131.608 88.644C131.709 88.4803 131.777 88.2981 131.808 88.108C131.856 87.8199 131.878 87.528 131.872 87.236C131.881 86.9677 131.86 86.6993 131.808 86.436C131.764 86.26 131.696 86.16 131.608 86.128C131.546 86.1176 131.483 86.1197 131.422 86.1341C131.36 86.1485 131.303 86.175 131.252 86.212C131.111 86.2916 130.991 86.4025 130.9 86.536C130.797 86.7023 130.726 86.887 130.692 87.08C130.639 87.3661 130.615 87.657 130.62 87.948C130.611 88.2166 130.635 88.4853 130.692 88.748C130.74 88.924 130.808 89.028 130.9 89.056C130.961 89.0665 131.024 89.0645 131.085 89.05C131.145 89.0356 131.202 89.0091 131.252 88.972C131.392 88.8912 131.511 88.7789 131.6 88.644H131.608Z" fill="white"/>
<path d="M133.88 88.184C133.871 88.1871 133.862 88.1881 133.853 88.1871C133.844 88.186 133.835 88.1828 133.827 88.1778C133.819 88.1727 133.813 88.166 133.808 88.1581C133.804 88.1501 133.801 88.1412 133.8 88.132L133 84.692C132.998 84.6747 132.998 84.6573 133 84.64C133.002 84.6267 133.002 84.6133 133 84.6C133 84.496 133.12 84.372 133.36 84.236L133.536 84.132C133.776 83.992 133.908 83.98 133.936 84.096L134.22 86.176L134.276 86.576L134.332 87.02L134.44 86.22C134.454 86.1567 134.463 86.0926 134.468 86.028L134.84 83.508C134.848 83.4538 134.875 83.4042 134.916 83.368C134.98 83.308 135.051 83.2569 135.128 83.216L135.432 83.04C135.496 82.9986 135.566 82.9675 135.64 82.948C135.684 82.948 135.708 82.948 135.716 83.004L136.08 85.096L136.216 85.952L136.3 85.252L136.336 84.952L136.628 82.552C136.628 82.416 136.772 82.28 137.028 82.152L137.168 82.068C137.408 81.932 137.528 81.916 137.528 82.02C137.53 82.052 137.53 82.084 137.528 82.116L136.728 86.484C136.728 86.576 136.616 86.676 136.444 86.776L136.044 87.008C135.884 87.1 135.792 87.112 135.772 87.036L135.372 85.132L135.304 84.52L135.2 85.2L134.78 87.6C134.78 87.692 134.672 87.788 134.508 87.884L134.108 88.116C134.037 88.1529 133.96 88.176 133.88 88.184Z" fill="white"/>
<path d="M91.7329 69.284L108.533 59.584C108.593 59.5376 108.667 59.5125 108.743 59.5125C108.819 59.5125 108.893 59.5376 108.953 59.584C109.053 59.664 110.001 60.164 110.105 60.24C110.168 60.2962 110.216 60.3664 110.247 60.4449C110.278 60.5235 110.289 60.6081 110.281 60.692V75.812C110.278 76.0292 110.223 76.2426 110.123 76.435C110.022 76.6275 109.878 76.7936 109.701 76.92L106.753 78.624L91.3329 69.724C91.4245 69.5442 91.5626 69.3922 91.7329 69.284Z" fill="#2B478B"/>
<path opacity="0.5" d="M91.7329 69.284L108.533 59.584C108.593 59.5376 108.667 59.5125 108.743 59.5125C108.819 59.5125 108.893 59.5376 108.953 59.584C109.053 59.664 110.001 60.164 110.105 60.24C110.168 60.2962 110.216 60.3664 110.247 60.4449C110.278 60.5235 110.289 60.6081 110.281 60.692V75.812C110.278 76.0292 110.223 76.2426 110.123 76.435C110.022 76.6275 109.878 76.7936 109.701 76.92L106.753 78.624L91.3329 69.724C91.4245 69.5442 91.5626 69.3922 91.7329 69.284Z" fill="white"/>
<path d="M92.512 86.6439C92.396 86.5679 91.44 86.0399 91.336 85.9679C91.2709 85.9123 91.2202 85.8419 91.1882 85.7625C91.1561 85.6831 91.1437 85.5971 91.152 85.5119V70.3999C91.1577 70.1656 91.2209 69.9362 91.336 69.7319L106.756 78.6319L92.904 86.6319C92.8468 86.6716 92.7794 86.6939 92.7098 86.696C92.6402 86.6981 92.5715 86.68 92.512 86.6439Z" fill="#2B478B"/>
<path opacity="0.2" d="M92.512 86.6439C92.396 86.5679 91.44 86.0399 91.336 85.9679C91.2709 85.9123 91.2202 85.8419 91.1882 85.7625C91.1561 85.6831 91.1437 85.5971 91.152 85.5119V70.3999C91.1577 70.1656 91.2209 69.9362 91.336 69.7319L106.756 78.6319L92.904 86.6319C92.8468 86.6716 92.7794 86.6939 92.7098 86.696C92.6402 86.6981 92.5715 86.68 92.512 86.6439Z" fill="black"/>
<path d="M92.904 86.6201L109.704 76.9201C109.881 76.7936 110.025 76.6275 110.126 76.4351C110.227 76.2426 110.281 76.0292 110.284 75.8121V60.692C110.284 60.268 110.024 60.072 109.704 60.256L92.904 69.956C92.7274 70.0825 92.5829 70.2486 92.4821 70.441C92.3814 70.6335 92.3272 70.8469 92.324 71.064V86.1841C92.324 86.6081 92.584 86.8001 92.904 86.6201Z" fill="#2B478B"/>
<path opacity="0.2" d="M92.324 86.1839V85.8839L99.272 74.3719L92.4 70.5719L92.452 70.4479L101.008 73.9999C101.188 74.0719 101.408 73.9399 101.604 73.6559L110.136 60.2479C110.155 60.2662 110.173 60.2863 110.188 60.3079L103.34 72.0119L110.284 75.5039V75.7999C110.28 76.0381 110.221 76.2722 110.112 76.4839L102.988 72.6159L101.976 74.3399C101.576 75.0239 101.032 75.3399 100.632 75.1159L99.624 74.5559L92.512 86.6319C92.4478 86.5771 92.3974 86.5081 92.3648 86.4303C92.3321 86.3525 92.3181 86.2681 92.324 86.1839Z" fill="black"/>
<path d="M95.9049 71.736L112.705 62.0359C112.766 61.9905 112.841 61.9659 112.917 61.9659C112.993 61.9659 113.068 61.9905 113.129 62.0359C113.225 62.1199 114.177 62.6199 114.281 62.6919C114.344 62.749 114.392 62.8199 114.423 62.8991C114.454 62.9783 114.465 63.0635 114.457 63.1479V78.268C114.453 78.485 114.398 78.698 114.298 78.8903C114.197 79.0826 114.053 79.2489 113.877 79.376L110.925 81.076L95.5089 72.176C95.6004 71.9973 95.7369 71.8456 95.9049 71.736Z" fill="#2B478B"/>
<path opacity="0.5" d="M95.9049 71.736L112.705 62.0359C112.766 61.9905 112.841 61.9659 112.917 61.9659C112.993 61.9659 113.068 61.9905 113.129 62.0359C113.225 62.1199 114.177 62.6199 114.281 62.6919C114.344 62.749 114.392 62.8199 114.423 62.8991C114.454 62.9783 114.465 63.0635 114.457 63.1479V78.268C114.453 78.485 114.398 78.698 114.298 78.8903C114.197 79.0826 114.053 79.2489 113.877 79.376L110.925 81.076L95.5089 72.176C95.6004 71.9973 95.7369 71.8456 95.9049 71.736Z" fill="white"/>
<path d="M96.68 89.0959C96.568 89.0239 95.612 88.4919 95.508 88.4239C95.4426 88.3677 95.3917 88.2965 95.3597 88.2164C95.3276 88.1364 95.3154 88.0497 95.324 87.9639V72.8439C95.3308 72.6097 95.3939 72.3806 95.508 72.1759L110.924 81.0759L97.076 89.0759C97.0188 89.1167 96.9511 89.1403 96.8809 89.1438C96.8107 89.1473 96.741 89.1307 96.68 89.0959Z" fill="#2B478B"/>
<path opacity="0.2" d="M96.68 89.0959C96.568 89.0239 95.612 88.4919 95.508 88.4239C95.4426 88.3677 95.3917 88.2965 95.3597 88.2164C95.3276 88.1364 95.3154 88.0497 95.324 87.9639V72.8439C95.3308 72.6097 95.3939 72.3806 95.508 72.1759L110.924 81.0759L97.076 89.0759C97.0188 89.1167 96.9511 89.1403 96.8809 89.1438C96.8107 89.1473 96.741 89.1307 96.68 89.0959Z" fill="black"/>
<path d="M97.076 89.076L113.876 79.376C114.052 79.2489 114.196 79.0827 114.297 78.8904C114.397 78.6981 114.452 78.485 114.456 78.268V63.148C114.456 62.72 114.196 62.524 113.876 62.708L97.076 72.408C96.9 72.5351 96.756 72.7013 96.6554 72.8936C96.5547 73.0859 96.5001 73.299 96.496 73.516V88.636C96.496 89.064 96.756 89.26 97.076 89.076Z" fill="#2B478B"/>
<path opacity="0.2" d="M96.496 88.6359V88.34L103.44 76.828L96.584 73.0279C96.5989 72.9856 96.6163 72.9442 96.636 72.9039L105.176 76.4639C105.36 76.5399 105.576 76.4039 105.772 76.1199L114.304 62.7159C114.324 62.7316 114.342 62.7505 114.356 62.7719L107.512 74.4799L114.456 77.9679V78.2679C114.453 78.5055 114.392 78.7387 114.28 78.9479L107.156 75.0799L106.148 76.7999C105.748 77.4839 105.204 77.7999 104.804 77.5999L103.792 77.0399L96.68 89.096C96.6156 89.0389 96.5654 88.9676 96.5335 88.8878C96.5016 88.8079 96.4887 88.7217 96.496 88.6359Z" fill="black"/>
<path d="M100.073 74.192L116.873 64.492C116.934 64.4459 117.008 64.421 117.085 64.421C117.161 64.421 117.236 64.4459 117.297 64.492C117.393 64.572 118.341 65.072 118.445 65.148C118.509 65.2036 118.558 65.2737 118.588 65.3524C118.619 65.4311 118.63 65.5161 118.621 65.6V80.72C118.619 80.9374 118.565 81.1511 118.464 81.3437C118.363 81.5363 118.218 81.7023 118.041 81.828L115.093 83.532L99.6729 74.632C99.7645 74.4522 99.9026 74.3003 100.073 74.192Z" fill="#2B478B"/>
<path opacity="0.5" d="M100.073 74.192L116.873 64.492C116.934 64.4459 117.008 64.421 117.085 64.421C117.161 64.421 117.236 64.4459 117.297 64.492C117.393 64.572 118.341 65.072 118.445 65.148C118.509 65.2036 118.558 65.2737 118.588 65.3524C118.619 65.4311 118.63 65.5161 118.621 65.6V80.72C118.619 80.9374 118.565 81.1511 118.464 81.3437C118.363 81.5363 118.218 81.7023 118.041 81.828L115.093 83.532L99.6729 74.632C99.7645 74.4522 99.9026 74.3003 100.073 74.192Z" fill="white"/>
<path d="M100.852 91.5521C100.736 91.4761 99.78 90.9481 99.676 90.8761C99.6109 90.8205 99.5602 90.75 99.5282 90.6706C99.4961 90.5912 99.4837 90.5053 99.492 90.4201V75.3001C99.4977 75.0657 99.5609 74.8363 99.676 74.6321L115.096 83.5321L101.244 91.5321C101.188 91.573 101.121 91.5967 101.051 91.6002C100.981 91.6038 100.912 91.587 100.852 91.5521Z" fill="#2B478B"/>
<path opacity="0.2" d="M100.852 91.5521C100.736 91.4761 99.78 90.9481 99.676 90.8761C99.6109 90.8205 99.5602 90.75 99.5282 90.6706C99.4961 90.5912 99.4837 90.5053 99.492 90.4201V75.3001C99.4977 75.0657 99.5609 74.8363 99.676 74.6321L115.096 83.5321L101.244 91.5321C101.188 91.573 101.121 91.5967 101.051 91.6002C100.981 91.6038 100.912 91.587 100.852 91.5521Z" fill="black"/>
<path d="M101.244 91.528L118.044 81.828C118.221 81.7023 118.366 81.5363 118.467 81.3437C118.568 81.1511 118.622 80.9374 118.624 80.72V65.6C118.624 65.176 118.368 64.98 118.044 65.164L101.244 74.864C101.067 74.9904 100.923 75.1565 100.822 75.349C100.721 75.5414 100.667 75.7548 100.664 75.972V91.092C100.664 91.516 100.924 91.712 101.244 91.528Z" fill="#2B478B"/>
<path opacity="0.2" d="M100.664 91.092V90.8L107.6 79.28L100.74 75.48L100.792 75.356L109.336 78.92C109.516 78.992 109.736 78.86 109.932 78.576L118.464 65.168C118.482 65.1857 118.5 65.2044 118.516 65.224L111.68 76.932L118.624 80.424V80.72C118.62 80.9581 118.561 81.1921 118.452 81.404L111.328 77.536L110.32 79.26C109.92 79.944 109.372 80.26 108.972 80.036L107.964 79.476L100.852 91.552C100.786 91.496 100.735 91.4249 100.702 91.3449C100.669 91.2648 100.656 91.1781 100.664 91.092Z" fill="black"/>
<path d="M173.324 149.137L125.452 176.773C124.695 177.21 123.84 177.448 122.966 177.465C122.093 177.481 121.229 177.276 120.456 176.869L24.076 121.201C22.556 120.325 21.324 118.365 21.324 116.801C21.324 115.237 22.556 113.301 24.072 112.421L71.772 84.9208C72.6242 84.4907 73.5655 84.2667 74.52 84.2667C75.4746 84.2667 76.4158 84.4907 77.268 84.9208L173.324 140.401C174.844 141.277 176.076 143.237 176.076 144.781C176.076 146.325 174.844 148.261 173.324 149.137Z" fill="#2B478B"/>
<path opacity="0.5" d="M71.772 84.92L24.072 112.456C22.556 113.336 21.324 115.296 21.324 116.836C21.324 118.376 22.556 120.34 24.076 121.236L120.476 176.888C121.219 177.269 122.041 177.471 122.876 177.48V111.236L77.276 84.92C76.4228 84.4886 75.4801 84.2639 74.524 84.2639C73.5679 84.2639 72.6252 84.4886 71.772 84.92Z" fill="black"/>
<path opacity="0.4" d="M125.452 176.772L173.324 149.136C174.844 148.26 176.076 146.3 176.076 144.76C176.076 143.22 174.844 141.256 173.324 140.38L122.848 111.236V177.46C123.762 177.469 124.662 177.231 125.452 176.772Z" fill="black"/>
<path d="M124.312 171.848C123.561 172.229 122.73 172.427 121.888 172.427C121.046 172.427 120.215 172.229 119.464 171.848L24.064 116.768C22.012 115.568 22.012 113.648 24.064 112.464L71.768 84.92C72.6202 84.49 73.5614 84.266 74.516 84.266C75.4706 84.266 76.4118 84.49 77.264 84.92L173.32 140.4C174.832 141.272 174.832 142.7 173.32 143.572L124.312 171.848Z" fill="#2B478B"/>
<path opacity="0.3" d="M124.312 171.848C123.561 172.229 122.73 172.427 121.888 172.427C121.046 172.427 120.215 172.229 119.464 171.848L24.064 116.768C22.012 115.568 22.012 113.648 24.064 112.464L71.768 84.92C72.6202 84.49 73.5614 84.266 74.516 84.266C75.4706 84.266 76.4118 84.49 77.264 84.92L173.32 140.4C174.832 141.272 174.832 142.7 173.32 143.572L124.312 171.848Z" fill="black"/>
<path d="M119.68 166.304C118.87 166.714 117.976 166.928 117.068 166.928C116.16 166.928 115.266 166.714 114.456 166.304L32.364 118.908C30.92 118.076 30.92 116.724 32.364 115.892L77.24 90C78.0502 89.5917 78.9448 89.379 79.852 89.379C80.7592 89.379 81.6538 89.5917 82.464 90L164.556 137.38C165.992 138.208 165.992 139.568 164.556 140.396L119.68 166.304Z" fill="#37474F"/>
<path d="M79.692 89.3719C78.8356 89.3776 77.9937 89.5932 77.24 90L32.364 115.892C30.92 116.724 30.92 118.076 32.364 118.908L41.26 124.044L79.692 99.5V89.3719Z" fill="#263238"/>
<path d="M82.496 91.944C81.6858 91.5357 80.7912 91.323 79.884 91.323C78.9768 91.323 78.0822 91.5357 77.272 91.944L32.4 117.852C32.1407 117.994 31.908 118.179 31.712 118.4C31.9034 118.6 32.1231 118.771 32.364 118.908L114.456 166.304C115.266 166.714 116.16 166.928 117.068 166.928C117.976 166.928 118.87 166.714 119.68 166.304L164.556 140.4C164.809 140.258 165.038 140.076 165.232 139.86C165.046 139.655 164.829 139.481 164.588 139.344L82.496 91.944Z" fill="#455A64"/>
<path d="M48.768 103.772L56.72 99.2C57.196 98.928 57.22 98.496 56.772 98.24C56.5117 98.1139 56.2253 98.0511 55.9362 98.0566C55.647 98.0622 55.3632 98.136 55.108 98.272L47.156 102.864C46.68 103.136 46.656 103.568 47.104 103.824C47.3659 103.947 47.6531 104.006 47.9422 103.997C48.2314 103.988 48.5144 103.911 48.768 103.772Z" fill="#37474F"/>
<path d="M62.424 95.9C62.5214 95.867 62.6061 95.8043 62.666 95.7207C62.726 95.6371 62.7582 95.5369 62.7582 95.434C62.7582 95.3312 62.726 95.2309 62.666 95.1473C62.6061 95.0637 62.5214 95.001 62.424 94.968C62.1756 94.8437 61.9017 94.7791 61.624 94.7791C61.3463 94.7791 61.0724 94.8437 60.824 94.968C60.7266 95.001 60.642 95.0637 60.582 95.1473C60.5221 95.2309 60.4898 95.3312 60.4898 95.434C60.4898 95.5369 60.5221 95.6371 60.582 95.7207C60.642 95.8043 60.7266 95.867 60.824 95.9C61.0724 96.0243 61.3463 96.089 61.624 96.089C61.9017 96.089 62.1756 96.0243 62.424 95.9Z" fill="#37474F"/>
<path d="M65.648 94.036C65.7454 94.003 65.8301 93.9403 65.89 93.8567C65.9499 93.7731 65.9822 93.6729 65.9822 93.57C65.9822 93.4671 65.9499 93.3669 65.89 93.2833C65.8301 93.1997 65.7454 93.137 65.648 93.104C65.3996 92.9797 65.1257 92.915 64.848 92.915C64.5703 92.915 64.2964 92.9797 64.048 93.104C63.9506 93.137 63.866 93.1997 63.806 93.2833C63.7461 93.3669 63.7138 93.4671 63.7138 93.57C63.7138 93.6729 63.7461 93.7731 63.806 93.8567C63.866 93.9403 63.9506 94.003 64.048 94.036C64.2964 94.1603 64.5703 94.225 64.848 94.225C65.1257 94.225 65.3996 94.1603 65.648 94.036Z" fill="#37474F"/>
<path d="M39.856 108.928C39.9534 108.895 40.038 108.832 40.098 108.749C40.1579 108.665 40.1902 108.565 40.1902 108.462C40.1902 108.359 40.1579 108.259 40.098 108.175C40.038 108.092 39.9534 108.029 39.856 107.996C39.6076 107.872 39.3337 107.807 39.056 107.807C38.7783 107.807 38.5044 107.872 38.256 107.996C38.1586 108.029 38.0739 108.092 38.014 108.175C37.9541 108.259 37.9218 108.359 37.9218 108.462C37.9218 108.565 37.9541 108.665 38.014 108.749C38.0739 108.832 38.1586 108.895 38.256 108.928C38.5044 109.052 38.7783 109.117 39.056 109.117C39.3337 109.117 39.6076 109.052 39.856 108.928Z" fill="#37474F"/>
<path d="M43.08 107.064C43.1774 107.031 43.262 106.968 43.322 106.885C43.3819 106.801 43.4142 106.701 43.4142 106.598C43.4142 106.495 43.3819 106.395 43.322 106.311C43.262 106.228 43.1774 106.165 43.08 106.132C42.8316 106.008 42.5577 105.943 42.28 105.943C42.0023 105.943 41.7284 106.008 41.48 106.132C41.3826 106.165 41.2979 106.228 41.238 106.311C41.1781 106.395 41.1458 106.495 41.1458 106.598C41.1458 106.701 41.1781 106.801 41.238 106.885C41.2979 106.968 41.3826 107.031 41.48 107.064C41.7284 107.188 42.0023 107.253 42.28 107.253C42.5577 107.253 42.8316 107.188 43.08 107.064Z" fill="#37474F"/>
<path d="M54.308 135.52C54.5533 135.673 54.7591 135.881 54.9085 136.129C55.058 136.376 55.1469 136.656 55.168 136.944C55.1772 137.041 55.1602 137.139 55.1187 137.228C55.0772 137.317 55.0128 137.393 54.932 137.448L54.328 137.796C54.2277 137.84 54.1177 137.856 54.009 137.844C53.9002 137.832 53.7965 137.792 53.708 137.728L42.532 131.272C42.2867 131.119 42.0809 130.91 41.9315 130.663C41.782 130.415 41.6931 130.136 41.672 129.848C41.6631 129.754 41.6783 129.66 41.7161 129.574C41.7539 129.488 41.8131 129.413 41.888 129.356C41.996 129.288 42.404 129.056 42.508 128.996C42.609 128.952 42.7196 128.936 42.829 128.948C42.9383 128.96 43.0427 129 43.132 129.064L54.308 135.52Z" fill="#2B478B"/>
<path opacity="0.4" d="M54.308 135.52C54.5533 135.673 54.7591 135.881 54.9085 136.129C55.058 136.376 55.1469 136.656 55.168 136.944C55.1772 137.041 55.1602 137.139 55.1187 137.228C55.0772 137.317 55.0128 137.393 54.932 137.448L54.328 137.796C54.2277 137.84 54.1177 137.856 54.009 137.844C53.9002 137.832 53.7965 137.792 53.708 137.728L42.532 131.272C42.2867 131.119 42.0809 130.91 41.9315 130.663C41.782 130.415 41.6931 130.136 41.672 129.848C41.6631 129.754 41.6783 129.66 41.7161 129.574C41.7539 129.488 41.8131 129.413 41.888 129.356C41.996 129.288 42.404 129.056 42.508 128.996C42.609 128.952 42.7196 128.936 42.829 128.948C42.9383 128.96 43.0427 129 43.132 129.064L54.308 135.52Z" fill="black"/>
<path d="M53.708 135.864L42.532 129.412C42.056 129.136 41.672 129.332 41.672 129.848C41.6931 130.136 41.782 130.416 41.9315 130.663C42.0809 130.91 42.2867 131.119 42.532 131.272L53.708 137.728C54.184 138 54.568 137.804 54.568 137.292C54.5472 137.003 54.4584 136.723 54.309 136.475C54.1595 136.227 53.9536 136.018 53.708 135.864Z" fill="#2B478B"/>
<path opacity="0.3" d="M53.708 135.864L42.532 129.412C42.056 129.136 41.672 129.332 41.672 129.848C41.6931 130.136 41.782 130.416 41.9315 130.663C42.0809 130.91 42.2867 131.119 42.532 131.272L53.708 137.728C54.184 138 54.568 137.804 54.568 137.292C54.5472 137.003 54.4584 136.723 54.309 136.475C54.1595 136.227 53.9536 136.018 53.708 135.864Z" fill="black"/>
<path d="M39.348 126.88C39.5925 127.035 39.7973 127.244 39.9459 127.492C40.0946 127.74 40.183 128.02 40.204 128.308C40.2147 128.405 40.1984 128.503 40.1567 128.591C40.115 128.68 40.0497 128.755 39.968 128.808C39.864 128.864 39.476 129.1 39.368 129.16C39.2671 129.202 39.1572 129.217 39.0486 129.205C38.9401 129.192 38.8366 129.152 38.748 129.088L33.48 126.044C33.2347 125.891 33.0289 125.682 32.8795 125.435C32.73 125.188 32.6411 124.908 32.62 124.62C32.6111 124.526 32.6263 124.432 32.6641 124.346C32.7019 124.26 32.7611 124.185 32.836 124.128L33.456 123.768C33.5565 123.724 33.6668 123.708 33.7757 123.72C33.8847 123.733 33.9883 123.774 34.076 123.84L39.348 126.88Z" fill="#2B478B"/>
<path opacity="0.4" d="M39.348 126.88C39.5925 127.035 39.7973 127.244 39.9459 127.492C40.0946 127.74 40.183 128.02 40.204 128.308C40.2147 128.405 40.1984 128.503 40.1567 128.591C40.115 128.68 40.0497 128.755 39.968 128.808C39.864 128.864 39.476 129.1 39.368 129.16C39.2671 129.202 39.1572 129.217 39.0486 129.205C38.9401 129.192 38.8366 129.152 38.748 129.088L33.48 126.044C33.2347 125.891 33.0289 125.682 32.8795 125.435C32.73 125.188 32.6411 124.908 32.62 124.62C32.6111 124.526 32.6263 124.432 32.6641 124.346C32.7019 124.26 32.7611 124.185 32.836 124.128L33.456 123.768C33.5565 123.724 33.6668 123.708 33.7757 123.72C33.8847 123.733 33.9883 123.774 34.076 123.84L39.348 126.88Z" fill="black"/>
<path d="M38.748 127.228L33.48 124.184C33.004 123.912 32.62 124.104 32.62 124.62C32.6411 124.908 32.73 125.188 32.8795 125.435C33.0289 125.682 33.2347 125.891 33.48 126.044L38.748 129.088C39.224 129.364 39.608 129.168 39.608 128.652C39.5869 128.364 39.498 128.084 39.3485 127.837C39.1991 127.59 38.9933 127.381 38.748 127.228Z" fill="#2B478B"/>
<path opacity="0.3" d="M38.748 127.228L33.48 124.184C33.004 123.912 32.62 124.104 32.62 124.62C32.6411 124.908 32.73 125.188 32.8795 125.435C33.0289 125.682 33.2347 125.891 33.48 126.044L38.748 129.088C39.224 129.364 39.608 129.168 39.608 128.652C39.5869 128.364 39.498 128.084 39.3485 127.837C39.1991 127.59 38.9933 127.381 38.748 127.228Z" fill="black"/>
<path d="M98.468 145.112V145.436C98.4824 145.716 98.5623 145.989 98.7012 146.233C98.8401 146.477 99.0343 146.685 99.268 146.84L116.672 156.888C116.923 157.016 117.202 157.083 117.484 157.083C117.766 157.083 118.045 157.016 118.296 156.888L147.116 140.248C147.35 140.093 147.545 139.886 147.684 139.642C147.823 139.398 147.902 139.124 147.916 138.844V138.52C147.902 138.24 147.822 137.967 147.683 137.723C147.544 137.479 147.35 137.271 147.116 137.116L129.712 127.068C129.461 126.94 129.182 126.873 128.9 126.873C128.618 126.873 128.34 126.94 128.088 127.068L99.268 143.708C99.0338 143.863 98.8393 144.071 98.7004 144.315C98.5614 144.558 98.4818 144.832 98.468 145.112Z" fill="#2B478B"/>
<path d="M98.468 145.112V145.436C98.4824 145.716 98.5623 145.989 98.7012 146.233C98.8401 146.477 99.0343 146.685 99.268 146.84L116.672 156.888C116.923 157.016 117.202 157.083 117.484 157.083C117.766 157.083 118.045 157.016 118.296 156.888L147.116 140.248C147.35 140.093 147.545 139.886 147.684 139.642C147.823 139.398 147.902 139.124 147.916 138.844V138.52C147.902 138.24 147.822 137.967 147.683 137.723C147.544 137.479 147.35 137.271 147.116 137.116L129.712 127.068C129.461 126.94 129.182 126.873 128.9 126.873C128.618 126.873 128.34 126.94 128.088 127.068L99.268 143.708C99.0338 143.863 98.8393 144.071 98.7004 144.315C98.5614 144.558 98.4818 144.832 98.468 145.112Z" fill="#2B478B"/>
<path opacity="0.3" d="M147.128 137.116L129.724 127.068C129.473 126.94 129.194 126.873 128.912 126.873C128.63 126.873 128.352 126.94 128.1 127.068L117.496 133.2V157.096C117.775 157.1 118.05 157.033 118.296 156.9L147.116 140.26C147.35 140.105 147.545 139.898 147.684 139.654C147.823 139.41 147.902 139.136 147.916 138.856V138.532C147.905 138.251 147.828 137.976 147.691 137.73C147.554 137.484 147.361 137.274 147.128 137.116Z" fill="white"/>
<path opacity="0.15" d="M147.128 137.116L129.724 127.068C129.473 126.94 129.194 126.873 128.912 126.873C128.63 126.873 128.352 126.94 128.1 127.068L117.496 133.2V157.096C117.775 157.1 118.05 157.033 118.296 156.9L147.116 140.26C147.35 140.105 147.545 139.898 147.684 139.654C147.823 139.41 147.902 139.136 147.916 138.856V138.532C147.905 138.251 147.828 137.976 147.691 137.73C147.554 137.484 147.361 137.274 147.128 137.116Z" fill="black"/>
<path opacity="0.3" d="M117.496 133.2L99.28 143.72C99.0458 143.875 98.8513 144.083 98.7124 144.327C98.5734 144.57 98.4938 144.844 98.48 145.124V145.448C98.4944 145.728 98.5743 146.001 98.7132 146.245C98.8521 146.489 99.0462 146.697 99.28 146.852L116.684 156.9C116.929 157.033 117.205 157.1 117.484 157.096L117.496 133.2Z" fill="white"/>
<path opacity="0.2" d="M117.496 133.2L99.28 143.72C99.0458 143.875 98.8513 144.083 98.7124 144.327C98.5734 144.57 98.4938 144.844 98.48 145.124V145.448C98.4944 145.728 98.5743 146.001 98.7132 146.245C98.8521 146.489 99.0462 146.697 99.28 146.852L116.684 156.9C116.929 157.033 117.205 157.1 117.484 157.096L117.496 133.2Z" fill="black"/>
<path d="M113.896 153.084L99.28 144.644C99.1812 144.612 99.095 144.549 99.0339 144.465C98.9727 144.381 98.9398 144.28 98.9398 144.176C98.9398 144.072 98.9727 143.971 99.0339 143.887C99.095 143.803 99.1812 143.74 99.28 143.708L128.1 127.068C128.352 126.94 128.63 126.873 128.912 126.873C129.194 126.873 129.473 126.94 129.724 127.068L147.128 137.116C147.227 137.148 147.313 137.211 147.374 137.295C147.435 137.379 147.468 137.48 147.468 137.584C147.468 137.688 147.435 137.789 147.374 137.873C147.313 137.957 147.227 138.02 147.128 138.052L142.348 140.8L140.672 141.768L118.308 154.68C118.057 154.808 117.778 154.875 117.496 154.875C117.214 154.875 116.936 154.808 116.684 154.68L115.268 153.86L113.896 153.084Z" fill="#2B478B"/>
<path opacity="0.3" d="M113.896 153.084L99.28 144.644C99.1812 144.612 99.095 144.549 99.0339 144.465C98.9727 144.381 98.9398 144.28 98.9398 144.176C98.9398 144.072 98.9727 143.971 99.0339 143.887C99.095 143.803 99.1812 143.74 99.28 143.708L128.1 127.068C128.352 126.94 128.63 126.873 128.912 126.873C129.194 126.873 129.473 126.94 129.724 127.068L147.128 137.116C147.227 137.148 147.313 137.211 147.374 137.295C147.435 137.379 147.468 137.48 147.468 137.584C147.468 137.688 147.435 137.789 147.374 137.873C147.313 137.957 147.227 138.02 147.128 138.052L142.348 140.8L140.672 141.768L118.308 154.68C118.057 154.808 117.778 154.875 117.496 154.875C117.214 154.875 116.936 154.808 116.684 154.68L115.268 153.86L113.896 153.084Z" fill="white"/>
<path opacity="0.15" d="M127.168 139.064L147.128 137.116L127.344 138.236L129.724 127.068C129.452 126.926 129.146 126.861 128.84 126.88L125.108 142L98.952 144.156C98.9498 144.264 98.9798 144.37 99.0382 144.46C99.0967 144.551 99.1809 144.622 99.28 144.664L120.4 143.416L117.492 154.888L121.2 143.372L124.8 143.16C125.245 143.138 125.669 142.963 126 142.664C126.31 142.389 126.523 142.022 126.608 141.616L127.168 139.064Z" fill="black"/>
<path opacity="0.3" d="M105.2 143.62L125.116 141.98L125.828 139.124L126.228 137.524L128.86 126.868C128.601 126.871 128.346 126.936 128.116 127.056L113.716 135.376L99.316 143.696C99.2308 143.735 99.1564 143.795 99.0993 143.87C99.0421 143.944 99.004 144.031 98.988 144.124L102.988 143.796L105.2 143.62Z" fill="white"/>
<path d="M125.6 124.684C127.42 123.632 130.372 123.632 132.192 124.684C134.012 125.736 134.012 127.44 132.192 128.488C130.372 129.536 127.42 129.54 125.6 128.488C123.78 127.436 123.796 125.736 125.6 124.684Z" fill="#F28F8F"/>
<path d="M126.608 127.2C126.559 127.198 126.511 127.182 126.472 127.152C126.457 127.142 126.446 127.128 126.439 127.112C126.433 127.095 126.432 127.077 126.436 127.06L126.708 125.86C126.708 125.832 126.708 125.796 126.74 125.752C126.758 125.704 126.794 125.666 126.84 125.644L127.504 125.244C127.549 125.219 127.6 125.206 127.652 125.208C127.704 125.206 127.755 125.219 127.8 125.244L131.332 127.284C131.349 127.29 131.364 127.302 131.375 127.317C131.386 127.332 131.392 127.35 131.392 127.368C131.391 127.386 131.384 127.403 131.374 127.418C131.363 127.433 131.349 127.445 131.332 127.452L130.616 127.852C130.571 127.877 130.52 127.889 130.468 127.888C130.416 127.89 130.365 127.877 130.32 127.852L127.92 126.476L127.76 127.136C127.76 127.168 127.728 127.196 127.684 127.216C127.635 127.236 127.581 127.244 127.528 127.24L126.608 127.2Z" fill="#FAFAFA"/>
<path d="M81.856 138.532L94.748 131.092L103.548 133.272C103.737 133.318 103.936 133.305 104.118 133.234C104.299 133.164 104.455 133.039 104.563 132.877C104.671 132.714 104.726 132.523 104.721 132.328C104.716 132.133 104.652 131.945 104.536 131.788L101.232 127.34L114.12 119.896C115.072 119.344 115.072 118.444 114.12 117.896L88.34 103C87.8026 102.73 87.2095 102.589 86.608 102.589C86.0065 102.589 85.4134 102.73 84.876 103L52.608 121.648C51.656 122.196 51.656 123.096 52.608 123.648L78.4 138.532C78.9357 138.803 79.5277 138.944 80.128 138.944C80.7284 138.944 81.3203 138.803 81.856 138.532Z" fill="#FAFAFA"/>
<path d="M65.94 118.908C66.6995 118.463 67.5128 118.116 68.36 117.876C69.1132 117.662 69.8868 117.528 70.668 117.476C71.3572 117.43 72.0493 117.472 72.728 117.6C73.3049 117.709 73.8664 117.887 74.4 118.132C74.9333 118.399 75.4827 118.691 76.048 119.008C76.6133 119.325 77.1173 119.641 77.56 119.956C77.9313 120.21 78.2448 120.54 78.48 120.924C78.7 121.283 78.7785 121.711 78.7 122.124C78.5882 122.617 78.3465 123.072 78 123.44C77.4784 124 76.8674 124.469 76.192 124.828C75.4373 125.272 74.6314 125.623 73.792 125.872C73.0438 126.09 72.2738 126.224 71.496 126.272C70.8067 126.316 70.1145 126.273 69.436 126.144C68.8577 126.038 68.2947 125.861 67.76 125.616C67.2267 125.349 66.6787 125.057 66.116 124.74C65.5533 124.423 65.048 124.105 64.6 123.788C64.229 123.536 63.9165 123.207 63.684 122.824C63.4647 122.465 63.3863 122.037 63.464 121.624C63.5753 121.129 63.8107 120.671 64.148 120.292C64.662 119.732 65.2681 119.264 65.94 118.908ZM74.12 121.62C73.96 121.496 73.7901 121.385 73.612 121.288L72.844 120.844L72.072 120.4C71.8893 120.288 71.698 120.19 71.5 120.108C71.0613 119.909 70.5859 119.802 70.104 119.796C69.4953 119.809 68.9024 119.992 68.392 120.324C67.756 120.692 67.448 121.02 67.472 121.312C67.4995 121.477 67.5624 121.634 67.6563 121.772C67.7502 121.91 67.8729 122.026 68.016 122.112C68.1732 122.235 68.3375 122.348 68.508 122.452C68.74 122.6 68.992 122.752 69.26 122.904C69.528 123.056 69.788 123.204 70.06 123.34C70.2519 123.446 70.4495 123.54 70.652 123.624C71.0908 123.823 71.5661 123.93 72.048 123.936C72.6565 123.922 73.2491 123.739 73.76 123.408C74.396 123.04 74.704 122.712 74.676 122.416C74.6479 122.251 74.5835 122.093 74.4873 121.956C74.3912 121.818 74.2657 121.703 74.12 121.62ZM79.812 111.692C79.7911 111.519 79.8174 111.343 79.888 111.184C80.0287 110.972 80.2253 110.803 80.456 110.696L82.428 109.556C82.6513 109.422 82.9011 109.339 83.16 109.312C83.3762 109.287 83.5951 109.327 83.788 109.428C83.8288 109.456 83.8652 109.489 83.896 109.528C83.931 109.574 83.9556 109.627 83.968 109.684L86.236 129.752C86.2539 129.924 86.2263 130.098 86.156 130.256C86.0198 130.471 85.8238 130.642 85.592 130.748L83.62 131.888C83.3968 132.021 83.1468 132.103 82.888 132.128C82.6721 132.157 82.4527 132.117 82.26 132.016C82.2163 131.989 82.1783 131.954 82.148 131.912C82.1146 131.865 82.0902 131.812 82.076 131.756L79.812 111.692ZM90.176 116.46C90.9363 116.015 91.7493 115.667 92.596 115.424C93.3488 115.208 94.1226 115.074 94.904 115.024C95.5932 114.978 96.2853 115.02 96.964 115.148C97.5409 115.257 98.1024 115.435 98.636 115.68C99.1693 115.947 99.7187 116.237 100.284 116.552C100.849 116.867 101.353 117.184 101.796 117.504C102.167 117.757 102.48 118.086 102.716 118.468C102.935 118.827 103.014 119.255 102.936 119.668C102.825 120.164 102.583 120.621 102.236 120.992C101.713 121.55 101.103 122.019 100.428 122.38C99.6743 122.825 98.8681 123.174 98.028 123.42C97.2817 123.64 96.5127 123.774 95.736 123.82C95.0469 123.866 94.3547 123.824 93.676 123.696C93.098 123.587 92.5352 123.408 92 123.164C91.464 122.904 90.916 122.616 90.356 122.292C89.796 121.968 89.292 121.652 88.84 121.34C88.4701 121.085 88.158 120.755 87.924 120.372C87.7033 120.014 87.6248 119.585 87.704 119.172C87.8153 118.677 88.0507 118.219 88.388 117.84C88.9001 117.28 89.505 116.814 90.176 116.46ZM98.356 119.168C98.1957 119.045 98.0258 118.936 97.848 118.84L97.08 118.4L96.308 117.956C96.1243 117.844 95.9332 117.746 95.736 117.66C95.2961 117.464 94.8215 117.358 94.34 117.348C93.7308 117.366 93.1377 117.548 92.624 117.876C91.992 118.244 91.684 118.576 91.708 118.868C91.7355 119.033 91.7984 119.19 91.8923 119.328C91.9862 119.466 92.1089 119.582 92.252 119.668C92.408 119.792 92.5709 119.907 92.74 120.012C92.976 120.16 93.228 120.312 93.496 120.464C93.764 120.616 94.024 120.764 94.296 120.9C94.568 121.036 94.752 121.128 94.888 121.184C95.3278 121.38 95.8025 121.486 96.284 121.496C96.8925 121.478 97.4845 121.294 97.996 120.964C98.632 120.6 98.936 120.268 98.912 119.976C98.8845 119.809 98.8204 119.65 98.7243 119.51C98.6282 119.37 98.5024 119.253 98.356 119.168Z" fill="#2B478B"/>
<path d="M33.5 40.632L38.748 37.6V61.744C38.748 62.652 39.8 63.56 39.8 63.56L34.552 66.592C34.552 66.592 33.5 65.68 33.5 64.772V40.632Z" fill="#37474F"/>
<path d="M27.12 40.58L29.332 43.38V53.872C29.3279 56.8092 28.4961 59.6858 26.932 62.172L34.532 66.572C33.9582 66.1249 33.581 65.4722 33.48 64.752V44.264L27.12 40.58Z" fill="#455A64"/>
<path d="M26.932 62.192V63.404L34.552 67.804V66.592L26.932 62.192Z" fill="#2B478B"/>
<path d="M34.552 67.8039L39.8 64.7719V63.5599L34.552 66.5919V67.8039Z" fill="#2B478B"/>
<path opacity="0.1" d="M34.552 67.8039L39.8 64.7719V63.5599L34.552 66.5919V67.8039Z" fill="black"/>
<path d="M33.26 27.884C32.368 27.348 31.128 27.416 29.756 28.208L29.704 28.236C26.992 29.808 24.8 33.6 24.8 36.748V36.8C24.8 38.4 25.392 39.544 26.336 40.032L30.308 42.368L36.932 30.052L33.26 27.884Z" fill="#2B478B"/>
<path opacity="0.8" d="M33.26 27.884C32.368 27.348 31.128 27.416 29.756 28.208L29.704 28.236C26.992 29.808 24.8 33.6 24.8 36.748V36.8C24.8 38.4 25.392 39.544 26.336 40.032L30.308 42.368L36.932 30.052L33.26 27.884Z" fill="#FAFAFA"/>
<path opacity="0.2" d="M26.328 40.04L30.3 42.376L32.5 38.292L25.248 34.104C24.963 34.9569 24.8119 35.8488 24.8 36.748V36.8C24.8 38.428 25.384 39.552 26.328 40.04Z" fill="#2B478B"/>
<path d="M41.836 30.9039C40.828 30.3279 39.468 30.3479 37.964 31.0839C37.804 31.1599 37.644 31.2439 37.484 31.3399C37.324 31.4359 37.104 31.5679 36.92 31.6959C36.6063 31.9126 36.3058 32.1477 36.02 32.3999C35.4715 32.872 34.9656 33.3914 34.508 33.9519C33.2334 35.5065 32.2888 37.3044 31.732 39.2359C31.4721 40.1468 31.3375 41.0888 31.332 42.0359C31.332 43.9519 31.988 45.3119 33.056 45.9759L29.26 43.7879C28.5558 43.334 27.98 42.7068 27.5878 41.9665C27.1956 41.2262 27 40.3975 27.02 39.5599C27.0279 38.6593 27.1543 37.7636 27.396 36.8959C27.9411 34.9174 28.895 33.0751 30.196 31.4879C30.6525 30.9264 31.1585 30.407 31.708 29.9359C31.9954 29.6724 32.2986 29.4266 32.616 29.1999C32.804 29.0719 32.992 28.9519 33.18 28.8439C33.368 28.7359 33.504 28.6679 33.668 28.5919C34.3417 28.2742 35.0795 28.1154 35.8243 28.1279C36.5692 28.1404 37.3012 28.3238 37.964 28.6639L38.072 28.7239L38.208 28.8039L41.836 30.9039Z" fill="#2B478B"/>
<path opacity="0.1" d="M29.252 43.764C28.5478 43.31 27.972 42.6828 27.5798 41.9425C27.1876 41.2022 26.9921 40.3735 27.012 39.5359C27.0199 38.6353 27.1463 37.7396 27.388 36.8719L31.724 39.2319C31.4641 40.1428 31.3295 41.0848 31.324 42.0319C31.324 43.948 31.98 45.308 33.048 45.972L29.252 43.764Z" fill="black"/>
<path d="M43.644 34.896C43.644 38.828 40.888 43.604 37.484 45.568C35.776 46.56 34.224 46.644 33.108 45.968L33.048 45.932C31.98 45.268 31.324 43.908 31.324 41.992C31.324 38.064 34.08 33.284 37.484 31.32C39.18 30.34 40.72 30.244 41.836 30.884C42.952 31.524 43.644 32.928 43.644 34.896Z" fill="#2B478B"/>
<path opacity="0.2" d="M43.644 34.896C43.644 38.828 40.888 43.604 37.484 45.568C35.776 46.56 34.224 46.644 33.108 45.968L33.048 45.932C31.98 45.268 31.324 43.908 31.324 41.992C31.324 38.064 34.08 33.284 37.484 31.32C39.18 30.34 40.72 30.244 41.836 30.884C42.952 31.524 43.644 32.928 43.644 34.896Z" fill="black"/>
<path d="M62.536 33.8799C62.536 33.8799 56.32 37.0799 51.012 46.2799C50.0568 47.9302 49.2148 49.6435 48.492 51.4079C45.828 57.9479 46.048 62.4559 46.048 62.4559C44.196 57.9159 41.892 53.2199 38.048 49.6239C36.5446 48.2237 34.9677 46.9045 33.324 45.6719C32.308 45.0799 31.724 43.7999 31.724 42.0319C31.737 40.7912 31.9658 39.5623 32.4 38.3999C32.6847 37.6182 33.0381 36.8633 33.456 36.1439C34.4606 34.3213 35.9146 32.786 37.68 31.6839C39.212 30.7999 40.62 30.6719 41.636 31.2559C43.5252 32.0632 45.4559 32.7695 47.42 33.3719C52.46 34.8999 57.68 34.5439 62.536 33.8799Z" fill="#2B478B"/>
<path opacity="0.8" d="M62.536 33.8799C62.536 33.8799 56.32 37.0799 51.012 46.2799C50.0568 47.9302 49.2148 49.6435 48.492 51.4079C45.828 57.9479 46.048 62.4559 46.048 62.4559C44.196 57.9159 41.892 53.2199 38.048 49.6239C36.5446 48.2237 34.9677 46.9045 33.324 45.6719C32.308 45.0799 31.724 43.7999 31.724 42.0319C31.737 40.7912 31.9658 39.5623 32.4 38.3999C32.6847 37.6182 33.0381 36.8633 33.456 36.1439C34.4606 34.3213 35.9146 32.786 37.68 31.6839C39.212 30.7999 40.62 30.6719 41.636 31.2559C43.5252 32.0632 45.4559 32.7695 47.42 33.3719C52.46 34.8999 57.68 34.5439 62.536 33.8799Z" fill="#FAFAFA"/>
<path opacity="0.2" d="M48.492 51.392C45.828 57.932 46.048 62.44 46.048 62.44C44.196 57.9 41.892 53.204 38.048 49.608C36.5446 48.2078 34.9677 46.8886 33.324 45.656C32.308 45.064 31.724 43.784 31.724 42.016C31.7389 40.7807 31.9676 39.5573 32.4 38.4C37.124 40.752 44.744 45.1 48.492 51.392Z" fill="#2B478B"/>
<path d="M74.248 42.748C74.248 46.848 72.984 51.332 70.884 55.476C68.192 60.8 64.132 65.52 59.6 68.144C51.5 72.82 44.936 69.028 44.936 59.68C44.9584 57.4369 45.2854 55.2072 45.908 53.052C47.5389 47.3635 50.5907 42.1836 54.776 38C55.3493 37.4373 55.9373 36.904 56.54 36.4C56.792 36.192 57.048 36 57.304 35.796C57.668 35.52 58.032 35.256 58.404 34.996C58.776 34.736 59.2 34.512 59.6 34.284C67.68 29.6 74.248 33.4 74.248 42.748Z" fill="#2B478B"/>
<path opacity="0.1" d="M70.884 55.476C68.192 60.8 64.132 65.52 59.6 68.144C51.5 72.82 44.936 69.028 44.936 59.68C44.9584 57.4369 45.2854 55.2071 45.908 53.052C46.456 54.252 48.424 55.988 49.308 54.776C48.7641 56.6895 48.4776 58.6669 48.456 60.656C48.456 63.344 49.056 65.512 50.188 66.928C50.6556 67.5208 51.2565 67.9949 51.9418 68.3119C52.6271 68.6288 53.3774 68.7796 54.132 68.752C55.732 68.752 57.604 68.164 59.528 67.052C63.396 64.82 66.952 60.808 69.476 56.252C69.46 56.264 69.964 56.688 70.884 55.476Z" fill="black"/>
<path d="M73.244 43.272C73.244 47.4 71.796 52.072 69.46 56.264C66.936 60.808 63.38 64.82 59.512 67.064C57.588 68.176 55.724 68.764 54.116 68.764C53.3615 68.7916 52.6111 68.6408 51.9258 68.3239C51.2405 68.007 50.6396 67.5328 50.172 66.94C49.04 65.524 48.44 63.34 48.44 60.668C48.4617 58.6789 48.7482 56.7015 49.292 54.788C49.496 54.028 49.74 53.268 50.016 52.508C50.5062 51.1639 51.0834 49.8531 51.744 48.584L52.144 47.784C52.38 47.352 52.624 46.924 52.88 46.504C53.7403 45.0772 54.7071 43.7174 55.772 42.436L55.808 42.396C56.4939 41.5727 57.2243 40.7875 57.996 40.044C58.5453 39.5107 59.1027 39.0227 59.668 38.58C59.908 38.388 60.148 38.204 60.388 38.028C60.68 37.816 60.976 37.628 61.272 37.416C61.568 37.204 61.856 37.048 62.148 36.876C64.076 35.76 65.944 35.176 67.548 35.176C71.124 35.2 73.244 38.208 73.244 43.272Z" fill="#2B478B"/>
<path opacity="0.3" d="M73.244 43.272C73.244 47.4 71.796 52.072 69.46 56.264C66.936 60.808 63.38 64.82 59.512 67.064C57.588 68.176 55.724 68.764 54.116 68.764C53.3615 68.7916 52.6111 68.6408 51.9258 68.3239C51.2405 68.007 50.6396 67.5328 50.172 66.94C49.04 65.524 48.44 63.34 48.44 60.668C48.4617 58.6789 48.7482 56.7015 49.292 54.788C49.496 54.028 49.74 53.268 50.016 52.508C50.5062 51.1639 51.0834 49.8531 51.744 48.584L52.144 47.784C52.38 47.352 52.624 46.924 52.88 46.504C53.7403 45.0772 54.7071 43.7174 55.772 42.436L55.808 42.396C56.4939 41.5727 57.2243 40.7875 57.996 40.044C58.5453 39.5107 59.1027 39.0227 59.668 38.58C59.908 38.388 60.148 38.204 60.388 38.028C60.68 37.816 60.976 37.628 61.272 37.416C61.568 37.204 61.856 37.048 62.148 36.876C64.076 35.76 65.944 35.176 67.548 35.176C71.124 35.2 73.244 38.208 73.244 43.272Z" fill="black"/>
<path d="M60.8 45.568L55.656 55.168C54.208 54.624 51.764 53.756 49.772 53.248C49.852 52.992 49.94 52.744 50.036 52.488C50.5253 51.1435 51.1025 49.8327 51.764 48.564C51.9 48.3 52.04 48.04 52.164 47.764C52.4 47.332 52.644 46.904 52.9 46.488C53.7594 45.0606 54.7262 43.7007 55.792 42.42C55.8061 42.4072 55.8183 42.3924 55.828 42.376C55.984 42.192 56.14 42.008 56.296 41.832C57.6851 43.2068 59.1922 44.4569 60.8 45.568Z" fill="#2B478B"/>
<g opacity="0.6">
<path opacity="0.6" d="M60.8 45.568L55.656 55.168C54.208 54.624 51.764 53.756 49.772 53.248C49.852 52.992 49.94 52.744 50.036 52.488C50.5253 51.1435 51.1025 49.8327 51.764 48.564C51.9 48.3 52.04 48.04 52.164 47.764C52.4 47.332 52.644 46.904 52.9 46.488C53.7594 45.0606 54.7262 43.7007 55.792 42.42C55.8061 42.4072 55.8183 42.3924 55.828 42.376C55.984 42.192 56.14 42.008 56.296 41.832C57.6851 43.2068 59.1922 44.4569 60.8 45.568Z" fill="#FAFAFA"/>
</g>
<path d="M56.068 55.148C54.904 55.148 54.212 54.208 54.212 52.636V52.588C54.212 50.116 55.952 47.096 58.096 45.86L58.136 45.836C58.6252 45.5317 59.1844 45.3582 59.76 45.332C60.92 45.332 61.616 46.272 61.616 47.848V47.896C61.616 50.368 59.872 53.384 57.732 54.62L57.692 54.644C57.2036 54.9502 56.6439 55.1239 56.068 55.148Z" fill="#2B478B"/>
<g opacity="0.8">
<path opacity="0.8" d="M56.068 55.148C54.904 55.148 54.212 54.208 54.212 52.636V52.588C54.212 50.116 55.952 47.096 58.096 45.86L58.136 45.836C58.6252 45.5317 59.1844 45.3582 59.76 45.332C60.92 45.332 61.616 46.272 61.616 47.848V47.896C61.616 50.368 59.872 53.384 57.732 54.62L57.692 54.644C57.2036 54.9502 56.6439 55.1239 56.068 55.148Z" fill="#FAFAFA"/>
</g>
<path d="M61.6 28.096C61.2934 28.096 60.9994 27.9742 60.7826 27.7574C60.5658 27.5406 60.444 27.2466 60.444 26.94V15.74C60.444 15.4334 60.5658 15.1394 60.7826 14.9226C60.9994 14.7058 61.2934 14.584 61.6 14.584C61.9066 14.584 62.2006 14.7058 62.4174 14.9226C62.6342 15.1394 62.756 15.4334 62.756 15.74V26.94C62.756 27.2466 62.6342 27.5406 62.4174 27.7574C62.2006 27.9742 61.9066 28.096 61.6 28.096Z" fill="#E0E0E0"/>
<path d="M51.436 30.824C51.2334 30.8244 51.0342 30.7714 50.8587 30.6703C50.6831 30.5691 50.5373 30.4235 50.436 30.248L44.836 20.56C44.6822 20.2948 44.64 19.9793 44.7188 19.683C44.7975 19.3867 44.9908 19.1338 45.256 18.98C45.5212 18.8262 45.8367 18.784 46.133 18.8628C46.4293 18.9415 46.6822 19.1348 46.836 19.4L52.436 29.088C52.5381 29.264 52.5919 29.4638 52.592 29.6673C52.5921 29.8707 52.5386 30.0706 52.4367 30.2468C52.3349 30.4229 52.1883 30.569 52.0119 30.6704C51.8355 30.7717 51.6354 30.8247 51.432 30.824H51.436Z" fill="#E0E0E0"/>
<path d="M40.848 84.736C40.6454 84.7348 40.4466 84.6805 40.2714 84.5786C40.0963 84.4766 39.9509 84.3306 39.8497 84.155C39.7486 83.9794 39.6952 83.7804 39.6949 83.5777C39.6946 83.3751 39.7474 83.1759 39.848 83L45.448 73.312C45.5204 73.174 45.6199 73.0521 45.7406 72.9535C45.8612 72.855 46.0006 72.7818 46.1502 72.7385C46.2999 72.6951 46.4568 72.6825 46.6114 72.7013C46.7661 72.7202 46.9154 72.7701 47.0502 72.848C47.1851 72.926 47.3029 73.0304 47.3964 73.155C47.4899 73.2797 47.5573 73.4219 47.5944 73.5732C47.6316 73.7245 47.6377 73.8818 47.6126 74.0355C47.5874 74.1893 47.5315 74.3364 47.448 74.468L41.848 84.156C41.7466 84.3316 41.6009 84.4776 41.4254 84.5794C41.2499 84.6812 41.0509 84.7352 40.848 84.736Z" fill="#E0E0E0"/>
<path d="M61.6 86.232C61.2934 86.232 60.9994 86.1102 60.7826 85.8934C60.5658 85.6766 60.444 85.3826 60.444 85.076V73.876C60.444 73.5694 60.5658 73.2753 60.7826 73.0586C60.9994 72.8418 61.2934 72.72 61.6 72.72C61.9066 72.72 62.2006 72.8418 62.4174 73.0586C62.6342 73.2753 62.756 73.5694 62.756 73.876V85.076C62.756 85.3826 62.6342 85.6766 62.4174 85.8934C62.2006 86.1102 61.9066 86.232 61.6 86.232Z" fill="#E0E0E0"/>
<path d="M77.392 75.776C77.1908 75.7746 76.9935 75.7208 76.8195 75.6197C76.6455 75.5187 76.5009 75.374 76.4 75.2L70.8 65.512C70.6614 65.2478 70.6304 64.9402 70.7134 64.6536C70.7964 64.367 70.9869 64.1236 71.2453 63.9743C71.5036 63.8249 71.8096 63.7813 72.0994 63.8524C72.3892 63.9236 72.6402 64.104 72.8 64.356L78.4 74.044C78.5006 74.2199 78.5534 74.4191 78.5531 74.6217C78.5528 74.8244 78.4994 75.0234 78.3983 75.199C78.2971 75.3746 78.1517 75.5207 77.9766 75.6226C77.8014 75.7245 77.6026 75.7788 77.4 75.78L77.392 75.776Z" fill="#E0E0E0"/>
<path d="M88.932 64.228C88.73 64.2283 88.5315 64.1759 88.356 64.076L78.668 58.476C78.5367 58.3998 78.4217 58.2985 78.3295 58.1779C78.2373 58.0573 78.1698 57.9197 78.1308 57.773C78.0918 57.6262 78.0821 57.4733 78.1022 57.3228C78.1223 57.1723 78.1718 57.0273 78.248 56.896C78.3242 56.7647 78.4255 56.6496 78.5461 56.5574C78.6667 56.4653 78.8043 56.3977 78.951 56.3587C79.0977 56.3197 79.2507 56.31 79.4012 56.3301C79.5516 56.3503 79.6967 56.3998 79.828 56.476L89.512 62.076C89.732 62.2035 89.9037 62.4001 90.0007 62.6352C90.0977 62.8702 90.1144 63.1307 90.0484 63.3763C89.9823 63.6218 89.8371 63.8388 89.6353 63.9935C89.4335 64.1482 89.1863 64.232 88.932 64.232V64.228Z" fill="#E0E0E0"/>
<path d="M93.16 48.4559H81.96C81.6534 48.4559 81.3594 48.3341 81.1426 48.1173C80.9258 47.9006 80.804 47.6065 80.804 47.2999C80.804 46.9933 80.9258 46.6993 81.1426 46.4825C81.3594 46.2657 81.6534 46.1439 81.96 46.1439H93.16C93.4666 46.1439 93.7606 46.2657 93.9774 46.4825C94.1942 46.6993 94.316 46.9933 94.316 47.2999C94.316 47.6065 94.1942 47.9006 93.9774 48.1173C93.7606 48.3341 93.4666 48.4559 93.16 48.4559Z" fill="#E0E0E0"/>
<path d="M79.248 38.2761C78.9924 38.2776 78.7435 38.1944 78.5402 38.0395C78.337 37.8846 78.1908 37.6667 78.1245 37.4199C78.0582 37.173 78.0756 36.9112 78.1739 36.6753C78.2723 36.4394 78.446 36.2427 78.668 36.1161L88.356 30.5161C88.4875 30.4326 88.6346 30.3766 88.7884 30.3515C88.9421 30.3263 89.0994 30.3325 89.2507 30.3697C89.402 30.4068 89.5443 30.4742 89.6689 30.5677C89.7935 30.6612 89.8979 30.7789 89.9759 30.9138C90.0539 31.0487 90.1038 31.198 90.1226 31.3526C90.1414 31.5073 90.1288 31.6642 90.0854 31.8138C90.0421 31.9635 89.969 32.1028 89.8704 32.2235C89.7719 32.3442 89.6499 32.4437 89.512 32.5161L79.828 38.1161C79.6525 38.2204 79.4521 38.2756 79.248 38.2761Z" fill="#E0E0E0"/>
<path d="M71.796 30.824C71.5932 30.8233 71.3942 30.7693 71.2189 30.6674C71.0436 30.5654 70.8982 30.4192 70.7973 30.2433C70.6963 30.0674 70.6435 29.8681 70.644 29.6653C70.6444 29.4625 70.6982 29.2634 70.8 29.088L76.4 19.4C76.5538 19.1348 76.8067 18.9415 77.103 18.8628C77.3993 18.784 77.7148 18.8262 77.98 18.98C78.2452 19.1338 78.4385 19.3867 78.5172 19.683C78.596 19.9793 78.5538 20.2948 78.4 20.56L72.8 30.248C72.6983 30.4241 72.5519 30.5701 72.3756 30.6713C72.1992 30.7724 71.9993 30.8251 71.796 30.824Z" fill="#E0E0E0"/>
</svg>
