<svg width="86" height="90" viewBox="0 0 86 90" fill="none" xmlns="http://www.w3.org/2000/svg">
<path d="M63.6923 64.9371C64.2444 60.2563 64.0797 59.57 67.5076 60.3283L68.3777 60.4062C71.0137 60.5282 74.4475 59.9756 76.4881 59.0174C80.8497 56.9599 83.4351 53.5239 79.1357 54.4262C69.3271 56.4837 68.6522 53.1065 68.6522 53.1065C79.0099 37.4783 83.3397 17.6381 79.6025 12.7794C69.4081 -0.466476 51.7637 5.79862 51.4675 5.96028L51.3735 5.97792C49.4341 5.56936 47.2663 5.3254 44.8297 5.28425C40.393 5.21076 37.0228 6.46731 34.4677 8.43811C34.4677 8.43811 2.9914 -4.75049 4.45394 25.0245C4.7661 31.344 13.3823 72.9526 23.6576 60.3886C27.4151 55.7945 31.0426 51.9087 31.0426 51.9087C32.8447 53.1286 35.0024 53.7458 37.2656 53.5254L37.439 53.374C37.3841 53.9442 37.4101 54.5027 37.5084 55.1625C34.8608 58.1709 35.6397 58.6985 30.346 59.8066C24.9916 60.9294 28.1377 62.9267 30.1914 63.4484C32.6814 64.0803 38.4434 64.9768 42.3339 59.4363L42.1792 60.0682C43.2198 60.9133 43.1475 66.1408 43.2949 69.8752C43.4423 73.6095 43.688 77.0955 44.4511 79.1516C45.2141 81.2076 46.0841 86.4998 53.0398 84.9831C58.8538 83.7163 63.2978 81.8924 63.7053 64.9313" fill="#231F20"/>
<path d="M63.6923 64.9371C64.2444 60.2563 64.0796 59.57 67.5076 60.3283L68.3777 60.4062C71.0137 60.5282 74.4475 59.9756 76.4881 59.0174C80.8497 56.9599 83.4351 53.5239 79.1357 54.4262C69.3271 56.4837 68.6522 53.1065 68.6522 53.1065C79.0099 37.4783 83.3397 17.6381 79.6025 12.7794C69.4081 -0.466476 51.7637 5.79862 51.4675 5.96028L51.3735 5.97792C49.4341 5.56936 47.2663 5.3254 44.8297 5.28425C40.393 5.21076 37.0228 6.46731 34.4677 8.43811C34.4677 8.43811 2.9914 -4.75049 4.45394 25.0245C4.7661 31.344 13.3823 72.9526 23.6576 60.3886C27.4151 55.7945 31.0426 51.9087 31.0426 51.9087C32.8447 53.1285 35.0024 53.7458 37.2656 53.5254L37.439 53.374C37.3841 53.9442 37.4101 54.5027 37.5084 55.1625C34.8608 58.1709 35.6397 58.6985 30.346 59.8066C24.9916 60.9294 28.1377 62.9267 30.1914 63.4484C32.6814 64.0803 38.4434 64.9768 42.3339 59.4363L42.1792 60.0682C43.2198 60.9133 43.1475 66.1408 43.2949 69.8752C43.4423 73.6095 43.688 77.0955 44.4511 79.1516C45.2141 81.2076 46.0841 86.4998 53.0398 84.9831C58.8538 83.7163 63.2978 81.8924 63.7053 64.9313" stroke="#231F20" stroke-width="5.046"/>
<path d="M79.1371 54.4264C69.3271 56.4839 68.6522 53.1067 68.6522 53.1067C79.0099 37.477 83.3397 17.6368 79.6039 12.7796C69.4095 -0.464813 51.7637 5.79881 51.4689 5.96048L51.3735 5.97811C49.4341 5.56955 47.2663 5.32559 44.8268 5.28444C40.3901 5.21096 37.0228 6.4675 34.4648 8.4383C34.4648 8.4383 2.98561 -4.74883 4.44815 25.0247C4.75886 31.3442 13.3751 72.9528 23.6518 60.3903C27.4093 55.7961 31.0223 51.9104 31.0223 51.9104C32.8245 53.1302 34.9821 53.7475 37.2453 53.527L37.4216 53.3756C37.3667 53.9459 37.3927 54.5043 37.4939 55.1642C34.8463 58.1726 35.6238 58.7002 30.3315 59.8083C24.9756 60.9311 28.1204 62.9283 30.1754 63.4501C32.6655 64.082 38.4275 64.9785 42.3179 59.4379L42.1633 60.0699C43.201 60.9149 43.9293 65.5663 43.8065 69.7813C43.6836 73.9962 43.6042 76.8914 44.4207 79.1532C45.2372 81.415 46.0538 86.5014 53.0109 84.9848C58.8249 83.7179 61.8367 80.4347 62.2558 74.9588C62.5535 71.0643 63.2241 71.6404 63.2674 68.1603L63.8079 66.5143C64.4294 61.2382 63.9062 59.5335 67.4888 60.3271L68.3588 60.4049C70.9949 60.5269 74.4431 59.9743 76.4707 59.0161C80.8308 56.9586 83.4177 53.5226 79.1183 54.425L79.1371 54.4264Z" fill="#417BA2"/>
<path d="M51.4343 5.83102C50.3431 6.17932 68.9572 -1.08807 79.5346 12.6561C83.2704 17.5118 78.9565 37.352 68.5829 52.9831M42.7573 57.4523C42.4871 67.2725 42.8253 77.1456 43.769 79.5646C44.7127 81.9836 46.7374 86.6424 53.6974 85.1272C59.51 83.8604 61.6258 81.409 62.542 75.9948C63.2184 72.0268 64.5219 60.9515 64.6881 58.6853L42.7573 57.4523ZM34.433 8.22066C34.433 8.22066 2.93218 -4.85918 4.3976 24.9011C4.70976 31.2206 13.326 72.8307 23.6187 60.2667C27.3762 55.6726 30.7724 52.069 30.7724 52.069L34.433 8.22066Z" stroke="white" stroke-width="1.682" stroke-linecap="round" stroke-linejoin="round"/>
<path d="M68.5829 52.9816C68.5829 52.9816 69.2578 56.3618 79.0677 54.3013C83.3657 53.399 80.7789 56.835 76.4202 58.894C72.8419 60.5841 64.821 61.0147 64.6895 58.6823C64.3514 52.6627 68.9095 54.4909 68.5829 52.9831C68.2852 51.6251 66.246 50.2907 64.8976 46.9663C63.7198 44.0638 48.7505 21.806 69.0497 25.1127C69.794 24.9569 63.7559 5.47824 44.7589 5.16226C25.7618 4.84629 26.405 28.9147 26.405 28.9147" stroke="white" stroke-width="1.682" stroke-linecap="round" stroke-linejoin="bevel"/>
<path d="M37.4435 55.0421C34.796 58.0505 35.5749 58.5781 30.2812 59.6862C24.9267 60.809 28.0729 62.8062 30.1251 63.3279C32.6152 63.9599 38.3771 64.8593 42.2676 59.3158C43.4527 57.6287 42.2604 54.9363 40.6345 54.2485C39.8483 53.9178 38.7962 53.5019 37.4435 55.0421Z" stroke="white" stroke-width="1.682" stroke-linejoin="round"/>
<path d="M37.2686 54.989C37.0027 53.221 37.8409 51.1165 38.7384 48.6549C40.0882 44.9616 43.204 41.2655 40.7111 29.5495C38.854 20.8168 26.3979 27.7315 26.3892 28.9175C26.3806 30.1035 26.9673 34.9196 26.1811 40.5277C25.1738 47.8465 30.7624 54.0396 37.1964 53.4062" stroke="white" stroke-width="1.682" stroke-linecap="round" stroke-linejoin="round"/>
<path d="M34.3058 28.7369C34.248 29.1411 35.0342 30.2213 36.0545 30.3653C37.0748 30.5093 37.9477 29.6672 38.0055 29.2631C38.0633 28.8589 37.2771 28.4136 36.2568 28.2681C35.2365 28.1226 34.3607 28.3343 34.3058 28.7384V28.7369Z" fill="white" stroke="white" stroke-width="0.561"/>
<path d="M65.3964 27.9125C65.4513 28.3166 64.668 29.3821 63.6477 29.5408C62.6274 29.6996 61.7545 28.8428 61.6967 28.4386C61.6389 28.0345 62.4265 27.5892 63.4483 27.4437C64.47 27.2982 65.3415 27.5098 65.3993 27.9139L65.3964 27.9125Z" fill="white" stroke="white" stroke-width="0.28"/>
<path d="M69.0499 25.1128C69.2175 28.2843 68.3778 30.4476 68.2723 33.8234C68.1134 38.732 70.5731 44.349 66.8705 49.9748" stroke="white" stroke-width="1.682" stroke-linecap="round" stroke-linejoin="round"/>
</svg>
