<svg width="94" height="90" viewBox="0 0 94 90" fill="none" xmlns="http://www.w3.org/2000/svg">
<path d="M24.8132 11.9758C24.8132 5.81401 26.5314 2.46197 36.0177 0.865783C42.4581 -0.219752 50.7158 -0.355444 58.4186 0.865783C64.5024 1.83146 69.623 6.18942 69.623 11.9758V32.3047C69.623 38.267 64.6515 43.151 58.4186 43.151H36.0177C28.4151 43.151 22.0076 49.3847 22.0076 56.4321V66.1856H14.3054C7.7902 66.1856 3.99691 61.6679 2.40339 55.3465C0.253937 46.854 0.345183 41.7941 2.40339 33.6607C4.18786 26.5654 9.88981 22.8216 16.4054 22.8216H47.2221V20.1078H24.8128V11.9753L24.8132 11.9758Z" fill="url(#paint0_linear)"/>
<path d="M69.6235 77.0326C69.6235 83.1943 64.0626 86.3152 58.419 87.8716C49.9284 90.2182 43.1141 89.8591 36.0181 87.8716C30.0918 86.2117 24.8137 82.8194 24.8137 77.0326V56.7037C24.8137 50.8531 29.8849 45.8574 36.0181 45.8574H58.419C65.8805 45.8574 72.4291 39.6562 72.4291 32.3049V22.8228H80.8284C87.352 22.8228 90.4233 27.4838 92.0328 33.6618C94.2735 42.2421 94.3733 48.6589 92.0328 55.3476C89.7672 61.8446 87.3435 66.1867 80.8284 66.1867H47.2226V68.9005H69.6235V77.033V77.0326Z" fill="url(#paint1_linear)"/>
<path d="M30.4154 10.6269C30.4154 8.37623 32.2911 6.55615 34.6155 6.55615C36.931 6.55615 38.8157 8.37578 38.8157 10.6269C38.8157 12.8703 36.9315 14.6895 34.6155 14.6895C32.292 14.6895 30.4154 12.8699 30.4154 10.6269ZM55.6209 78.3815C55.6209 76.138 57.5051 74.3189 59.821 74.3189C62.1445 74.3189 64.0212 76.1385 64.0212 78.3815C64.0212 80.6322 62.1455 82.4522 59.821 82.4522C57.5056 82.4522 55.6209 80.6326 55.6209 78.3815Z" fill="white"/>
<defs>
<linearGradient id="paint0_linear" x1="69.6235" y1="25.7295" x2="0.826222" y2="25.1607" gradientUnits="userSpaceOnUse">
<stop stop-color="#366A96"/>
<stop offset="1" stop-color="#3679B0"/>
</linearGradient>
<linearGradient id="paint1_linear" x1="93.7505" y1="56.1613" x2="-42.4356" y2="56.1613" gradientUnits="userSpaceOnUse">
<stop stop-color="#FFC836"/>
<stop offset="1" stop-color="#FFE873"/>
</linearGradient>
</defs>
</svg>
