<svg width="102" height="90" viewBox="0 0 102 90" fill="none" xmlns="http://www.w3.org/2000/svg">
<path d="M50.9999 54.1584C56.1462 54.1584 60.3181 50.0359 60.3181 44.9505C60.3181 39.8651 56.1462 35.7426 50.9999 35.7426C45.8535 35.7426 41.6816 39.8651 41.6816 44.9505C41.6816 50.0359 45.8535 54.1584 50.9999 54.1584Z" fill="#61DAFB"/>
<path d="M51 78.8119C58.3143 85.8416 65.5285 90 71.3399 90C73.2436 90 75.0471 89.604 76.5501 88.7129C81.7603 85.7426 83.664 78.3168 81.8605 67.7228C81.5599 65.8416 81.1591 63.9604 80.6581 61.9802C82.6621 61.3861 84.4656 60.7921 86.2691 60.198C96.389 56.3366 102 50.9901 102 45.1485C102 39.2079 96.389 33.8614 86.2691 30.099C84.4656 29.4059 82.6621 28.8119 80.6581 28.3168C81.1591 26.3366 81.5599 24.4554 81.8605 22.5743C83.5639 11.7822 81.6601 4.25743 76.4499 1.28713C74.947 0.39604 73.1434 0 71.2397 0C65.5285 0 58.2141 4.15842 50.8998 11.1881C43.6857 4.15842 36.4715 0 30.6601 0C28.7564 0 26.9528 0.39604 25.4499 1.28713C20.2397 4.25743 18.336 11.6832 20.1395 22.2772C20.4401 24.1584 20.8409 26.0396 21.3418 28.0198C19.3379 28.6139 17.5344 29.2079 15.7308 29.802C5.611 33.6634 0 39.0099 0 44.8515C0 50.7921 5.611 56.1386 15.7308 59.901C17.5344 60.5941 19.3379 61.1881 21.3418 61.6832C20.8409 63.6634 20.4401 65.5446 20.1395 67.4257C18.4361 78.0198 20.3399 85.5446 25.4499 88.4159C26.9528 89.3069 28.7564 89.703 30.6601 89.703C36.4715 89.901 43.6857 85.7426 51 78.8119ZM45.389 65.4455C47.1925 65.5446 49.0963 65.5446 51 65.5446C52.9037 65.5446 54.8075 65.5446 56.611 65.4455C54.8075 67.8218 52.9037 70 51 72.0792C49.0963 70 47.1925 67.8218 45.389 65.4455ZM32.9646 55.2475C33.9666 56.9307 34.8684 58.5149 35.9705 60.099C32.8644 59.703 29.9587 59.2079 27.1532 58.6139C28.055 55.9406 29.057 53.1683 30.2593 50.396C31.0609 51.9802 31.9627 53.6634 32.9646 55.2475ZM27.1532 31.3861C29.9587 30.7921 32.8644 30.297 35.9705 29.901C34.9686 31.4851 33.9666 33.0693 32.9646 34.7525C31.9627 36.4356 31.0609 38.0198 30.2593 39.703C28.9568 36.8317 27.9548 34.0594 27.1532 31.3861ZM32.664 44.9505C33.9666 42.2772 35.3694 39.604 36.9725 36.9307C38.4754 34.3564 40.1788 31.7822 41.8821 29.2079C44.888 29.0099 47.8939 28.9109 51 28.9109C54.2063 28.9109 57.2122 29.0099 60.1179 29.2079C61.9214 31.7822 63.5246 34.3564 65.0275 36.9307C66.6306 39.604 68.0334 42.2772 69.336 44.9505C68.0334 47.6238 66.6306 50.297 65.0275 52.9703C63.5246 55.5446 61.8212 58.1188 60.1179 60.6931C57.112 60.8911 54.1061 60.9901 51 60.9901C47.7937 60.9901 44.7878 60.8911 41.8821 60.6931C40.0786 58.1188 38.4754 55.5446 36.9725 52.9703C35.3694 50.297 33.9666 47.6238 32.664 44.9505ZM71.8409 39.604L69.1356 34.6535C68.1336 32.9703 67.2318 31.3861 66.1297 29.802C69.2357 30.198 72.1414 30.6931 74.947 31.2871C74.0452 34.0594 73.0432 36.8317 71.8409 39.604ZM71.8409 50.297C73.0432 53.0693 74.0452 55.8416 74.947 58.5149C72.1414 59.1089 69.2357 59.604 66.1297 60C67.1316 58.4158 68.1336 56.8317 69.1356 55.1485C70.0373 53.6634 70.9391 51.9802 71.8409 50.297ZM74.1454 84.6535C73.3438 85.1485 72.3418 85.3465 71.2397 85.3465C66.3301 85.3465 60.2181 81.3861 54.2063 75.4456C57.112 72.3762 59.9175 68.9109 62.723 65.0495C67.4322 64.6535 71.9411 63.9604 76.1493 62.9703C76.6503 64.7525 76.9509 66.5347 77.2515 68.3168C78.6542 76.7327 77.5521 82.7723 74.1454 84.6535ZM79.3556 32.4753C90.5776 35.6436 97.2908 40.4951 97.2908 44.9505C97.2908 48.8119 92.6817 52.6733 84.5658 55.7426C82.9627 56.3366 81.1591 56.9307 79.3556 57.4257C78.053 53.3663 76.4499 49.2079 74.446 44.9505C76.4499 40.6931 78.1532 36.5347 79.3556 32.4753ZM71.3399 4.55446C72.442 4.55446 73.3438 4.75248 74.2456 5.24753C77.5521 7.12871 78.7544 13.0693 77.3517 21.5842C77.0511 23.2673 76.6503 25.0495 76.2495 26.9307C72.0413 26.0396 67.5324 25.3465 62.8232 24.8515C60.1179 20.9901 57.2122 17.5248 54.3065 14.4554C60.3183 8.61386 66.4303 4.55446 71.3399 4.55446ZM56.611 24.4554C54.8075 24.3564 52.9037 24.3564 51 24.3564C49.0963 24.3564 47.1925 24.3564 45.389 24.4554C47.1925 22.0792 49.0963 19.901 51 17.8218C52.9037 19.901 54.8075 22.1782 56.611 24.4554ZM27.8546 5.24753C28.6562 4.75248 29.6581 4.55446 30.7603 4.55446C35.6699 4.55446 41.7819 8.51485 47.7937 14.4554C44.888 17.5248 42.0825 20.9901 39.277 24.8515C34.5678 25.2475 30.0589 25.9406 25.8507 26.9307C25.3497 25.1485 25.0491 23.3663 24.7485 21.5842C23.3458 13.1683 24.4479 7.22772 27.8546 5.24753ZM22.6444 57.4257C11.4224 54.2574 4.70923 49.4059 4.70923 44.9505C4.70923 41.0891 9.31827 37.2277 17.4342 34.1584C19.0373 33.5644 20.8409 32.9703 22.6444 32.4753C23.947 36.5347 25.5501 40.6931 27.554 44.9505C25.5501 49.2079 23.8468 53.4654 22.6444 57.4257ZM24.7485 68.3168C25.0491 66.6337 25.4499 64.8515 25.8507 62.9703C30.0589 63.8614 34.5678 64.5545 39.277 65.0495C41.9823 68.9109 44.888 72.3762 47.7937 75.4456C41.7819 81.2871 35.6699 85.3465 30.7603 85.3465C29.6581 85.3465 28.7564 85.1485 27.8546 84.6535C24.4479 82.7723 23.3458 76.7327 24.7485 68.3168Z" fill="#61DAFB"/>
</svg>
