<svg width="200" height="200" viewBox="0 0 200 200" fill="none" xmlns="http://www.w3.org/2000/svg">
<path d="M31.395 178.845C69.2549 199.052 130.639 199.052 168.499 178.845C206.359 158.639 206.364 125.868 168.499 105.662C130.634 85.4556 69.2549 85.4502 31.395 105.662C-6.46499 125.873 -6.46499 158.634 31.395 178.845Z" fill="#EBEBEB"/>
<path d="M127.999 136.348L122.476 133.137C122.476 133.137 121.122 121.306 122.021 112.144C123.29 99.2638 131.605 83.7827 141.521 87.4108C151.437 91.0389 136.967 104.187 133.757 115.103C130.546 126.02 127.999 136.348 127.999 136.348Z" fill="#2B478B"/>
<path opacity="0.1" d="M127.999 136.348L122.476 133.137C122.476 133.137 121.122 121.306 122.021 112.144C123.29 99.2638 131.605 83.7827 141.521 87.4108C151.437 91.0389 136.967 104.187 133.757 115.103C130.546 126.02 127.999 136.348 127.999 136.348Z" fill="black"/>
<path d="M125.125 134.898C125.073 134.898 125.023 134.88 124.984 134.847C124.945 134.813 124.919 134.767 124.911 134.716C123.033 120.267 128.175 98.4289 138.557 90.1452C138.578 90.1279 138.603 90.115 138.629 90.1072C138.655 90.0995 138.683 90.097 138.71 90.1C138.738 90.103 138.764 90.1113 138.788 90.1246C138.812 90.1379 138.834 90.1558 138.851 90.1773C138.886 90.2214 138.903 90.2776 138.896 90.3337C138.89 90.3898 138.863 90.4413 138.819 90.4769C128.55 98.675 123.471 120.342 125.334 134.657C125.341 134.713 125.326 134.77 125.292 134.815C125.258 134.86 125.208 134.89 125.152 134.898H125.125Z" fill="white"/>
<path d="M130.947 138.633L127.019 136.358C127.019 136.358 126.35 128.241 130.332 118.378C133.794 109.816 142.393 102.667 146.717 104.165C151.041 105.664 150.934 108.73 148.826 111.946C146.717 115.162 133.89 122.831 130.947 138.633Z" fill="#2B478B"/>
<path d="M128.512 138.841C128.484 138.84 128.457 138.833 128.432 138.821C128.407 138.809 128.384 138.792 128.366 138.771C128.347 138.75 128.333 138.725 128.324 138.699C128.316 138.672 128.312 138.644 128.314 138.617C129.609 118.41 139.83 108.473 145.973 106.959C146.029 106.946 146.087 106.954 146.136 106.983C146.185 107.012 146.22 107.059 146.236 107.114C146.249 107.168 146.24 107.226 146.211 107.274C146.181 107.322 146.135 107.357 146.08 107.371C139.611 108.976 129.957 119.732 128.748 138.643C128.746 138.672 128.738 138.7 128.725 138.726C128.712 138.751 128.694 138.774 128.672 138.792C128.65 138.811 128.625 138.825 128.597 138.833C128.57 138.841 128.541 138.844 128.512 138.841Z" fill="white"/>
<path d="M53.3073 139.392C53.3073 139.392 54.0404 127.528 47.148 119.395C40.2557 111.261 31.2816 111.293 28.3117 112.807C25.3418 114.322 23.3458 118.651 28.4562 121.749C33.5666 124.847 44.435 131.05 46.2437 136.583L53.3073 139.392Z" fill="#2B478B"/>
<path opacity="0.1" d="M53.3073 139.392C53.3073 139.392 54.0404 127.528 47.148 119.395C40.2557 111.261 31.2816 111.293 28.3117 112.807C25.3418 114.322 23.3458 118.651 28.4562 121.749C33.5666 124.847 44.435 131.05 46.2437 136.583L53.3073 139.392Z" fill="black"/>
<path d="M50.0645 136.422C49.9983 136.421 49.9346 136.396 49.8854 136.352C49.8361 136.308 49.8047 136.247 49.7969 136.181C48.3788 123.055 35.2576 115.782 30.0295 114.958C29.9943 114.953 29.9606 114.941 29.9301 114.923C29.8997 114.904 29.8731 114.88 29.852 114.852C29.8309 114.823 29.8156 114.791 29.8071 114.756C29.7985 114.722 29.7968 114.686 29.802 114.651C29.8073 114.616 29.8195 114.582 29.8378 114.551C29.8561 114.521 29.8802 114.494 29.9088 114.473C29.9374 114.452 29.9698 114.437 30.0043 114.428C30.0388 114.42 30.0746 114.418 30.1097 114.423C35.461 115.263 48.8765 122.702 50.332 136.123C50.3357 136.158 50.3324 136.193 50.3223 136.227C50.3122 136.261 50.2954 136.293 50.273 136.32C50.2506 136.347 50.223 136.37 50.1918 136.387C50.1606 136.403 50.1264 136.413 50.0912 136.417L50.0645 136.422Z" fill="white"/>
<path d="M47.5119 133.409C45.7835 129.471 43.8303 127.705 38.2115 128.647C32.5927 129.589 33.3954 129.444 26.5191 127.684C23.6187 126.945 20.3598 126.827 17.5772 128.08C15.228 129.15 13.4728 131.29 15.747 133.57C18.3049 136.117 22.1204 136.989 24.9458 139.231C25.5868 139.685 26.0963 140.3 26.4227 141.013C27.1666 142.908 25.6789 145.043 26.1124 147.028C26.5458 149.014 28.6328 150.073 30.5914 150.202C32.5499 150.33 34.4817 149.741 36.4349 149.517C38.3881 149.292 40.5821 149.517 41.9306 150.967C43.3754 152.503 43.4129 154.959 44.7561 156.591C46.7681 159.036 51.7127 159.716 54.3883 158.196L61.393 154.156C66.0219 147.917 58.7174 142.972 54.8913 138.129C53.0344 135.769 48.5501 135.78 47.5119 133.409Z" fill="#2B478B"/>
<path d="M57.0532 150.389C57.0076 150.39 56.9626 150.378 56.923 150.356C56.8834 150.333 56.8508 150.3 56.8284 150.26C48.8391 137.316 27.0863 130.766 19.3912 130.231C19.3212 130.225 19.2561 130.192 19.21 130.139C19.164 130.086 19.1406 130.017 19.1451 129.947C19.1506 129.877 19.1832 129.811 19.2361 129.764C19.289 129.717 19.358 129.693 19.4287 129.696C27.2254 130.231 49.1869 136.877 57.2833 149.993C57.3191 150.054 57.3297 150.127 57.3127 150.196C57.2957 150.265 57.2525 150.324 57.1923 150.362C57.1486 150.381 57.101 150.391 57.0532 150.389Z" fill="white"/>
<path d="M31.7472 144.288C31.7055 144.289 31.6643 144.28 31.627 144.261C31.5897 144.243 31.5575 144.215 31.5332 144.181C31.4906 144.124 31.4723 144.053 31.4823 143.983C31.4924 143.913 31.5299 143.849 31.5867 143.807C31.8649 143.598 38.5005 138.728 44.9648 138.632C44.9997 138.631 45.0343 138.638 45.0668 138.65C45.0992 138.663 45.1287 138.682 45.1536 138.707C45.1786 138.731 45.1984 138.76 45.2119 138.793C45.2254 138.825 45.2323 138.859 45.2323 138.894C45.233 138.929 45.2268 138.964 45.214 138.997C45.2012 139.03 45.1821 139.06 45.1578 139.085C45.1334 139.11 45.1043 139.131 45.0721 139.145C45.0399 139.159 45.0053 139.166 44.9701 139.167C38.6931 139.258 31.988 144.187 31.9185 144.235C31.8701 144.273 31.809 144.293 31.7472 144.288Z" fill="white"/>
<path d="M100.399 67.6094V79.457C100.399 80.3453 101.025 80.7039 101.79 80.2597L179.437 35.4324C179.841 35.1682 180.178 34.8125 180.419 34.3943C180.661 33.976 180.801 33.5067 180.828 33.0244V21.1607C180.828 20.2724 180.202 19.9139 179.437 20.358L101.79 65.1853C101.384 65.4515 101.047 65.8097 100.805 66.2309C100.563 66.6521 100.424 67.1244 100.399 67.6094Z" fill="#E6E6E6"/>
<path d="M101.79 65.1853L115.618 57.2067V72.265L101.79 80.2437C101.025 80.6879 100.399 80.3293 100.399 79.441V67.6095C100.424 67.1244 100.563 66.6522 100.805 66.231C101.047 65.8098 101.384 65.4515 101.79 65.1853Z" fill="#2B478B"/>
<path d="M111.043 63.7779C110.17 63.2749 109.068 63.3551 107.939 64.008C106.866 64.6954 105.973 65.6299 105.336 66.7331C104.698 67.8363 104.334 69.0763 104.273 70.3492C104.236 71.1741 104.496 71.9851 105.007 72.6342L103.519 75.1813C103.422 75.3636 103.398 75.576 103.453 75.775C103.508 75.974 103.637 76.1445 103.813 76.2516C103.936 76.3205 104.074 76.3573 104.215 76.3586C104.356 76.3587 104.494 76.3217 104.616 76.2512C104.738 76.1807 104.84 76.0794 104.91 75.9573L106.382 73.4101C106.541 73.4399 106.702 73.456 106.863 73.4582C107.52 73.4463 108.163 73.2617 108.726 72.9231C109.797 72.2341 110.688 71.2992 111.324 70.1962C111.961 69.0932 112.325 67.854 112.386 66.5819C112.402 65.2816 111.92 64.2862 111.043 63.7779ZM107.939 71.5371C107.751 71.7394 107.5 71.8719 107.227 71.913C106.954 71.9541 106.675 71.9014 106.436 71.7634C106.197 71.6255 106.011 71.4105 105.91 71.1537C105.809 70.8968 105.798 70.6132 105.879 70.3492C105.941 69.359 106.232 68.3968 106.729 67.538C107.226 66.6792 107.915 65.9471 108.742 65.3993C109.063 65.1949 109.432 65.0786 109.812 65.0622C109.969 65.0562 110.124 65.0933 110.261 65.1692C110.463 65.3414 110.617 65.5616 110.711 65.8095C110.805 66.0574 110.834 66.325 110.797 66.5873C110.735 67.5769 110.445 68.5389 109.949 69.3977C109.453 70.2564 108.765 70.9887 107.939 71.5371Z" fill="white"/>
<path d="M115.886 102.084L95.8238 113.669C95.0085 114.202 94.4327 115.031 94.2184 115.981L89.2311 144.776C89.1736 145.223 89.2435 145.677 89.4329 146.086C89.6222 146.495 89.9233 146.842 90.3013 147.088L103.241 154.579C103.656 154.787 104.114 154.895 104.578 154.895C105.043 154.895 105.501 154.787 105.916 154.579L133.571 138.611C133.978 138.395 134.318 138.073 134.555 137.678C134.792 137.284 134.917 136.832 134.917 136.372C134.917 135.912 134.792 135.46 134.555 135.066C134.318 134.671 133.978 134.348 133.571 134.132L123.65 128.369C123.251 128.107 122.911 127.764 122.651 127.364C122.391 126.963 122.218 126.513 122.141 126.041L119.904 104.31C119.838 103.853 119.677 103.415 119.432 103.023C119.186 102.632 118.863 102.296 118.481 102.036C118.075 101.839 117.628 101.741 117.177 101.749C116.727 101.758 116.284 101.872 115.886 102.084Z" fill="#263238"/>
<path d="M104.584 149.496V154.879C105.053 154.889 105.517 154.778 105.932 154.558L133.587 138.59C133.973 138.35 134.296 138.022 134.53 137.633C134.764 137.245 134.903 136.806 134.936 136.353C134.906 135.824 134.72 135.316 134.401 134.892H129.874L104.584 149.496Z" fill="#455A64"/>
<path d="M118.411 103.539L98.3442 115.13C97.529 115.663 96.9532 116.492 96.7389 117.442L92.2064 143.577C92.1497 144.025 92.22 144.48 92.4093 144.889C92.5985 145.299 92.899 145.647 93.2766 145.894L103.225 151.636C103.64 151.844 104.098 151.952 104.562 151.952C105.027 151.952 105.485 151.844 105.9 151.636L133.587 135.647C134.337 135.219 134.337 134.523 133.587 134.09L123.65 128.369C123.251 128.107 122.911 127.764 122.651 127.364C122.391 126.963 122.218 126.513 122.141 126.041L119.904 104.31C119.908 104.135 119.862 103.963 119.772 103.813C119.683 103.663 119.553 103.54 119.398 103.46C119.242 103.38 119.067 103.345 118.893 103.359C118.719 103.373 118.552 103.435 118.411 103.539Z" fill="#263238"/>
<path d="M133.587 134.111L123.65 128.369C123.249 128.118 122.911 127.78 122.66 127.379L92.3937 144.851C92.5775 145.282 92.8894 145.646 93.2873 145.894L103.235 151.636C103.651 151.844 104.109 151.952 104.573 151.952C105.037 151.952 105.496 151.844 105.911 151.636L133.587 135.647C134.353 135.24 134.353 134.544 133.587 134.111Z" fill="#37474F"/>
<path d="M52.1096 159.353L50.8253 158.609C50.2753 158.251 49.8176 157.768 49.4894 157.2C49.1611 156.632 48.9716 155.994 48.9363 155.339V69.1844C48.9716 68.53 49.1611 67.8931 49.4894 67.3258C49.8177 66.7585 50.2754 66.2769 50.8253 65.9202L156.116 5.45126C156.702 5.15459 157.349 5 158.005 5C158.661 5 159.309 5.15459 159.894 5.45126L160.873 5.98638C161.423 6.34456 161.881 6.82728 162.209 7.39536C162.537 7.96344 162.727 8.60088 162.762 9.25598V95.4643C162.727 96.1195 162.538 96.7571 162.209 97.3253C161.881 97.8934 161.423 98.3761 160.873 98.7339L55.8876 159.353C55.3017 159.648 54.6547 159.802 53.9986 159.802C53.3424 159.802 52.6955 159.648 52.1096 159.353Z" fill="#455A64"/>
<path d="M56.5243 71.357L49.4928 67.2954C49.159 67.8605 48.9748 68.5015 48.9577 69.1576V155.339C48.993 155.994 49.1825 156.632 49.5108 157.2C49.839 157.768 50.2967 158.251 50.8467 158.609L52.131 159.353C52.7169 159.648 53.3638 159.802 54.02 159.802C54.6761 159.802 55.3231 159.648 55.909 159.353L56.5458 158.978L56.5243 71.357Z" fill="#263238"/>
<path d="M53.9986 158.261V72.1062C54.0339 71.451 54.2234 70.8134 54.5516 70.2452C54.8799 69.6771 55.3376 69.1945 55.8876 68.8366L160.873 8.19109C161.917 7.59175 162.762 8.07871 162.762 9.26133V95.4643C162.727 96.1195 162.538 96.7571 162.209 97.3253C161.881 97.8934 161.423 98.3761 160.873 98.7339L55.8876 159.353C54.8441 159.952 53.9986 159.465 53.9986 158.261Z" fill="#37474F"/>
<path d="M103.316 126.138L113.263 120.39C114.007 119.962 114.612 120.267 114.612 121.075C114.579 121.528 114.44 121.966 114.205 122.355C113.971 122.744 113.648 123.072 113.263 123.312L103.316 129.059C102.566 129.487 101.967 129.182 101.967 128.374C102 127.922 102.139 127.483 102.373 127.094C102.607 126.705 102.93 126.378 103.316 126.138Z" fill="#E0E0E0"/>
<path d="M58.8361 71.4318L157.711 14.1737C158.305 13.8312 158.781 14.1095 158.781 14.7944V89.931C158.761 90.3044 158.654 90.6679 158.468 90.9923C158.283 91.3167 158.023 91.5929 157.711 91.7986L58.8361 148.886C58.2368 149.228 57.7659 148.95 57.7659 148.259V73.3422C57.7788 72.9615 57.8828 72.5894 58.069 72.257C58.2551 71.9247 58.5182 71.6417 58.8361 71.4318Z" fill="white"/>
<path d="M65.9639 73.3209L169.73 13.3871C171.378 12.4399 172.726 13.2158 172.726 15.1155V82.8354C172.699 83.3176 172.559 83.7867 172.317 84.2049C172.076 84.6231 171.739 84.9788 171.335 85.2434L65.4288 146.392C64.6636 146.836 64.0375 146.472 64.0375 145.589V76.66C64.0751 75.9916 64.269 75.3413 64.6036 74.7613C64.9381 74.1814 65.4041 73.688 65.9639 73.3209Z" fill="#E0E0E0"/>
<path d="M172.726 16.6957V15.1331C172.726 13.2334 171.378 12.4575 169.73 13.4046L65.9639 73.3384C65.4041 73.7056 64.9382 74.199 64.6036 74.7789C64.269 75.3588 64.0751 76.0091 64.0375 76.6776V79.4602L172.726 16.6957Z" fill="#2B478B"/>
<path d="M160.167 20.258C159.867 20.4531 159.618 20.7162 159.44 21.0259C159.261 21.3355 159.158 21.683 159.14 22.04C159.14 22.6982 159.6 22.9657 160.167 22.6393C160.468 22.4436 160.718 22.1798 160.897 21.8692C161.077 21.5587 161.18 21.2102 161.2 20.852C161.2 20.1938 160.74 19.9262 160.167 20.258Z" fill="white"/>
<path d="M164.261 17.9195C163.968 18.1148 163.724 18.3755 163.548 18.681C163.373 18.9864 163.27 19.3284 163.249 19.68C163.249 20.3382 163.71 20.6058 164.282 20.274C164.582 20.0781 164.832 19.8142 165.012 19.5037C165.191 19.1932 165.295 18.8448 165.315 18.4867C165.293 17.8285 164.855 17.5663 164.261 17.9195Z" fill="white"/>
<path d="M168.354 15.5329C168.054 15.7274 167.804 15.9902 167.624 16.2999C167.445 16.6097 167.341 16.9574 167.322 17.3149C167.322 17.9731 167.782 18.2406 168.354 17.9142C168.654 17.7176 168.903 17.4535 169.081 17.143C169.26 16.8325 169.363 16.4845 169.382 16.1269C169.382 15.4687 168.922 15.2011 168.354 15.5329Z" fill="white"/>
<path d="M166.171 28.59C166.085 28.3063 165.818 28.2154 165.502 28.3973L99.5108 66.5034C99.3024 66.6352 99.1325 66.8198 99.0185 67.0386L96.8459 65.781C96.9599 65.5623 97.1298 65.3777 97.3382 65.2459L163.33 27.1451C163.545 27.0344 163.783 26.9766 164.025 26.9766C164.267 26.9766 164.506 27.0344 164.721 27.1451L165.502 27.5946C165.675 27.707 165.823 27.853 165.938 28.0241C166.053 28.1951 166.132 28.3876 166.171 28.59Z" fill="#EBEBEB"/>
<path d="M166.198 28.7986V57.3153C166.185 57.5567 166.116 57.7916 165.995 58.0009C165.874 58.2102 165.705 58.3878 165.502 58.5193L99.5108 96.6201L99.4145 96.6683C99.3733 96.6856 99.3302 96.6982 99.286 96.7057C99.0238 96.7432 98.8365 96.5559 98.8365 96.2134V67.686C98.8452 67.4441 98.9152 67.2085 99.0399 67.001C99.1539 66.7823 99.3237 66.5977 99.5322 66.4659L165.524 28.3598C165.839 28.1779 166.107 28.2688 166.192 28.5525C166.195 28.5702 166.195 28.5883 166.192 28.606C166.202 28.6697 166.204 28.7344 166.198 28.7986Z" fill="#FAFAFA"/>
<path d="M99.2647 96.7113C99.0517 96.7764 98.8276 96.7964 98.6065 96.7702C98.4353 96.7554 98.2693 96.7043 98.1195 96.6204L97.3382 96.1708C97.1363 96.0384 96.9682 95.8605 96.8474 95.6514C96.7266 95.4424 96.6565 95.2079 96.6426 94.9668V66.4501C96.65 66.208 96.7201 65.9721 96.8459 65.7651L99.0185 67.0227C98.8938 67.2301 98.8238 67.4658 98.8152 67.7076V96.219C98.8152 96.5829 99.0025 96.7488 99.2647 96.7113Z" fill="#E0E0E0"/>
<path d="M127.048 86.3192C126.963 86.0355 126.69 85.9446 126.379 86.1265L99.5108 101.645C99.2969 101.775 99.1215 101.96 99.0025 102.18L96.8352 100.912C96.9534 100.693 97.1268 100.508 97.3382 100.377L124.201 84.8583C124.417 84.7475 124.655 84.6897 124.897 84.6897C125.139 84.6897 125.378 84.7475 125.593 84.8583L126.379 85.3078C126.552 85.4235 126.701 85.5725 126.816 85.7462C126.93 85.9198 127.01 86.1146 127.048 86.3192Z" fill="#EBEBEB"/>
<path d="M127.075 86.5277V107.515C127.062 107.756 126.992 107.99 126.872 108.199C126.753 108.408 126.586 108.586 126.385 108.719L100.993 123.376L99.5161 124.232L99.4091 124.286C99.0773 124.404 98.8365 124.216 98.8365 123.826V102.844C98.8436 102.614 98.908 102.389 99.0238 102.191C99.1429 101.97 99.3183 101.786 99.5322 101.656L126.401 86.137C126.711 85.9551 126.984 86.0461 127.07 86.3297C127.07 86.3297 127.07 86.3618 127.07 86.3832C127.076 86.4311 127.078 86.4795 127.075 86.5277Z" fill="#FAFAFA"/>
<path d="M99.3878 124.291L99.3021 124.324C99.2644 124.339 99.2249 124.35 99.1844 124.356C99.1249 124.372 99.064 124.383 99.0025 124.388H98.8205C98.6945 124.387 98.5689 124.373 98.4459 124.345C98.3319 124.319 98.222 124.278 98.1195 124.222L97.3382 123.767C97.1354 123.636 96.9667 123.458 96.8457 123.249C96.7248 123.039 96.6552 122.804 96.6426 122.563V101.592C96.6506 101.356 96.7168 101.126 96.8352 100.923L99.0025 102.191C98.8866 102.389 98.8223 102.614 98.8152 102.844V123.831C98.8152 124.222 99.0346 124.409 99.3878 124.291Z" fill="#E0E0E0"/>
<path d="M100.988 120.332V106.343C100.997 106.182 101.044 106.026 101.125 105.887C101.206 105.747 101.318 105.629 101.453 105.541L102.7 104.818C102.957 104.674 103.16 104.818 103.16 105.086V119.058C103.152 119.219 103.106 119.375 103.026 119.514C102.946 119.654 102.835 119.772 102.7 119.861L101.453 120.578C101.175 120.749 100.988 120.626 100.988 120.332Z" fill="#2B478B"/>
<path d="M105.338 117.822V101.324C105.346 101.163 105.392 101.007 105.472 100.867C105.552 100.728 105.664 100.609 105.799 100.521L107.061 99.7934C107.318 99.6489 107.527 99.7934 107.527 100.061V116.559C107.519 116.72 107.473 116.877 107.392 117.017C107.311 117.156 107.197 117.275 107.061 117.362L105.815 118.084C105.542 118.239 105.338 118.116 105.338 117.822Z" fill="#2B478B"/>
<path d="M109.684 115.312V107.392C109.693 107.231 109.74 107.075 109.821 106.935C109.901 106.796 110.014 106.677 110.149 106.59L111.396 105.872C111.647 105.723 111.856 105.846 111.856 106.14V114.054C111.849 114.215 111.804 114.372 111.724 114.512C111.644 114.652 111.531 114.77 111.396 114.857L110.149 115.58C109.892 115.729 109.684 115.606 109.684 115.312Z" fill="#2B478B"/>
<path d="M114.018 112.808V102.539C114.027 102.377 114.073 102.221 114.154 102.081C114.235 101.942 114.348 101.823 114.484 101.736L115.73 101.013C115.987 100.869 116.196 100.987 116.196 101.281V111.566C116.188 111.727 116.142 111.884 116.061 112.024C115.98 112.164 115.866 112.282 115.73 112.369L114.484 113.091C114.237 113.225 114.018 113.102 114.018 112.808Z" fill="#2B478B"/>
<path d="M118.379 110.298V106.804C118.388 106.643 118.434 106.487 118.514 106.348C118.594 106.208 118.705 106.089 118.839 106.001L120.092 105.279C120.343 105.134 120.552 105.252 120.552 105.546V109.04C120.543 109.201 120.497 109.357 120.417 109.497C120.337 109.636 120.226 109.755 120.092 109.843L118.834 110.566C118.588 110.71 118.379 110.592 118.379 110.298Z" fill="#2B478B"/>
<path d="M122.724 107.788V96.3045C122.734 96.1436 122.781 95.9871 122.861 95.8476C122.942 95.7082 123.055 95.5897 123.19 95.5018L124.437 94.7848C124.694 94.6349 124.902 94.7848 124.902 95.0523V106.531C124.895 106.692 124.848 106.849 124.767 106.989C124.686 107.128 124.573 107.246 124.437 107.333L123.19 108.056C122.933 108.2 122.724 108.083 122.724 107.788Z" fill="#2B478B"/>
<path d="M166.171 63.7261C166.085 63.4425 165.813 63.3516 165.502 63.5335L132.116 82.7979C131.902 82.9281 131.727 83.1128 131.607 83.3331L129.44 82.0648C129.558 81.8457 129.732 81.6612 129.943 81.5297L163.324 62.2652C163.539 62.1545 163.778 62.0967 164.02 62.0967C164.262 62.0967 164.5 62.1545 164.716 62.2652L165.502 62.7148C165.675 62.8305 165.824 62.9795 165.938 63.1532C166.053 63.3268 166.132 63.5216 166.171 63.7261Z" fill="#EBEBEB"/>
<path d="M166.198 63.9401V84.9276C166.185 85.1682 166.115 85.4024 165.995 85.6114C165.875 85.8205 165.708 85.9986 165.508 86.1316L133.598 104.556L132.121 105.412L132.014 105.466C131.682 105.583 131.442 105.396 131.442 105.005V84.0179C131.449 83.7881 131.513 83.5637 131.629 83.3651C131.748 83.1448 131.923 82.9601 132.137 82.8299L165.524 63.5655C165.834 63.3836 166.107 63.4745 166.193 63.7581C166.193 63.7581 166.193 63.7902 166.193 63.8117C166.198 63.8542 166.2 63.8972 166.198 63.9401Z" fill="#FAFAFA"/>
<path d="M131.993 105.466L131.907 105.498C131.869 105.514 131.83 105.524 131.789 105.53C131.73 105.546 131.669 105.557 131.607 105.562H131.426C131.3 105.561 131.174 105.547 131.051 105.519C130.937 105.494 130.827 105.452 130.725 105.396L129.943 104.941C129.74 104.81 129.572 104.632 129.451 104.423C129.33 104.214 129.26 103.979 129.248 103.737V82.7658C129.256 82.5304 129.322 82.3006 129.44 82.0969L131.607 83.3652C131.492 83.5638 131.427 83.7882 131.42 84.018V105.006C131.42 105.396 131.677 105.583 131.993 105.466Z" fill="#E0E0E0"/>
<path d="M143.776 81.0107L142.048 87.4322C141.886 87.946 141.636 88.4277 141.309 88.8556L135.728 95.5607C135.367 95.3047 135.061 94.9784 134.83 94.6014C134.598 94.2243 134.445 93.8044 134.379 93.3667C133.989 91.2262 135.091 88.2617 137.248 85.6663C137.617 85.2275 137.991 84.8155 138.377 84.4248C139.883 82.8781 141.733 81.7085 143.776 81.0107Z" fill="#2B478B"/>
<path d="M148.426 89.1232C145.949 93.2918 141.24 96.4383 137.724 96.2189C137.242 96.2015 136.767 96.0964 136.322 95.9085L141.823 89.2998C142.118 88.9812 142.524 88.7893 142.957 88.7646H143.016L148.426 89.1232Z" fill="#2B478B"/>
<path d="M147.95 80.9036L142.824 87.0629L144.52 80.7966C145.642 80.4423 146.852 80.4801 147.95 80.9036Z" fill="#2B478B"/>
<path d="M148.801 88.4917L143.07 88.1385C143.006 88.134 142.942 88.1196 142.883 88.0957C142.891 88.057 142.907 88.0205 142.931 87.9887C142.944 87.9654 142.96 87.9438 142.979 87.9244L148.56 81.2194C150.374 82.4715 150.471 85.2756 148.801 88.4917Z" fill="#2B478B"/>
<path d="M152.199 76.5156C152.199 76.9009 152.515 77.0507 152.895 76.8099L163.33 70.7844C163.52 70.6719 163.682 70.5166 163.803 70.331C163.924 70.1453 164 69.9342 164.025 69.7142C164.025 69.3289 163.715 69.1791 163.33 69.4145L152.895 75.44C152.705 75.555 152.544 75.7115 152.423 75.8978C152.303 76.0841 152.226 76.2954 152.199 76.5156Z" fill="#2B478B"/>
<path d="M152.199 80.7111C152.199 81.0964 152.515 81.2462 152.895 81.0054L163.33 74.9853C163.524 74.8686 163.687 74.7081 163.808 74.5167C163.929 74.3253 164.003 74.1082 164.025 73.883C164.025 73.4977 163.715 73.3478 163.33 73.5886L152.895 79.6088C152.702 79.7264 152.538 79.8872 152.418 80.0784C152.297 80.2696 152.222 80.4862 152.199 80.7111Z" fill="#E0E0E0"/>
<path d="M152.199 83.301C152.199 83.6863 152.515 83.8361 152.895 83.5953L163.33 77.5698C163.524 77.4546 163.688 77.2952 163.809 77.1046C163.93 76.914 164.004 76.6975 164.025 76.4728C164.025 76.0876 163.715 75.9377 163.33 76.1732L152.895 82.1987C152.702 82.3163 152.538 82.477 152.418 82.6683C152.297 82.8595 152.222 83.0761 152.199 83.301Z" fill="#E0E0E0"/>
<path d="M152.199 85.8802C152.199 86.2655 152.515 86.4153 152.895 86.1799L163.33 80.1544C163.524 80.0387 163.689 79.8784 163.81 79.6868C163.931 79.4952 164.005 79.2777 164.025 79.052C164.025 78.6667 163.715 78.5169 163.33 78.7577L152.895 84.8099C152.705 84.9235 152.543 85.0789 152.423 85.2644C152.302 85.4499 152.226 85.6606 152.199 85.8802Z" fill="#E0E0E0"/>
<path d="M152.199 88.4756C152.199 88.8608 152.515 89.0107 152.895 88.7752L163.33 82.7497C163.524 82.633 163.687 82.4725 163.808 82.2811C163.929 82.0897 164.003 81.8727 164.025 81.6474C164.025 81.2621 163.715 81.1122 163.33 81.353L152.895 87.3785C152.701 87.4947 152.538 87.6544 152.417 87.8448C152.296 88.0352 152.222 88.2512 152.199 88.4756Z" fill="#E0E0E0"/>
<path d="M90.0927 83.8146C90.007 83.5256 89.7395 83.4347 89.4237 83.622L71.2296 94.1104C71.0236 94.2451 70.8544 94.429 70.7372 94.6455L68.5861 93.3719C68.7017 93.1543 68.8712 92.9701 69.0784 92.8368L87.2726 82.343C87.4885 82.2347 87.7267 82.1783 87.9682 82.1783C88.2098 82.1783 88.448 82.2347 88.6639 82.343L89.4452 82.7979C89.6163 82.9147 89.7619 83.065 89.8732 83.2398C89.9845 83.4146 90.0592 83.6101 90.0927 83.8146Z" fill="#EBEBEB"/>
<path d="M90.1194 84.0233V89.9471C90.1063 90.1884 90.0365 90.4232 89.9156 90.6324C89.7947 90.8416 89.6262 91.0193 89.4237 91.1512L71.2295 101.64L71.1011 101.704H71.069C70.7586 101.795 70.5339 101.607 70.5339 101.228V95.3144C70.5406 95.0723 70.6107 94.8361 70.7372 94.6295C70.8544 94.413 71.0236 94.2291 71.2295 94.0943L89.4237 83.6059C89.7394 83.4186 90.007 83.5096 90.0926 83.7986C90.0956 83.8163 90.0956 83.8344 90.0926 83.8521C90.1077 83.908 90.1167 83.9654 90.1194 84.0233Z" fill="#FAFAFA"/>
<path d="M71.0904 101.715C71.0056 101.746 70.9177 101.77 70.8282 101.784C70.5557 101.834 70.2749 101.81 70.0148 101.715L69.8596 101.64L69.0784 101.19C68.8756 101.059 68.7068 100.881 68.5859 100.672C68.465 100.462 68.3954 100.227 68.3827 99.9861V94.0623C68.3921 93.8205 68.462 93.585 68.5861 93.3773L70.7587 94.6295C70.6322 94.8361 70.5621 95.0723 70.5553 95.3145V101.238C70.5553 101.618 70.7801 101.806 71.0904 101.715Z" fill="#E0E0E0"/>
<path d="M90.0926 95.1058C90.007 94.8168 89.7394 94.7259 89.4237 94.9132L71.2295 105.402C71.0235 105.536 70.8543 105.72 70.7372 105.937L68.5646 104.685C68.6802 104.467 68.8497 104.283 69.0569 104.149L87.2511 93.6556C87.467 93.5474 87.7052 93.491 87.9468 93.491C88.1883 93.491 88.4265 93.5474 88.6424 93.6556L89.4237 94.1105C89.5965 94.2228 89.7448 94.3689 89.8597 94.5399C89.9747 94.7109 90.0539 94.9034 90.0926 95.1058Z" fill="#EBEBEB"/>
<path d="M90.1194 95.3146V101.238C90.1082 101.486 90.0371 101.728 89.9122 101.942C89.7873 102.156 89.6124 102.337 89.4023 102.469L71.2081 112.958L71.0797 113.022H71.0476C70.7372 113.113 70.5125 112.925 70.5125 112.546V106.606C70.5192 106.363 70.5894 106.127 70.7158 105.921C70.833 105.704 71.0022 105.52 71.2081 105.386L89.4023 94.8972C89.7181 94.7099 89.9856 94.8008 90.0712 95.0898C90.0742 95.1075 90.0742 95.1256 90.0712 95.1433C90.0936 95.1984 90.1097 95.2559 90.1194 95.3146Z" fill="#FAFAFA"/>
<path d="M71.0904 113.006C71.0056 113.038 70.9177 113.061 70.8282 113.075C70.5557 113.125 70.2749 113.101 70.0148 113.006L69.8596 112.931L69.0784 112.481C68.8756 112.35 68.7068 112.172 68.5859 111.963C68.465 111.754 68.3954 111.519 68.3827 111.277V105.353C68.3921 105.112 68.462 104.876 68.5861 104.668L70.7587 105.921C70.6322 106.127 70.5621 106.363 70.5553 106.606V112.529C70.5553 112.909 70.7801 113.097 71.0904 113.006Z" fill="#E0E0E0"/>
<path d="M90.0926 106.402C90.007 106.113 89.7394 106.022 89.4237 106.209L71.2295 116.698C71.0235 116.833 70.8543 117.016 70.7372 117.233L68.5646 115.981C68.6802 115.763 68.8497 115.579 69.0569 115.446L87.2511 104.952C87.467 104.844 87.7052 104.787 87.9468 104.787C88.1883 104.787 88.4265 104.844 88.6424 104.952L89.4237 105.407C89.5965 105.519 89.7448 105.665 89.8597 105.836C89.9747 106.007 90.0539 106.2 90.0926 106.402Z" fill="#EBEBEB"/>
<path d="M90.1194 106.611V112.535C90.1063 112.776 90.0365 113.011 89.9156 113.22C89.7947 113.429 89.6262 113.607 89.4237 113.739L71.2295 124.227L71.1011 124.291H71.069C70.7586 124.382 70.5339 124.195 70.5339 123.815V117.902C70.5406 117.66 70.6107 117.424 70.7372 117.217C70.8544 117 71.0236 116.817 71.2295 116.682L89.4023 106.215C89.718 106.028 89.9856 106.118 90.0712 106.407C90.0742 106.425 90.0742 106.443 90.0712 106.461C90.0921 106.509 90.1083 106.559 90.1194 106.611Z" fill="#FAFAFA"/>
<path d="M71.0904 124.302C71.0056 124.334 70.9177 124.357 70.8282 124.372C70.5557 124.421 70.2749 124.397 70.0148 124.302L69.8596 124.227L69.0784 123.778C68.8756 123.646 68.7068 123.468 68.5859 123.259C68.465 123.05 68.3954 122.815 68.3827 122.574V116.65C68.3921 116.408 68.462 116.172 68.5861 115.965L70.7587 117.217C70.6322 117.424 70.5621 117.66 70.5553 117.902V123.826C70.5553 124.206 70.7801 124.409 71.0904 124.302Z" fill="#E0E0E0"/>
<path d="M90.0926 117.699C90.007 117.41 89.7394 117.319 89.4237 117.506L71.2295 127.994C71.0235 128.129 70.8543 128.313 70.7372 128.529L68.5646 127.277C68.6802 127.06 68.8497 126.875 69.0569 126.742L87.2511 116.248C87.467 116.14 87.7052 116.084 87.9468 116.084C88.1883 116.084 88.4265 116.14 88.6424 116.248L89.4237 116.703C89.5965 116.816 89.7448 116.962 89.8597 117.133C89.9747 117.304 90.0539 117.496 90.0926 117.699Z" fill="#EBEBEB"/>
<path d="M90.1194 117.907V123.831C90.1063 124.073 90.0365 124.307 89.9156 124.517C89.7947 124.726 89.6262 124.903 89.4237 125.035L71.2295 135.524L71.1011 135.588H71.069C70.7586 135.679 70.5339 135.492 70.5339 135.112V129.225C70.5406 128.983 70.6107 128.747 70.7372 128.54C70.8544 128.324 71.0236 128.14 71.2295 128.005L89.4237 117.517C89.7394 117.33 90.007 117.42 90.0926 117.709C90.0956 117.727 90.0956 117.745 90.0926 117.763C90.1059 117.81 90.1149 117.859 90.1194 117.907Z" fill="#FAFAFA"/>
<path d="M71.0904 135.599C71.0056 135.631 70.9177 135.654 70.8282 135.668C70.5557 135.718 70.2749 135.694 70.0148 135.599L69.8596 135.524L69.0784 135.074C68.8756 134.943 68.7068 134.765 68.5859 134.556C68.465 134.346 68.3954 134.112 68.3827 133.87V127.946C68.3921 127.705 68.462 127.469 68.5861 127.261L70.7587 128.514C70.6322 128.72 70.5621 128.956 70.5553 129.199V135.112C70.5553 135.502 70.7801 135.69 71.0904 135.599Z" fill="#E0E0E0"/>
<path d="M92.003 74.4339C92.0258 74.4275 92.0499 74.4275 92.0726 74.4339L90.1194 73.3102V72.7055C90.1244 72.6539 90.1244 72.6019 90.1194 72.5503C90.1224 72.5326 90.1224 72.5145 90.1194 72.4968C90.0807 72.2944 90.0014 72.1019 89.8865 71.9309C89.7716 71.7599 89.6233 71.6138 89.4505 71.5015L88.6692 71.0466C88.4533 70.9383 88.2151 70.882 87.9736 70.882C87.732 70.882 87.4938 70.9383 87.2779 71.0466L69.0837 81.5404C68.8812 81.6722 68.7127 81.8499 68.5918 82.0591C68.4709 82.2684 68.4011 82.5031 68.388 82.7444V88.6682C68.4007 88.9096 68.4703 89.1445 68.5912 89.3538C68.7122 89.5631 68.8809 89.7407 69.0837 89.8722L69.865 90.3218L70.0202 90.3967C70.2802 90.492 70.5611 90.5161 70.8336 90.4662C70.9231 90.4519 71.0109 90.4286 71.0958 90.3967H71.1279L71.2563 90.3325L89.4505 79.844C89.653 79.7122 89.8215 79.5345 89.9424 79.3253C90.0633 79.1161 90.1331 78.8813 90.1462 78.64V76.9437L92.1315 74.6534C92.1501 74.6322 92.1617 74.6058 92.1644 74.5777C92.1672 74.5497 92.161 74.5215 92.1467 74.4971C92.1325 74.4728 92.1109 74.4536 92.0851 74.4423C92.0593 74.4309 92.0306 74.428 92.003 74.4339Z" fill="#2B478B"/>
<path opacity="0.1" d="M71.0904 90.4182C71.0056 90.4501 70.9177 90.4734 70.8282 90.4877C70.5557 90.5376 70.2749 90.5135 70.0148 90.4182L69.8596 90.3433L69.0677 89.8938C68.8649 89.7622 68.6961 89.5846 68.5752 89.3753C68.4543 89.166 68.3846 88.9311 68.372 88.6897V82.7659C68.3814 82.5241 68.4513 82.2886 68.5753 82.0809L70.7479 83.3331C70.6215 83.5398 70.5513 83.7759 70.5446 84.0181V89.9419C70.5553 90.3218 70.78 90.5091 71.0904 90.4182Z" fill="black"/>
<path opacity="0.4" d="M90.0926 72.5022C90.007 72.2132 89.7394 72.1222 89.4237 72.3095L71.2295 82.7979C71.0235 82.9327 70.8543 83.1166 70.7372 83.3331L68.5646 82.0809C68.6802 81.8633 68.8497 81.6791 69.0569 81.5458L87.2511 71.052C87.467 70.9437 87.7052 70.8873 87.9468 70.8873C88.1883 70.8873 88.4265 70.9437 88.6424 71.052L89.4237 71.5068C89.5965 71.6192 89.7448 71.7652 89.8597 71.9363C89.9747 72.1073 90.0539 72.2998 90.0926 72.5022Z" fill="white"/>
<path opacity="0.4" d="M92.003 74.434H90.1194V73.3317L92.0726 74.4554C92.052 74.4417 92.0278 74.4343 92.003 74.434Z" fill="white"/>
<path d="M164.148 44.0766C164.117 44.0601 164.082 44.05 164.047 44.047C164.011 44.0439 163.976 44.048 163.942 44.059C163.908 44.0699 163.876 44.0876 163.849 44.1108C163.822 44.1341 163.8 44.1625 163.784 44.1944L161.451 48.8125C161.386 48.7199 161.302 48.6417 161.205 48.5824C161.042 48.5017 160.86 48.4662 160.679 48.4794C160.497 48.4925 160.322 48.554 160.172 48.6573C159.86 48.8597 159.592 49.1242 159.386 49.4345C159.18 49.7447 159.039 50.094 158.974 50.4606L154.489 49.7329C154.477 49.5901 154.432 49.4521 154.358 49.3296C154.284 49.2071 154.182 49.1034 154.061 49.0265C153.897 48.946 153.714 48.9105 153.532 48.9236C153.35 48.9368 153.174 48.9982 153.023 49.1014C152.754 49.2654 152.521 49.482 152.338 49.7382L146.661 44.5475C146.817 44.2327 146.903 43.8876 146.912 43.5362C146.937 43.3535 146.908 43.1674 146.826 43.0018C146.745 42.8362 146.617 42.6985 146.457 42.6066C146.297 42.5146 146.113 42.4724 145.929 42.4855C145.745 42.4986 145.57 42.5663 145.424 42.68C145.068 42.9103 144.771 43.2221 144.559 43.5896C144.347 43.9571 144.225 44.3699 144.204 44.7937C144.19 44.9735 144.224 45.1538 144.302 45.3164C144.38 45.479 144.499 45.618 144.648 45.7195L140.608 57.8828C140.465 57.8515 140.317 57.849 140.173 57.8757C140.028 57.9023 139.891 57.9575 139.768 58.038C139.356 58.2972 139.025 58.6684 138.816 59.1082L133.957 55.6032C133.957 55.6032 133.957 55.5604 133.957 55.5336C133.982 55.3509 133.952 55.1649 133.871 54.9993C133.79 54.8336 133.661 54.696 133.502 54.604C133.342 54.512 133.158 54.4699 132.974 54.4829C132.79 54.496 132.614 54.5637 132.469 54.6774C132.109 54.9103 131.81 55.2264 131.598 55.5989C131.386 55.9714 131.266 56.3895 131.249 56.8179C131.243 57.058 131.308 57.2945 131.436 57.4975L127.503 69.0241C127.313 69.0426 127.13 69.1048 126.968 69.206C126.635 69.4208 126.353 69.707 126.144 70.0438C125.935 70.3807 125.803 70.7599 125.759 71.1539L119.669 74.6429C119.614 74.4214 119.476 74.2297 119.284 74.1077C119.119 74.0269 118.936 73.9916 118.754 74.0058C118.571 74.0199 118.395 74.0828 118.245 74.188C117.697 74.5387 117.296 75.0771 117.116 75.7024L113.183 74.097C113.2 73.9926 113.209 73.8871 113.21 73.7813C113.237 73.5982 113.208 73.4113 113.127 73.2448C113.047 73.0782 112.918 72.9397 112.758 72.8469C112.598 72.7542 112.413 72.7116 112.229 72.7246C112.044 72.7375 111.868 72.8055 111.722 72.9198C111.366 73.1501 111.069 73.4619 110.857 73.8294C110.645 74.1969 110.523 74.6097 110.502 75.0335C110.502 75.1904 110.529 75.3462 110.583 75.4937L106.093 84.0824C105.944 84.039 105.787 84.0285 105.634 84.0516C105.481 84.0747 105.334 84.1309 105.205 84.2162C104.871 84.4315 104.589 84.7186 104.38 85.0564C104.17 85.3943 104.039 85.7745 103.995 86.1694L100.854 88.0209C100.793 88.0577 100.749 88.1169 100.731 88.1859C100.713 88.2549 100.722 88.3282 100.758 88.3902C100.781 88.4306 100.815 88.4642 100.855 88.4877C100.895 88.5112 100.941 88.5237 100.988 88.5239C101.035 88.5223 101.081 88.5095 101.122 88.4865L104.049 86.7955C104.103 87.0169 104.241 87.2087 104.434 87.3306C104.562 87.4009 104.705 87.4377 104.851 87.4377C105.071 87.4319 105.284 87.3692 105.472 87.2557C105.832 87.0228 106.131 86.7068 106.343 86.3343C106.555 85.9617 106.675 85.5437 106.692 85.1152C106.698 84.8867 106.637 84.6616 106.516 84.4677L110.946 76.0021" stroke="#2B478B"/>
<path d="M44.4788 128.074C44.4487 127.756 44.3334 127.452 44.145 127.194C43.9567 126.936 43.7023 126.733 43.4085 126.608C42.6212 126.207 41.7502 125.998 40.8667 125.998C39.9832 125.998 39.1122 126.207 38.3248 126.608C38.0318 126.734 37.7779 126.937 37.5897 127.195C37.4015 127.453 37.2858 127.756 37.2546 128.074L35.8312 165.463C35.7777 166.239 36.2646 167.025 37.2921 167.603C38.393 168.163 39.6104 168.454 40.8453 168.454C42.0801 168.454 43.2976 168.163 44.3985 167.603C45.4259 167.009 45.9075 166.223 45.8594 165.463L44.4788 128.074Z" fill="#2B478B"/>
<path opacity="0.15" d="M38.3462 126.608C36.9442 127.416 36.9442 128.748 38.3462 129.54C39.1336 129.941 40.0046 130.15 40.8881 130.15C41.7716 130.15 42.6426 129.941 43.4299 129.54C44.8319 128.732 44.8319 127.4 43.4299 126.608C42.6426 126.207 41.7716 125.998 40.8881 125.998C40.0046 125.998 39.1336 126.207 38.3462 126.608Z" fill="black"/>
<path d="M42.4239 116.151C41.9483 115.908 41.422 115.782 40.8881 115.782C40.3541 115.782 39.8278 115.908 39.3523 116.151C39.1768 116.228 39.0252 116.35 38.9132 116.506C38.8012 116.661 38.7329 116.844 38.7155 117.034V128.074C38.732 128.265 38.7999 128.449 38.9119 128.605C39.024 128.762 39.1761 128.885 39.3523 128.962C39.8286 129.202 40.3546 129.327 40.8881 129.327C41.4215 129.327 41.9475 129.202 42.4239 128.962C42.6 128.885 42.7521 128.762 42.8642 128.605C42.9763 128.449 43.0441 128.265 43.0607 128.074V117.034C43.0432 116.844 42.9749 116.661 42.8629 116.506C42.7509 116.35 42.5993 116.228 42.4239 116.151Z" fill="#263238"/>
<path d="M65.077 89.1115C65.077 88.8921 65.077 88.6781 65.0448 88.464C65.0127 88.25 65.0181 88.0413 64.9967 87.8326C64.9753 87.6239 64.9699 87.5543 64.9539 87.4152C64.9164 87.0513 64.8629 86.6928 64.804 86.345C64.804 86.1898 64.7505 86.0292 64.7184 85.874C64.6863 85.7189 64.6596 85.5797 64.6275 85.4352C64.5365 85.0393 64.4402 84.654 64.3278 84.2847C64.2689 84.1081 64.2154 83.9315 64.1565 83.7496C64.1452 83.7237 64.1363 83.6968 64.1298 83.6693C64.0656 83.4981 64.0067 83.3322 63.9425 83.1717C63.8783 83.0111 63.7927 82.7971 63.707 82.6365C63.6214 82.476 63.5893 82.3743 63.5197 82.2459C63.4809 82.1496 63.4344 82.0565 63.3806 81.9676C63.3292 81.8533 63.2702 81.7424 63.204 81.6359C63.204 81.6359 63.1773 81.5824 63.1612 81.561C63.1452 81.5395 63.0488 81.3683 62.99 81.272C62.9311 81.1757 62.9097 81.1489 62.8722 81.09C62.598 80.6581 62.2903 80.2483 61.9518 79.8646L61.7806 79.672L61.6361 79.5221L61.4488 79.3348C61.2808 79.1582 61.102 78.992 60.9137 78.8372C60.8227 78.7569 60.7264 78.682 60.6301 78.6124L60.3358 78.3984C60.1828 78.2863 60.0238 78.1826 59.8595 78.088L59.7311 78.0077H59.7043L52.1216 73.6304H52.0788C50.624 72.8191 48.9818 72.4039 47.3162 72.4264C44.8332 72.4264 42.0292 73.2398 39.0593 74.9522C28.8598 80.8385 20.5868 95.1691 20.5868 106.953C20.5868 112.839 22.6417 116.959 25.938 118.896H25.9702L33.5582 123.268H33.5903L33.6813 123.317C33.8236 123.401 33.97 123.477 34.1201 123.547C34.302 123.638 34.4893 123.718 34.6552 123.793C34.8211 123.868 34.9923 123.927 35.1903 123.98L35.4632 124.06C35.5588 124.097 35.6573 124.126 35.7576 124.146C35.8561 124.176 35.9561 124.201 36.0572 124.221C36.1291 124.242 36.2025 124.258 36.2766 124.269C36.4051 124.296 36.5442 124.323 36.678 124.339C36.7081 124.344 36.7388 124.344 36.7689 124.339L37.2505 124.403C40.0064 124.692 43.2011 123.916 46.6259 121.941C56.8307 116.055 65.1037 101.719 65.1037 89.941C65.093 89.6681 65.0877 89.3898 65.077 89.1115ZM52.7049 80.7797C53.1017 82.2446 53.2961 83.757 53.2828 85.2747C53.2828 95.6668 45.6787 108.82 36.694 114.032C35.3806 114.813 33.9625 115.402 32.4826 115.782C32.0841 114.316 31.8879 112.801 31.8993 111.282C31.8993 100.89 39.5034 87.7363 48.4881 82.5242C49.803 81.7439 51.2231 81.1564 52.7049 80.7797Z" fill="#2B478B"/>
<path opacity="0.1" d="M33.2947 123.097L25.926 118.87C22.6029 116.927 20.5748 112.796 20.5748 106.931C20.5748 101.676 22.223 95.9184 24.9467 90.6313L32.5348 95.0087C29.8057 100.296 28.1628 106.054 28.1628 111.309C28.1361 117.029 30.0946 121.107 33.2947 123.097Z" fill="black"/>
<path opacity="0.4" d="M65.0756 89.1116C65.0756 88.8922 65.0756 88.6781 65.0435 88.4641C65.0114 88.25 65.0168 88.0413 64.9954 87.8326C64.974 87.6239 64.9686 87.5544 64.9526 87.4152C64.9151 87.0513 64.8616 86.6928 64.8027 86.345C64.8027 86.1898 64.7492 86.0293 64.7171 85.8741C64.685 85.7189 64.6582 85.5798 64.6261 85.4353C64.5352 85.0393 64.4388 84.654 64.3265 84.2848C64.2676 84.1082 64.2141 83.9316 64.1552 83.7496C64.1439 83.7237 64.135 83.6969 64.1285 83.6694C64.0643 83.4981 64.0054 83.3322 63.9412 83.1717C63.877 83.0112 63.7913 82.7971 63.7057 82.6366C63.6201 82.476 63.588 82.3744 63.5184 82.2459C63.4796 82.1496 63.4331 82.0565 63.3793 81.9677C63.3279 81.8533 63.2689 81.7425 63.2027 81.6359C63.2027 81.6359 63.1759 81.5824 63.1599 81.561C63.1438 81.5396 63.0475 81.3683 62.9887 81.272C62.9298 81.1757 62.9084 81.1489 62.8709 81.0901C62.5967 80.6581 62.289 80.2484 61.9505 79.8646L61.7793 79.672L61.6348 79.5222L61.4475 79.3349C61.2794 79.1582 61.1007 78.992 60.9124 78.8372C60.8214 78.7569 60.7251 78.682 60.6288 78.6125L60.3344 78.3984C60.1815 78.2863 60.0225 78.1827 59.8582 78.088C56.503 76.0492 51.8313 76.29 46.6353 79.2814C36.4305 85.1677 28.1575 99.4983 28.1575 111.282C28.1575 117.248 30.298 121.417 33.696 123.311C33.8383 123.395 33.9848 123.472 34.1348 123.541C34.3168 123.632 34.5041 123.713 34.6699 123.788C34.8358 123.862 35.0071 123.921 35.2051 123.975L35.478 124.055C35.5736 124.092 35.672 124.12 35.7723 124.141C35.8709 124.171 35.9709 124.196 36.072 124.216C36.1439 124.237 36.2172 124.253 36.2914 124.264C36.4198 124.291 36.5589 124.317 36.6927 124.333C36.7228 124.338 36.7536 124.338 36.7837 124.333L37.2653 124.398C40.0212 124.687 43.2159 123.911 46.6406 121.936C56.8454 116.05 65.1184 101.714 65.1184 89.9357C65.0917 89.6681 65.0863 89.3898 65.0756 89.1116ZM44.741 118.709C42.4506 120.031 40.2459 120.727 38.3623 120.727C34.8251 120.727 33.1984 118.313 32.4759 115.782C32.0775 114.316 31.8812 112.801 31.8927 111.282C31.8927 100.89 39.4967 87.7363 48.4815 82.5242C49.7964 81.744 51.2164 81.1565 52.6982 80.7797C53.3986 80.6054 54.117 80.5138 54.8387 80.5068C60.6876 80.5068 61.3137 87.1102 61.3137 89.9517C61.3405 100.344 53.7417 113.519 44.741 118.709Z" fill="white"/>
<path opacity="0.1" d="M61.3405 89.9731C61.3405 100.365 53.7418 113.518 44.7517 118.731C42.4614 120.052 40.2566 120.748 38.373 120.748C34.8358 120.748 33.2091 118.335 32.4866 115.803C33.9666 115.424 35.3847 114.834 36.6981 114.054C45.6988 108.858 53.2869 95.6882 53.2869 85.2961C53.3002 83.7784 53.1057 82.266 52.709 80.801C53.4093 80.6267 54.1277 80.5352 54.8495 80.5281C60.7144 80.5067 61.3405 87.1101 61.3405 89.9731Z" fill="black"/>
<path opacity="0.7" d="M58.1083 88.1376C58.1083 98.5297 50.5096 111.683 41.5195 116.895C39.2292 118.217 37.0245 118.913 35.1409 118.913C34.7662 118.913 34.3921 118.883 34.0224 118.822C33.2993 117.928 32.7724 116.893 32.4759 115.782C32.0775 114.315 31.8812 112.801 31.8927 111.282C31.8927 100.89 39.4968 87.7362 48.4815 82.5242C49.7964 81.7439 51.2164 81.1564 52.6982 80.7797C53.3986 80.6054 54.117 80.5138 54.8387 80.5067C55.2152 80.5058 55.5911 80.5362 55.9625 80.5977C57.8354 82.7757 58.1083 86.27 58.1083 88.1376Z" fill="white"/>
<path opacity="0.1" d="M39.8392 130.054L38.8813 168.224C38.3483 168.091 37.8354 167.888 37.3562 167.619C36.3288 167.025 35.8418 166.239 35.8954 165.479L37.3188 128.095C37.35 128.413 37.4657 128.716 37.6539 128.974C37.8421 129.232 38.096 129.435 38.389 129.561C38.8422 129.804 39.3321 129.97 39.8392 130.054Z" fill="black"/>
</svg>
