<svg width="129" height="21" viewBox="0 0 129 21" fill="none" xmlns="http://www.w3.org/2000/svg">
<path d="M0.175049 15.5215C0.204346 17.0889 0.790283 18.3926 1.91821 19.4326C3.03149 20.4873 4.3645 21 5.88794 21H8.23169V18.334H5.88794C5.06763 18.334 4.34985 18.0557 3.74927 17.499C3.14868 16.9424 2.84106 16.2539 2.81177 15.4336V12.2109H10.1799V9.54492H2.81177V5.73633H0.1604V13.6172C0.1604 14.1445 0.1604 14.7891 0.175049 15.5215ZM19.4934 18.334C18.8196 18.334 18.2483 18.1875 17.8088 17.8945C17.3694 17.6016 17.0325 17.2354 16.8127 16.7666C16.593 16.2979 16.4905 15.7998 16.4905 15.2725C16.4905 14.7451 16.593 14.2471 16.8274 13.7783C17.0471 13.3096 17.384 12.9434 17.8235 12.6504C18.2629 12.3574 18.8196 12.2109 19.4934 12.2109H23.551C24.2249 12.2109 24.8401 12.416 25.3674 12.8115C25.8948 13.2217 26.2024 13.5732 26.3196 13.8955H17.7356V16.5469H29.1321C29.22 16.0342 29.2786 15.6094 29.2786 15.2725C29.2786 14.2178 29.0149 13.2656 28.5022 12.4014C27.9749 11.5371 27.2864 10.8486 26.4221 10.3213C25.5579 9.80859 24.6057 9.54492 23.551 9.54492H19.4934C19.1418 9.54492 18.7903 9.57422 18.468 9.63281C17.0911 9.91113 15.9631 10.5703 15.0842 11.6104C14.2053 12.665 13.7659 13.8809 13.7659 15.2725C13.7659 15.6094 13.7952 15.9316 13.8538 16.2539C14.1174 17.6309 14.762 18.7734 15.8167 19.667C16.8567 20.5605 18.0872 21 19.4934 21H27.3157V18.334H19.4934ZM46.0042 13.8955H37.4934C37.259 13.8955 37.0686 13.8223 36.8928 13.6465C36.717 13.4854 36.6438 13.2803 36.6438 13.0459C36.6438 12.8262 36.717 12.6357 36.8928 12.46C37.0686 12.2988 37.259 12.2109 37.4934 12.2109H47.5569V9.54492H37.4934C36.5266 9.54492 35.7063 9.89648 35.0178 10.585C34.3293 11.2734 33.9924 12.0938 33.9924 13.0459C33.9924 14.0127 34.3293 14.8477 35.0178 15.5215C35.7063 16.21 36.5266 16.5469 37.4934 16.5469H46.0042C46.2385 16.5469 46.429 16.6348 46.6047 16.7959C46.7659 16.9717 46.8538 17.1621 46.8538 17.3965C46.8538 17.6309 46.7659 17.8506 46.5901 18.041C46.4143 18.2461 46.2239 18.334 46.0042 18.334H33.9924V21H46.0042C46.9709 21 47.7913 20.6484 48.4797 19.916C49.1536 19.1982 49.5051 18.3633 49.5051 17.3965C49.5051 16.4443 49.1536 15.624 48.4797 14.9355C47.7913 14.2471 46.9709 13.8955 46.0042 13.8955ZM54.4094 15.5215C54.4387 17.0889 55.0247 18.3926 56.1526 19.4326C57.2659 20.4873 58.5989 21 60.1223 21H62.4661V18.334H60.1223C59.302 18.334 58.5842 18.0557 57.9836 17.499C57.3831 16.9424 57.0754 16.2539 57.0461 15.4336V12.2109H64.4143V9.54492H57.0461V5.73633H54.3948V13.6172C54.3948 14.1445 54.3948 14.7891 54.4094 15.5215ZM72.3508 21V12.2109H79.5579C80.261 12.2109 80.9202 12.4307 81.5354 12.8408C82.136 13.2656 82.4583 13.8076 82.5168 14.4668L82.6047 21H85.2708L85.1536 14.1152C85.0364 12.7529 84.4065 11.6543 83.2786 10.8047C82.1506 9.96973 80.9055 9.54492 79.5579 9.54492H72.3508V0.814453H69.6995V21H72.3508ZM104.135 18.334H95.6389C95.1702 18.334 94.7893 18.1729 94.467 17.8506C94.1448 17.5283 93.9836 17.1475 93.9836 16.6787V9.54492H91.3323V16.6787C91.3323 17.8652 91.7424 18.876 92.592 19.7256C93.4417 20.5752 94.4524 21 95.6389 21H106.801V9.54492H104.135V18.334ZM113.287 0.814453V21H115.939V12.2109H123.146C123.981 12.2109 124.698 12.5186 125.299 13.1045C125.9 13.7051 126.207 14.4229 126.207 15.2725C126.207 16.1221 125.9 16.8398 125.299 17.4404C124.698 18.041 123.981 18.334 123.146 18.334H117.184V21H123.146C124.186 21 125.138 20.751 126.002 20.2236C126.866 19.7109 127.555 19.0225 128.082 18.1436C128.595 17.2793 128.859 16.3271 128.859 15.2725C128.859 14.2178 128.595 13.2656 128.082 12.4014C127.555 11.5371 126.866 10.8486 126.002 10.3213C125.138 9.80859 124.186 9.54492 123.146 9.54492H115.939V0.814453H113.287Z" fill="#007BAF"/>
</svg>
