<svg width="130" height="21" viewBox="0 0 130 21" fill="none" xmlns="http://www.w3.org/2000/svg">
<path d="M0.673828 15.5215C0.703125 17.0889 1.28906 18.3926 2.41699 19.4326C3.53027 20.4873 4.86328 21 6.38672 21H8.73047V18.334H6.38672C5.56641 18.334 4.84863 18.0557 4.24805 17.499C3.64746 16.9424 3.33984 16.2539 3.31055 15.4336V12.2109H10.6787V9.54492H3.31055V5.73633H0.65918V13.6172C0.65918 14.1445 0.65918 14.7891 0.673828 15.5215ZM19.9922 18.334C19.3184 18.334 18.7471 18.1875 18.3076 17.8945C17.8682 17.6016 17.5312 17.2354 17.3115 16.7666C17.0918 16.2979 16.9893 15.7998 16.9893 15.2725C16.9893 14.7451 17.0918 14.2471 17.3262 13.7783C17.5459 13.3096 17.8828 12.9434 18.3223 12.6504C18.7617 12.3574 19.3184 12.2109 19.9922 12.2109H24.0498C24.7236 12.2109 25.3389 12.416 25.8662 12.8115C26.3936 13.2217 26.7012 13.5732 26.8184 13.8955H18.2344V16.5469H29.6309C29.7188 16.0342 29.7773 15.6094 29.7773 15.2725C29.7773 14.2178 29.5137 13.2656 29.001 12.4014C28.4736 11.5371 27.7852 10.8486 26.9209 10.3213C26.0566 9.80859 25.1045 9.54492 24.0498 9.54492H19.9922C19.6406 9.54492 19.2891 9.57422 18.9668 9.63281C17.5898 9.91113 16.4619 10.5703 15.583 11.6104C14.7041 12.665 14.2646 13.8809 14.2646 15.2725C14.2646 15.6094 14.2939 15.9316 14.3525 16.2539C14.6162 17.6309 15.2607 18.7734 16.3154 19.667C17.3555 20.5605 18.5859 21 19.9922 21H27.8145V18.334H19.9922ZM46.5029 13.8955H37.9922C37.7578 13.8955 37.5674 13.8223 37.3916 13.6465C37.2158 13.4854 37.1426 13.2803 37.1426 13.0459C37.1426 12.8262 37.2158 12.6357 37.3916 12.46C37.5674 12.2988 37.7578 12.2109 37.9922 12.2109H48.0557V9.54492H37.9922C37.0254 9.54492 36.2051 9.89648 35.5166 10.585C34.8281 11.2734 34.4912 12.0938 34.4912 13.0459C34.4912 14.0127 34.8281 14.8477 35.5166 15.5215C36.2051 16.21 37.0254 16.5469 37.9922 16.5469H46.5029C46.7373 16.5469 46.9277 16.6348 47.1035 16.7959C47.2646 16.9717 47.3525 17.1621 47.3525 17.3965C47.3525 17.6309 47.2646 17.8506 47.0889 18.041C46.9131 18.2461 46.7227 18.334 46.5029 18.334H34.4912V21H46.5029C47.4697 21 48.29 20.6484 48.9785 19.916C49.6523 19.1982 50.0039 18.3633 50.0039 17.3965C50.0039 16.4443 49.6523 15.624 48.9785 14.9355C48.29 14.2471 47.4697 13.8955 46.5029 13.8955ZM54.9082 15.5215C54.9375 17.0889 55.5234 18.3926 56.6514 19.4326C57.7646 20.4873 59.0977 21 60.6211 21H62.9648V18.334H60.6211C59.8008 18.334 59.083 18.0557 58.4824 17.499C57.8818 16.9424 57.5742 16.2539 57.5449 15.4336V12.2109H64.9131V9.54492H57.5449V5.73633H54.8936V13.6172C54.8936 14.1445 54.8936 14.7891 54.9082 15.5215ZM72.8496 21V12.2109H80.0566C80.7598 12.2109 81.4189 12.4307 82.0342 12.8408C82.6348 13.2656 82.957 13.8076 83.0156 14.4668L83.1035 21H85.7695L85.6523 14.1152C85.5352 12.7529 84.9053 11.6543 83.7773 10.8047C82.6494 9.96973 81.4043 9.54492 80.0566 9.54492H72.8496V0.814453H70.1982V21H72.8496ZM104.634 18.334H96.1377C95.6689 18.334 95.2881 18.1729 94.9658 17.8506C94.6436 17.5283 94.4824 17.1475 94.4824 16.6787V9.54492H91.8311V16.6787C91.8311 17.8652 92.2412 18.876 93.0908 19.7256C93.9404 20.5752 94.9512 21 96.1377 21H107.3V9.54492H104.634V18.334ZM113.786 0.814453V21H116.438V12.2109H123.645C124.479 12.2109 125.197 12.5186 125.798 13.1045C126.398 13.7051 126.706 14.4229 126.706 15.2725C126.706 16.1221 126.398 16.8398 125.798 17.4404C125.197 18.041 124.479 18.334 123.645 18.334H117.683V21H123.645C124.685 21 125.637 20.751 126.501 20.2236C127.365 19.7109 128.054 19.0225 128.581 18.1436C129.094 17.2793 129.357 16.3271 129.357 15.2725C129.357 14.2178 129.094 13.2656 128.581 12.4014C128.054 11.5371 127.365 10.8486 126.501 10.3213C125.637 9.80859 124.685 9.54492 123.645 9.54492H116.438V0.814453H113.786Z" fill="#007BAF"/>
</svg>
