<svg width="22" height="16" viewBox="0 0 22 16" fill="none" xmlns="http://www.w3.org/2000/svg">
<path d="M21.5 1.89415C20.7191 2.21538 19.8869 2.42831 19.0194 2.53169C19.9119 2.032 20.5931 1.24677 20.9133 0.300308C20.0812 0.765538 19.1624 1.09415 18.1833 1.27754C17.3932 0.488616 16.2671 0 15.0386 0C12.6551 0 10.7362 1.81415 10.7362 4.03815C10.7362 4.35815 10.7651 4.66585 10.8359 4.95877C7.25675 4.79508 4.08969 3.18646 1.96212 0.736C1.59069 1.34031 1.37281 2.032 1.37281 2.77662C1.37281 4.17477 2.14062 5.41415 3.28513 6.13169C2.59344 6.11938 1.91488 5.93108 1.34 5.63446C1.34 5.64677 1.34 5.66277 1.34 5.67877C1.34 7.64062 2.83231 9.27015 4.78925 9.64554C4.43881 9.73538 4.05687 9.77846 3.6605 9.77846C3.38488 9.77846 3.10662 9.76369 2.84544 9.70954C3.40325 11.3083 4.98613 12.4837 6.86825 12.5218C5.4035 13.5963 3.54369 14.2437 1.53031 14.2437C1.17725 14.2437 0.838625 14.2289 0.5 14.1883C2.40706 15.3415 4.66719 16 7.1045 16C15.0267 16 19.358 9.84615 19.358 4.512C19.358 4.33354 19.3514 4.16123 19.3423 3.99015C20.1967 3.42154 20.9146 2.71138 21.5 1.89415Z" fill="#1D2530"/>
</svg>
