<svg width="72" height="72" viewBox="0 0 72 72" fill="none" xmlns="http://www.w3.org/2000/svg">
<mask id="path-1-outside-1" maskUnits="userSpaceOnUse" x="0" y="0" width="72" height="72" fill="black">
<rect fill="white" width="72" height="72"/>
<path d="M47.0899 42.132L36.9286 27.4546C36.8248 27.3044 36.686 27.1816 36.5243 27.0968C36.3625 27.012 36.1826 26.9677 36 26.9677C35.8174 26.9677 35.6375 27.012 35.4757 27.0968C35.314 27.1816 35.1752 27.3044 35.0714 27.4546L24.9101 42.132C24.8103 42.2761 24.7455 42.4414 24.7208 42.6148C24.696 42.7882 24.712 42.9651 24.7675 43.1312L27.6593 51.8064H26.9677C26.6683 51.8064 26.3811 51.9254 26.1694 52.1371C25.9577 52.3489 25.8387 52.636 25.8387 52.9355V56.3226C25.8387 56.622 25.9577 56.9092 26.1694 57.1209C26.3811 57.3327 26.6683 57.4516 26.9677 57.4516H28.0968V69.871C28.0968 70.1704 28.2157 70.4576 28.4275 70.6693C28.6392 70.8811 28.9264 71 29.2258 71H42.7742C43.0736 71 43.3608 70.8811 43.5725 70.6693C43.7843 70.4576 43.9032 70.1704 43.9032 69.871V57.4516H45.0323C45.3317 57.4516 45.6189 57.3327 45.8306 57.1209C46.0423 56.9092 46.1613 56.622 46.1613 56.3226V52.9355C46.1613 52.636 46.0423 52.3489 45.8306 52.1371C45.6189 51.9254 45.3317 51.8064 45.0323 51.8064H44.3407L47.2325 43.1312C47.288 42.9651 47.304 42.7882 47.2792 42.6148C47.2545 42.4414 47.1897 42.2761 47.0899 42.132ZM36 40.5161C36.2233 40.5161 36.4416 40.5823 36.6273 40.7064C36.8129 40.8305 36.9576 41.0068 37.0431 41.2131C37.1285 41.4194 37.1509 41.6464 37.1073 41.8654C37.0638 42.0844 36.9562 42.2856 36.7983 42.4435C36.6404 42.6014 36.4393 42.7089 36.2203 42.7525C36.0013 42.7961 35.7742 42.7737 35.5679 42.6882C35.3616 42.6028 35.1853 42.4581 35.0612 42.2724C34.9372 42.0867 34.871 41.8685 34.871 41.6452C34.8714 41.3458 34.9905 41.0589 35.2021 40.8473C35.4137 40.6356 35.7007 40.5165 36 40.5161ZM41.6452 68.7419H30.3548V57.4516H41.6452V68.7419ZM43.9032 55.1935H28.0968V54.0645H43.9032V55.1935ZM41.9599 51.8064H30.0401L27.0877 42.9534L34.871 31.7111V38.2581C34.8716 38.3214 34.8772 38.3847 34.8879 38.4472C34.1317 38.71 33.4931 39.2322 33.0853 39.9211C32.6775 40.61 32.5269 41.421 32.6602 42.2104C32.7935 42.9998 33.202 43.7164 33.8134 44.2332C34.4248 44.75 35.1995 45.0336 36 45.0336C36.8005 45.0336 37.5752 44.75 38.1866 44.2332C38.798 43.7164 39.2065 42.9998 39.3398 42.2104C39.4731 41.421 39.3225 40.61 38.9147 39.9211C38.5069 39.2322 37.8683 38.71 37.1121 38.4472C37.1228 38.3847 37.1284 38.3214 37.129 38.2581V31.7111L44.9123 42.9534L41.9599 51.8064Z"/>
<path d="M69.871 13.4194H65.3548C65.0554 13.4194 64.7682 13.5383 64.5565 13.75C64.3448 13.9618 64.2258 14.249 64.2258 14.5484V15.6873C64.179 15.6812 64.1319 15.6779 64.0847 15.6774H39.3871V14.5484C39.3871 14.249 39.2681 13.9618 39.0564 13.75C38.8447 13.5383 38.5575 13.4194 38.2581 13.4194H37.129V7.77419H38.2581C38.5575 7.77419 38.8447 7.65524 39.0564 7.44351C39.2681 7.23177 39.3871 6.9446 39.3871 6.64516V2.12903C39.3871 1.82959 39.2681 1.54242 39.0564 1.33069C38.8447 1.11895 38.5575 1 38.2581 1H33.7419C33.4425 1 33.1553 1.11895 32.9436 1.33069C32.7319 1.54242 32.6129 1.82959 32.6129 2.12903V6.64516C32.6129 6.9446 32.7319 7.23177 32.9436 7.44351C33.1553 7.65524 33.4425 7.77419 33.7419 7.77419H34.871V13.4194H33.7419C33.4425 13.4194 33.1553 13.5383 32.9436 13.75C32.7319 13.9618 32.6129 14.249 32.6129 14.5484V15.6774H7.77419V14.5484C7.77419 14.249 7.65524 13.9618 7.44351 13.75C7.23177 13.5383 6.9446 13.4194 6.64516 13.4194H2.12903C1.82959 13.4194 1.54242 13.5383 1.33069 13.75C1.11895 13.9618 1 14.249 1 14.5484V19.0645C1 19.364 1.11895 19.6511 1.33069 19.8629C1.54242 20.0746 1.82959 20.1936 2.12903 20.1936H6.64516C6.9446 20.1936 7.23177 20.0746 7.44351 19.8629C7.65524 19.6511 7.77419 19.364 7.77419 19.0645V17.9355H26.4399C24.9498 18.9213 23.6179 20.1276 22.4897 21.5131C19.5952 25.023 17.9355 29.4798 17.9355 33.7419H16.8065C16.507 33.7419 16.2198 33.8609 16.0081 34.0726C15.7964 34.2844 15.6774 34.5715 15.6774 34.871V39.3871C15.6774 39.6865 15.7964 39.9737 16.0081 40.1855C16.2198 40.3972 16.507 40.5161 16.8065 40.5161H21.3226C21.622 40.5161 21.9092 40.3972 22.1209 40.1855C22.3327 39.9737 22.4516 39.6865 22.4516 39.3871V34.871C22.4516 34.5715 22.3327 34.2844 22.1209 34.0726C21.9092 33.8609 21.622 33.7419 21.3226 33.7419H20.1935C20.1935 25.3702 26.6347 18.7667 32.6129 18.0089V19.0645C32.6129 19.364 32.7319 19.6511 32.9436 19.8629C33.1553 20.0746 33.4425 20.1936 33.7419 20.1936H38.2581C38.5575 20.1936 38.8447 20.0746 39.0564 19.8629C39.2681 19.6511 39.3871 19.364 39.3871 19.0645V18.0046C42.444 18.3673 45.378 20.1992 47.7462 23.2546C50.0508 26.2254 51.5143 30.0726 51.7669 33.7419H50.6774C50.378 33.7419 50.0908 33.8609 49.8791 34.0726C49.6673 34.2844 49.5484 34.5715 49.5484 34.871V39.3871C49.5484 39.6865 49.6673 39.9737 49.8791 40.1855C50.0908 40.3972 50.378 40.5161 50.6774 40.5161H55.1936C55.493 40.5161 55.7802 40.3972 55.9919 40.1855C56.2036 39.9737 56.3226 39.6865 56.3226 39.3871V34.871C56.3226 34.5715 56.2036 34.2844 55.9919 34.0726C55.7802 33.8609 55.493 33.7419 55.1936 33.7419H54.0292C53.7823 29.549 52.1748 25.2784 49.5315 21.8702C48.369 20.344 46.9679 19.0154 45.3823 17.9355H64.0847C64.1319 17.9351 64.179 17.9318 64.2258 17.9256V19.0645C64.2258 19.364 64.3448 19.6511 64.5565 19.8629C64.7682 20.0746 65.0554 20.1936 65.3548 20.1936H69.871C70.1704 20.1936 70.4576 20.0746 70.6693 19.8629C70.8811 19.6511 71 19.364 71 19.0645V14.5484C71 14.249 70.8811 13.9618 70.6693 13.75C70.4576 13.5383 70.1704 13.4194 69.871 13.4194ZM5.51613 17.9355H3.25806V15.6774H5.51613V17.9355ZM20.1935 38.2581H17.9355V36H20.1935V38.2581ZM34.871 3.25806H37.129V5.51613H34.871V3.25806ZM37.129 17.9355H34.871V15.6774H37.129V17.9355ZM51.8064 36H54.0645V38.2581H51.8064V36ZM68.7419 17.9355H66.4839V15.6774H68.7419V17.9355Z"/>
</mask>
<path d="M47.0899 42.132L36.9286 27.4546C36.8248 27.3044 36.686 27.1816 36.5243 27.0968C36.3625 27.012 36.1826 26.9677 36 26.9677C35.8174 26.9677 35.6375 27.012 35.4757 27.0968C35.314 27.1816 35.1752 27.3044 35.0714 27.4546L24.9101 42.132C24.8103 42.2761 24.7455 42.4414 24.7208 42.6148C24.696 42.7882 24.712 42.9651 24.7675 43.1312L27.6593 51.8064H26.9677C26.6683 51.8064 26.3811 51.9254 26.1694 52.1371C25.9577 52.3489 25.8387 52.636 25.8387 52.9355V56.3226C25.8387 56.622 25.9577 56.9092 26.1694 57.1209C26.3811 57.3327 26.6683 57.4516 26.9677 57.4516H28.0968V69.871C28.0968 70.1704 28.2157 70.4576 28.4275 70.6693C28.6392 70.8811 28.9264 71 29.2258 71H42.7742C43.0736 71 43.3608 70.8811 43.5725 70.6693C43.7843 70.4576 43.9032 70.1704 43.9032 69.871V57.4516H45.0323C45.3317 57.4516 45.6189 57.3327 45.8306 57.1209C46.0423 56.9092 46.1613 56.622 46.1613 56.3226V52.9355C46.1613 52.636 46.0423 52.3489 45.8306 52.1371C45.6189 51.9254 45.3317 51.8064 45.0323 51.8064H44.3407L47.2325 43.1312C47.288 42.9651 47.304 42.7882 47.2792 42.6148C47.2545 42.4414 47.1897 42.2761 47.0899 42.132ZM36 40.5161C36.2233 40.5161 36.4416 40.5823 36.6273 40.7064C36.8129 40.8305 36.9576 41.0068 37.0431 41.2131C37.1285 41.4194 37.1509 41.6464 37.1073 41.8654C37.0638 42.0844 36.9562 42.2856 36.7983 42.4435C36.6404 42.6014 36.4393 42.7089 36.2203 42.7525C36.0013 42.7961 35.7742 42.7737 35.5679 42.6882C35.3616 42.6028 35.1853 42.4581 35.0612 42.2724C34.9372 42.0867 34.871 41.8685 34.871 41.6452C34.8714 41.3458 34.9905 41.0589 35.2021 40.8473C35.4137 40.6356 35.7007 40.5165 36 40.5161ZM41.6452 68.7419H30.3548V57.4516H41.6452V68.7419ZM43.9032 55.1935H28.0968V54.0645H43.9032V55.1935ZM41.9599 51.8064H30.0401L27.0877 42.9534L34.871 31.7111V38.2581C34.8716 38.3214 34.8772 38.3847 34.8879 38.4472C34.1317 38.71 33.4931 39.2322 33.0853 39.9211C32.6775 40.61 32.5269 41.421 32.6602 42.2104C32.7935 42.9998 33.202 43.7164 33.8134 44.2332C34.4248 44.75 35.1995 45.0336 36 45.0336C36.8005 45.0336 37.5752 44.75 38.1866 44.2332C38.798 43.7164 39.2065 42.9998 39.3398 42.2104C39.4731 41.421 39.3225 40.61 38.9147 39.9211C38.5069 39.2322 37.8683 38.71 37.1121 38.4472C37.1228 38.3847 37.1284 38.3214 37.129 38.2581V31.7111L44.9123 42.9534L41.9599 51.8064Z" fill="#9B4F96"/>
<path d="M69.871 13.4194H65.3548C65.0554 13.4194 64.7682 13.5383 64.5565 13.75C64.3448 13.9618 64.2258 14.249 64.2258 14.5484V15.6873C64.179 15.6812 64.1319 15.6779 64.0847 15.6774H39.3871V14.5484C39.3871 14.249 39.2681 13.9618 39.0564 13.75C38.8447 13.5383 38.5575 13.4194 38.2581 13.4194H37.129V7.77419H38.2581C38.5575 7.77419 38.8447 7.65524 39.0564 7.44351C39.2681 7.23177 39.3871 6.9446 39.3871 6.64516V2.12903C39.3871 1.82959 39.2681 1.54242 39.0564 1.33069C38.8447 1.11895 38.5575 1 38.2581 1H33.7419C33.4425 1 33.1553 1.11895 32.9436 1.33069C32.7319 1.54242 32.6129 1.82959 32.6129 2.12903V6.64516C32.6129 6.9446 32.7319 7.23177 32.9436 7.44351C33.1553 7.65524 33.4425 7.77419 33.7419 7.77419H34.871V13.4194H33.7419C33.4425 13.4194 33.1553 13.5383 32.9436 13.75C32.7319 13.9618 32.6129 14.249 32.6129 14.5484V15.6774H7.77419V14.5484C7.77419 14.249 7.65524 13.9618 7.44351 13.75C7.23177 13.5383 6.9446 13.4194 6.64516 13.4194H2.12903C1.82959 13.4194 1.54242 13.5383 1.33069 13.75C1.11895 13.9618 1 14.249 1 14.5484V19.0645C1 19.364 1.11895 19.6511 1.33069 19.8629C1.54242 20.0746 1.82959 20.1936 2.12903 20.1936H6.64516C6.9446 20.1936 7.23177 20.0746 7.44351 19.8629C7.65524 19.6511 7.77419 19.364 7.77419 19.0645V17.9355H26.4399C24.9498 18.9213 23.6179 20.1276 22.4897 21.5131C19.5952 25.023 17.9355 29.4798 17.9355 33.7419H16.8065C16.507 33.7419 16.2198 33.8609 16.0081 34.0726C15.7964 34.2844 15.6774 34.5715 15.6774 34.871V39.3871C15.6774 39.6865 15.7964 39.9737 16.0081 40.1855C16.2198 40.3972 16.507 40.5161 16.8065 40.5161H21.3226C21.622 40.5161 21.9092 40.3972 22.1209 40.1855C22.3327 39.9737 22.4516 39.6865 22.4516 39.3871V34.871C22.4516 34.5715 22.3327 34.2844 22.1209 34.0726C21.9092 33.8609 21.622 33.7419 21.3226 33.7419H20.1935C20.1935 25.3702 26.6347 18.7667 32.6129 18.0089V19.0645C32.6129 19.364 32.7319 19.6511 32.9436 19.8629C33.1553 20.0746 33.4425 20.1936 33.7419 20.1936H38.2581C38.5575 20.1936 38.8447 20.0746 39.0564 19.8629C39.2681 19.6511 39.3871 19.364 39.3871 19.0645V18.0046C42.444 18.3673 45.378 20.1992 47.7462 23.2546C50.0508 26.2254 51.5143 30.0726 51.7669 33.7419H50.6774C50.378 33.7419 50.0908 33.8609 49.8791 34.0726C49.6673 34.2844 49.5484 34.5715 49.5484 34.871V39.3871C49.5484 39.6865 49.6673 39.9737 49.8791 40.1855C50.0908 40.3972 50.378 40.5161 50.6774 40.5161H55.1936C55.493 40.5161 55.7802 40.3972 55.9919 40.1855C56.2036 39.9737 56.3226 39.6865 56.3226 39.3871V34.871C56.3226 34.5715 56.2036 34.2844 55.9919 34.0726C55.7802 33.8609 55.493 33.7419 55.1936 33.7419H54.0292C53.7823 29.549 52.1748 25.2784 49.5315 21.8702C48.369 20.344 46.9679 19.0154 45.3823 17.9355H64.0847C64.1319 17.9351 64.179 17.9318 64.2258 17.9256V19.0645C64.2258 19.364 64.3448 19.6511 64.5565 19.8629C64.7682 20.0746 65.0554 20.1936 65.3548 20.1936H69.871C70.1704 20.1936 70.4576 20.0746 70.6693 19.8629C70.8811 19.6511 71 19.364 71 19.0645V14.5484C71 14.249 70.8811 13.9618 70.6693 13.75C70.4576 13.5383 70.1704 13.4194 69.871 13.4194ZM5.51613 17.9355H3.25806V15.6774H5.51613V17.9355ZM20.1935 38.2581H17.9355V36H20.1935V38.2581ZM34.871 3.25806H37.129V5.51613H34.871V3.25806ZM37.129 17.9355H34.871V15.6774H37.129V17.9355ZM51.8064 36H54.0645V38.2581H51.8064V36ZM68.7419 17.9355H66.4839V15.6774H68.7419V17.9355Z" fill="#9B4F96"/>
<path d="M47.0899 42.132L36.9286 27.4546C36.8248 27.3044 36.686 27.1816 36.5243 27.0968C36.3625 27.012 36.1826 26.9677 36 26.9677C35.8174 26.9677 35.6375 27.012 35.4757 27.0968C35.314 27.1816 35.1752 27.3044 35.0714 27.4546L24.9101 42.132C24.8103 42.2761 24.7455 42.4414 24.7208 42.6148C24.696 42.7882 24.712 42.9651 24.7675 43.1312L27.6593 51.8064H26.9677C26.6683 51.8064 26.3811 51.9254 26.1694 52.1371C25.9577 52.3489 25.8387 52.636 25.8387 52.9355V56.3226C25.8387 56.622 25.9577 56.9092 26.1694 57.1209C26.3811 57.3327 26.6683 57.4516 26.9677 57.4516H28.0968V69.871C28.0968 70.1704 28.2157 70.4576 28.4275 70.6693C28.6392 70.8811 28.9264 71 29.2258 71H42.7742C43.0736 71 43.3608 70.8811 43.5725 70.6693C43.7843 70.4576 43.9032 70.1704 43.9032 69.871V57.4516H45.0323C45.3317 57.4516 45.6189 57.3327 45.8306 57.1209C46.0423 56.9092 46.1613 56.622 46.1613 56.3226V52.9355C46.1613 52.636 46.0423 52.3489 45.8306 52.1371C45.6189 51.9254 45.3317 51.8064 45.0323 51.8064H44.3407L47.2325 43.1312C47.288 42.9651 47.304 42.7882 47.2792 42.6148C47.2545 42.4414 47.1897 42.2761 47.0899 42.132ZM36 40.5161C36.2233 40.5161 36.4416 40.5823 36.6273 40.7064C36.8129 40.8305 36.9576 41.0068 37.0431 41.2131C37.1285 41.4194 37.1509 41.6464 37.1073 41.8654C37.0638 42.0844 36.9562 42.2856 36.7983 42.4435C36.6404 42.6014 36.4393 42.7089 36.2203 42.7525C36.0013 42.7961 35.7742 42.7737 35.5679 42.6882C35.3616 42.6028 35.1853 42.4581 35.0612 42.2724C34.9372 42.0867 34.871 41.8685 34.871 41.6452C34.8714 41.3458 34.9905 41.0589 35.2021 40.8473C35.4137 40.6356 35.7007 40.5165 36 40.5161ZM41.6452 68.7419H30.3548V57.4516H41.6452V68.7419ZM43.9032 55.1935H28.0968V54.0645H43.9032V55.1935ZM41.9599 51.8064H30.0401L27.0877 42.9534L34.871 31.7111V38.2581C34.8716 38.3214 34.8772 38.3847 34.8879 38.4472C34.1317 38.71 33.4931 39.2322 33.0853 39.9211C32.6775 40.61 32.5269 41.421 32.6602 42.2104C32.7935 42.9998 33.202 43.7164 33.8134 44.2332C34.4248 44.75 35.1995 45.0336 36 45.0336C36.8005 45.0336 37.5752 44.75 38.1866 44.2332C38.798 43.7164 39.2065 42.9998 39.3398 42.2104C39.4731 41.421 39.3225 40.61 38.9147 39.9211C38.5069 39.2322 37.8683 38.71 37.1121 38.4472C37.1228 38.3847 37.1284 38.3214 37.129 38.2581V31.7111L44.9123 42.9534L41.9599 51.8064Z" stroke="#9B4F96" stroke-width="0.6" mask="url(#path-1-outside-1)"/>
<path d="M69.871 13.4194H65.3548C65.0554 13.4194 64.7682 13.5383 64.5565 13.75C64.3448 13.9618 64.2258 14.249 64.2258 14.5484V15.6873C64.179 15.6812 64.1319 15.6779 64.0847 15.6774H39.3871V14.5484C39.3871 14.249 39.2681 13.9618 39.0564 13.75C38.8447 13.5383 38.5575 13.4194 38.2581 13.4194H37.129V7.77419H38.2581C38.5575 7.77419 38.8447 7.65524 39.0564 7.44351C39.2681 7.23177 39.3871 6.9446 39.3871 6.64516V2.12903C39.3871 1.82959 39.2681 1.54242 39.0564 1.33069C38.8447 1.11895 38.5575 1 38.2581 1H33.7419C33.4425 1 33.1553 1.11895 32.9436 1.33069C32.7319 1.54242 32.6129 1.82959 32.6129 2.12903V6.64516C32.6129 6.9446 32.7319 7.23177 32.9436 7.44351C33.1553 7.65524 33.4425 7.77419 33.7419 7.77419H34.871V13.4194H33.7419C33.4425 13.4194 33.1553 13.5383 32.9436 13.75C32.7319 13.9618 32.6129 14.249 32.6129 14.5484V15.6774H7.77419V14.5484C7.77419 14.249 7.65524 13.9618 7.44351 13.75C7.23177 13.5383 6.9446 13.4194 6.64516 13.4194H2.12903C1.82959 13.4194 1.54242 13.5383 1.33069 13.75C1.11895 13.9618 1 14.249 1 14.5484V19.0645C1 19.364 1.11895 19.6511 1.33069 19.8629C1.54242 20.0746 1.82959 20.1936 2.12903 20.1936H6.64516C6.9446 20.1936 7.23177 20.0746 7.44351 19.8629C7.65524 19.6511 7.77419 19.364 7.77419 19.0645V17.9355H26.4399C24.9498 18.9213 23.6179 20.1276 22.4897 21.5131C19.5952 25.023 17.9355 29.4798 17.9355 33.7419H16.8065C16.507 33.7419 16.2198 33.8609 16.0081 34.0726C15.7964 34.2844 15.6774 34.5715 15.6774 34.871V39.3871C15.6774 39.6865 15.7964 39.9737 16.0081 40.1855C16.2198 40.3972 16.507 40.5161 16.8065 40.5161H21.3226C21.622 40.5161 21.9092 40.3972 22.1209 40.1855C22.3327 39.9737 22.4516 39.6865 22.4516 39.3871V34.871C22.4516 34.5715 22.3327 34.2844 22.1209 34.0726C21.9092 33.8609 21.622 33.7419 21.3226 33.7419H20.1935C20.1935 25.3702 26.6347 18.7667 32.6129 18.0089V19.0645C32.6129 19.364 32.7319 19.6511 32.9436 19.8629C33.1553 20.0746 33.4425 20.1936 33.7419 20.1936H38.2581C38.5575 20.1936 38.8447 20.0746 39.0564 19.8629C39.2681 19.6511 39.3871 19.364 39.3871 19.0645V18.0046C42.444 18.3673 45.378 20.1992 47.7462 23.2546C50.0508 26.2254 51.5143 30.0726 51.7669 33.7419H50.6774C50.378 33.7419 50.0908 33.8609 49.8791 34.0726C49.6673 34.2844 49.5484 34.5715 49.5484 34.871V39.3871C49.5484 39.6865 49.6673 39.9737 49.8791 40.1855C50.0908 40.3972 50.378 40.5161 50.6774 40.5161H55.1936C55.493 40.5161 55.7802 40.3972 55.9919 40.1855C56.2036 39.9737 56.3226 39.6865 56.3226 39.3871V34.871C56.3226 34.5715 56.2036 34.2844 55.9919 34.0726C55.7802 33.8609 55.493 33.7419 55.1936 33.7419H54.0292C53.7823 29.549 52.1748 25.2784 49.5315 21.8702C48.369 20.344 46.9679 19.0154 45.3823 17.9355H64.0847C64.1319 17.9351 64.179 17.9318 64.2258 17.9256V19.0645C64.2258 19.364 64.3448 19.6511 64.5565 19.8629C64.7682 20.0746 65.0554 20.1936 65.3548 20.1936H69.871C70.1704 20.1936 70.4576 20.0746 70.6693 19.8629C70.8811 19.6511 71 19.364 71 19.0645V14.5484C71 14.249 70.8811 13.9618 70.6693 13.75C70.4576 13.5383 70.1704 13.4194 69.871 13.4194ZM5.51613 17.9355H3.25806V15.6774H5.51613V17.9355ZM20.1935 38.2581H17.9355V36H20.1935V38.2581ZM34.871 3.25806H37.129V5.51613H34.871V3.25806ZM37.129 17.9355H34.871V15.6774H37.129V17.9355ZM51.8064 36H54.0645V38.2581H51.8064V36ZM68.7419 17.9355H66.4839V15.6774H68.7419V17.9355Z" stroke="#9B4F96" stroke-width="0.6" mask="url(#path-1-outside-1)"/>
</svg>
