<svg width="19" height="22" viewBox="0 0 19 22" fill="none" xmlns="http://www.w3.org/2000/svg">
<path d="M18.1887 10.7954C17.9683 9.83804 17.1852 9.13186 16.2427 9.02675C14.0113 8.77748 11.7516 8.7763 9.50306 8.77748C7.25353 8.7763 4.99436 8.77748 2.76223 9.02675C1.82018 9.1321 1.03757 9.83828 0.817464 10.7954C0.503763 12.1586 0.5 13.6467 0.5 15.0503C0.5 16.454 0.5 17.9419 0.813702 19.3051C1.03381 20.2622 1.81642 20.9683 2.75894 21.0737C4.99059 21.3232 7.24976 21.3241 9.49906 21.3232C11.7486 21.3244 14.0073 21.3232 16.2397 21.0737C17.1817 20.9683 17.9648 20.2622 18.1849 19.3051C18.4984 17.9419 18.5 16.454 18.5 15.0503C18.4998 13.6464 18.5021 12.1586 18.1887 10.7954ZM5.63422 11.8519H4.33144V18.7745H3.12132V11.8519H1.84229V10.718H5.63422V11.8519ZM8.92104 18.7748H7.83249V18.1199C7.40003 18.6156 6.98944 18.8573 6.58944 18.8573C6.23882 18.8573 5.99754 18.7153 5.88867 18.4112C5.82941 18.2297 5.79272 17.9423 5.79272 17.5186V12.7717H6.88033V17.1915C6.88033 17.4464 6.88033 17.5788 6.89021 17.6145C6.91631 17.7834 6.99885 17.869 7.14465 17.869C7.36288 17.869 7.59098 17.7008 7.83225 17.3596V12.7717H8.9208L8.92104 18.7748ZM13.0535 16.973C13.0535 17.5282 13.0161 17.9282 12.9434 18.1827C12.7981 18.6292 12.5072 18.8573 12.0745 18.8573C11.6874 18.8573 11.314 18.6424 10.9502 18.1932V18.775H9.86261V10.718H10.9502V13.3492C11.3016 12.9167 11.6745 12.698 12.0745 12.698C12.5072 12.698 12.7983 12.9259 12.9434 13.3753C13.0166 13.6168 13.0535 14.0138 13.0535 14.5821V16.973ZM17.1587 15.9715H14.9832V17.0356C14.9832 17.5912 15.165 17.8687 15.5389 17.8687C15.8067 17.8687 15.9626 17.7232 16.0247 17.4325C16.0348 17.3735 16.0492 17.1317 16.0492 16.6955H17.1589V16.8542C17.1589 17.2049 17.1455 17.4464 17.1356 17.555C17.0992 17.7958 17.0136 18.0143 16.8816 18.2066C16.5804 18.6426 16.1341 18.8576 15.5659 18.8576C14.9968 18.8576 14.5637 18.6527 14.2493 18.2429C14.0186 17.9423 13.9001 17.4692 13.9001 16.8312V14.7286C13.9001 14.0869 14.0052 13.6175 14.2363 13.3142C14.5505 12.9033 14.9834 12.6988 15.5391 12.6988C16.0849 12.6988 16.5176 12.9033 16.8224 13.3142C17.0502 13.6175 17.1591 14.0869 17.1591 14.7286V15.9715H17.1587Z" fill="#1D2530"/>
<path d="M15.5292 13.6777C15.1656 13.6777 14.9834 13.9555 14.9834 14.5104V15.0659H16.071V14.5104C16.0707 13.9555 15.889 13.6777 15.5292 13.6777Z" fill="#1D2530"/>
<path d="M11.4925 13.6777C11.3133 13.6777 11.1318 13.7624 10.95 13.9423V17.6011C11.1316 17.7831 11.3133 17.8692 11.4925 17.8692C11.8062 17.8692 11.9657 17.6011 11.9657 17.0591V14.4968C11.9657 13.9555 11.8062 13.6777 11.4925 13.6777Z" fill="#1D2530"/>
<path d="M12.1001 8.22433C12.5011 8.22433 12.9183 7.9807 13.3559 7.47934V8.14108H14.4553V2.07422H13.3559V6.71108C13.1123 7.05535 12.8813 7.22561 12.6615 7.22561C12.5143 7.22561 12.4277 7.1386 12.4037 6.96811C12.3903 6.93213 12.3903 6.79832 12.3903 6.54083V2.07422H11.2945V6.87146C11.2945 7.29992 11.3312 7.58987 11.3918 7.77353C11.5024 8.08088 11.7462 8.22433 12.1001 8.22433Z" fill="#1D2530"/>
<path d="M4.44683 4.8438V8.14096H5.66589V4.8438L7.13234 0H5.89964L5.06788 3.19698L4.2025 0H2.91971C3.17674 0.754625 3.44411 1.51301 3.70114 2.26834C4.09221 3.40369 4.33631 4.25967 4.44683 4.8438Z" fill="#1D2530"/>
<path d="M8.76619 8.22397C9.31693 8.22397 9.74492 8.01679 10.0485 7.60291C10.2792 7.29932 10.3897 6.82101 10.3897 6.1762V4.05178C10.3897 3.40321 10.2794 2.92913 10.0485 2.62272C9.74492 2.20766 9.31717 2.00049 8.76619 2.00049C8.21827 2.00049 7.79051 2.20766 7.48622 2.62272C7.25271 2.92913 7.14218 3.40321 7.14218 4.05178V6.1762C7.14218 6.82101 7.25271 7.29932 7.48622 7.60291C7.79028 8.01679 8.21827 8.22397 8.76619 8.22397ZM8.24155 3.83144C8.24155 3.27011 8.4118 2.99027 8.76619 2.99027C9.12057 2.99027 9.29036 3.26988 9.29036 3.83144V6.38338C9.29036 6.9447 9.12057 7.22548 8.76619 7.22548C8.4118 7.22548 8.24155 6.9447 8.24155 6.38338V3.83144Z" fill="#1D2530"/>
</svg>
