<svg width="128" height="16" viewBox="0 0 128 16" fill="none" xmlns="http://www.w3.org/2000/svg">
<path d="M7.44122 15.28C5.33455 15.28 3.59455 14.58 2.22122 13.18C0.847887 11.78 0.161221 10.0533 0.161221 8C0.161221 5.93333 0.847887 4.20667 2.22122 2.82C3.59455 1.42 5.33455 0.719999 7.44122 0.719999C8.70789 0.719999 9.87455 1.02 10.9412 1.62C12.0212 2.20667 12.8612 3.00667 13.4612 4.02L11.0812 5.4C10.7346 4.77333 10.2412 4.28667 9.60122 3.94C8.96122 3.58 8.24122 3.4 7.44122 3.4C6.08122 3.4 4.98122 3.82667 4.14122 4.68C3.31455 5.53333 2.90122 6.64 2.90122 8C2.90122 9.34667 3.31455 10.4467 4.14122 11.3C4.98122 12.1533 6.08122 12.58 7.44122 12.58C8.24122 12.58 8.96122 12.4067 9.60122 12.06C10.2546 11.7 10.7479 11.2133 11.0812 10.6L13.4612 11.98C12.8612 12.9933 12.0279 13.8 10.9612 14.4C9.89455 14.9867 8.72122 15.28 7.44122 15.28ZM22.6953 5H25.2753V15H22.6953V13.82C21.922 14.7933 20.8353 15.28 19.4353 15.28C18.102 15.28 16.9553 14.7733 15.9953 13.76C15.0486 12.7333 14.5753 11.48 14.5753 10C14.5753 8.52 15.0486 7.27333 15.9953 6.26C16.9553 5.23333 18.102 4.72 19.4353 4.72C20.8353 4.72 21.922 5.20667 22.6953 6.18V5ZM17.9353 12.04C18.4553 12.56 19.1153 12.82 19.9153 12.82C20.7153 12.82 21.3753 12.56 21.8953 12.04C22.4286 11.5067 22.6953 10.8267 22.6953 10C22.6953 9.17333 22.4286 8.5 21.8953 7.98C21.3753 7.44667 20.7153 7.18 19.9153 7.18C19.1153 7.18 18.4553 7.44667 17.9353 7.98C17.4153 8.5 17.1553 9.17333 17.1553 10C17.1553 10.8267 17.4153 11.5067 17.9353 12.04ZM35.4948 5V7.48H32.3748V15H29.7948V7.48H26.6348V5H35.4948ZM41.3926 8.2C42.526 8.2 43.4393 8.51333 44.1326 9.14C44.826 9.75333 45.1726 10.5733 45.1726 11.6C45.1726 12.6267 44.826 13.4533 44.1326 14.08C43.4393 14.6933 42.526 15 41.3926 15H36.8726V5H39.4526V8.2H41.3926ZM46.2726 5H48.8526V15H46.2726V5ZM41.4126 12.72C41.7726 12.72 42.066 12.62 42.2926 12.42C42.5326 12.2067 42.6526 11.9333 42.6526 11.6C42.6526 11.2667 42.5326 10.9933 42.2926 10.78C42.066 10.5667 41.7726 10.46 41.4126 10.46H39.4526V12.72H41.4126ZM62.2686 15H59.0886L54.0886 8.44V15H51.3286V0.999999H54.0886V7.18L58.8886 0.999999H62.0686L56.8886 7.8L62.2686 15ZM71.1348 13.76C70.1081 14.7733 68.8548 15.28 67.3748 15.28C65.8948 15.28 64.6415 14.7733 63.6148 13.76C62.6015 12.7333 62.0948 11.48 62.0948 10C62.0948 8.52 62.6015 7.27333 63.6148 6.26C64.6415 5.23333 65.8948 4.72 67.3748 4.72C68.8548 4.72 70.1081 5.23333 71.1348 6.26C72.1615 7.27333 72.6748 8.52 72.6748 10C72.6748 11.48 72.1615 12.7333 71.1348 13.76ZM65.4348 11.98C65.9548 12.5 66.6015 12.76 67.3748 12.76C68.1481 12.76 68.7948 12.5 69.3148 11.98C69.8348 11.46 70.0948 10.8 70.0948 10C70.0948 9.2 69.8348 8.54 69.3148 8.02C68.7948 7.5 68.1481 7.24 67.3748 7.24C66.6015 7.24 65.9548 7.5 65.4348 8.02C64.9281 8.54 64.6748 9.2 64.6748 10C64.6748 10.8 64.9281 11.46 65.4348 11.98ZM82.8159 5V15H80.2359V7.48H77.4759V10.82C77.4759 13.9133 76.0692 15.3067 73.2559 15V12.58C73.7892 12.7133 74.1959 12.6267 74.4759 12.32C74.7559 12 74.8959 11.4533 74.8959 10.68V5H82.8159ZM89.6739 8.2C90.8072 8.2 91.7205 8.51333 92.4139 9.14C93.1072 9.75333 93.4539 10.5733 93.4539 11.6C93.4539 12.6267 93.1072 13.4533 92.4139 14.08C91.7205 14.6933 90.8072 15 89.6739 15H85.1539V5H87.7339V8.2H89.6739ZM89.6939 12.72C90.0539 12.72 90.3472 12.62 90.5739 12.42C90.8139 12.2067 90.9339 11.9333 90.9339 11.6C90.9339 11.2667 90.8139 10.9933 90.5739 10.78C90.3472 10.5667 90.0539 10.46 89.6939 10.46H87.7339V12.72H89.6939ZM99.7381 15.28C98.2314 15.28 96.9714 14.7733 95.9581 13.76C94.9581 12.7467 94.4581 11.4933 94.4581 10C94.4581 8.50667 94.9581 7.25333 95.9581 6.24C96.9714 5.22667 98.2314 4.72 99.7381 4.72C100.711 4.72 101.598 4.95333 102.398 5.42C103.198 5.88667 103.805 6.51333 104.218 7.3L101.998 8.6C101.798 8.18667 101.491 7.86 101.078 7.62C100.678 7.38 100.225 7.26 99.7181 7.26C98.9448 7.26 98.3048 7.52 97.7981 8.04C97.2914 8.54667 97.0381 9.2 97.0381 10C97.0381 10.7867 97.2914 11.44 97.7981 11.96C98.3048 12.4667 98.9448 12.72 99.7181 12.72C100.238 12.72 100.698 12.6067 101.098 12.38C101.511 12.14 101.818 11.8133 102.018 11.4L104.258 12.68C103.818 13.4667 103.198 14.1 102.398 14.58C101.598 15.0467 100.711 15.28 99.7381 15.28ZM113.066 5H115.646V15H113.066V13.82C112.293 14.7933 111.206 15.28 109.806 15.28C108.473 15.28 107.326 14.7733 106.366 13.76C105.42 12.7333 104.946 11.48 104.946 10C104.946 8.52 105.42 7.27333 106.366 6.26C107.326 5.23333 108.473 4.72 109.806 4.72C111.206 4.72 112.293 5.20667 113.066 6.18V5ZM108.306 12.04C108.826 12.56 109.486 12.82 110.286 12.82C111.086 12.82 111.746 12.56 112.266 12.04C112.8 11.5067 113.066 10.8267 113.066 10C113.066 9.17333 112.8 8.5 112.266 7.98C111.746 7.44667 111.086 7.18 110.286 7.18C109.486 7.18 108.826 7.44667 108.306 7.98C107.786 8.5 107.526 9.17333 107.526 10C107.526 10.8267 107.786 11.5067 108.306 12.04ZM119.666 3.72V1.48H125.466V3.72H119.666ZM125.206 5H127.126V15H124.606V9.32L119.906 15H117.986V5H120.506V10.68L125.206 5Z" fill="url(#paint0_linear)"/>
<defs>
<linearGradient id="paint0_linear" x1="-0.49878" y1="8" x2="128.501" y2="8" gradientUnits="userSpaceOnUse">
<stop stop-color="#90B54A"/>
<stop offset="0.398958" stop-color="#5F733A"/>
<stop offset="0.680208" stop-color="#6E6F6E"/>
<stop offset="1" stop-color="#8BD103"/>
</linearGradient>
</defs>
</svg>
