<svg width="128" height="16" viewBox="0 0 128 16" fill="none" xmlns="http://www.w3.org/2000/svg">
<path d="M7.94 15.28C5.83333 15.28 4.09333 14.58 2.72 13.18C1.34667 11.78 0.66 10.0533 0.66 8C0.66 5.93333 1.34667 4.20667 2.72 2.82C4.09333 1.42 5.83333 0.719999 7.94 0.719999C9.20667 0.719999 10.3733 1.02 11.44 1.62C12.52 2.20667 13.36 3.00667 13.96 4.02L11.58 5.4C11.2333 4.77333 10.74 4.28667 10.1 3.94C9.46 3.58 8.74 3.4 7.94 3.4C6.58 3.4 5.48 3.82667 4.64 4.68C3.81333 5.53333 3.4 6.64 3.4 8C3.4 9.34667 3.81333 10.4467 4.64 11.3C5.48 12.1533 6.58 12.58 7.94 12.58C8.74 12.58 9.46 12.4067 10.1 12.06C10.7533 11.7 11.2467 11.2133 11.58 10.6L13.96 11.98C13.36 12.9933 12.5267 13.8 11.46 14.4C10.3933 14.9867 9.22 15.28 7.94 15.28ZM23.1941 5H25.7741V15H23.1941V13.82C22.4207 14.7933 21.3341 15.28 19.9341 15.28C18.6007 15.28 17.4541 14.7733 16.4941 13.76C15.5474 12.7333 15.0741 11.48 15.0741 10C15.0741 8.52 15.5474 7.27333 16.4941 6.26C17.4541 5.23333 18.6007 4.72 19.9341 4.72C21.3341 4.72 22.4207 5.20667 23.1941 6.18V5ZM18.4341 12.04C18.9541 12.56 19.6141 12.82 20.4141 12.82C21.2141 12.82 21.8741 12.56 22.3941 12.04C22.9274 11.5067 23.1941 10.8267 23.1941 10C23.1941 9.17333 22.9274 8.5 22.3941 7.98C21.8741 7.44667 21.2141 7.18 20.4141 7.18C19.6141 7.18 18.9541 7.44667 18.4341 7.98C17.9141 8.5 17.6541 9.17333 17.6541 10C17.6541 10.8267 17.9141 11.5067 18.4341 12.04ZM35.9936 5V7.48H32.8736V15H30.2936V7.48H27.1336V5H35.9936ZM41.8914 8.2C43.0247 8.2 43.9381 8.51333 44.6314 9.14C45.3247 9.75333 45.6714 10.5733 45.6714 11.6C45.6714 12.6267 45.3247 13.4533 44.6314 14.08C43.9381 14.6933 43.0247 15 41.8914 15H37.3714V5H39.9514V8.2H41.8914ZM46.7714 5H49.3514V15H46.7714V5ZM41.9114 12.72C42.2714 12.72 42.5647 12.62 42.7914 12.42C43.0314 12.2067 43.1514 11.9333 43.1514 11.6C43.1514 11.2667 43.0314 10.9933 42.7914 10.78C42.5647 10.5667 42.2714 10.46 41.9114 10.46H39.9514V12.72H41.9114ZM62.7673 15H59.5873L54.5873 8.44V15H51.8273V0.999999H54.5873V7.18L59.3873 0.999999H62.5673L57.3873 7.8L62.7673 15ZM71.6336 13.76C70.6069 14.7733 69.3536 15.28 67.8736 15.28C66.3936 15.28 65.1403 14.7733 64.1136 13.76C63.1003 12.7333 62.5936 11.48 62.5936 10C62.5936 8.52 63.1003 7.27333 64.1136 6.26C65.1403 5.23333 66.3936 4.72 67.8736 4.72C69.3536 4.72 70.6069 5.23333 71.6336 6.26C72.6603 7.27333 73.1736 8.52 73.1736 10C73.1736 11.48 72.6603 12.7333 71.6336 13.76ZM65.9336 11.98C66.4536 12.5 67.1003 12.76 67.8736 12.76C68.6469 12.76 69.2936 12.5 69.8136 11.98C70.3336 11.46 70.5936 10.8 70.5936 10C70.5936 9.2 70.3336 8.54 69.8136 8.02C69.2936 7.5 68.6469 7.24 67.8736 7.24C67.1003 7.24 66.4536 7.5 65.9336 8.02C65.4269 8.54 65.1736 9.2 65.1736 10C65.1736 10.8 65.4269 11.46 65.9336 11.98ZM83.3147 5V15H80.7347V7.48H77.9747V10.82C77.9747 13.9133 76.568 15.3067 73.7547 15V12.58C74.288 12.7133 74.6947 12.6267 74.9747 12.32C75.2547 12 75.3947 11.4533 75.3947 10.68V5H83.3147ZM90.1727 8.2C91.306 8.2 92.2193 8.51333 92.9127 9.14C93.606 9.75333 93.9527 10.5733 93.9527 11.6C93.9527 12.6267 93.606 13.4533 92.9127 14.08C92.2193 14.6933 91.306 15 90.1727 15H85.6527V5H88.2327V8.2H90.1727ZM90.1927 12.72C90.5527 12.72 90.846 12.62 91.0727 12.42C91.3127 12.2067 91.4327 11.9333 91.4327 11.6C91.4327 11.2667 91.3127 10.9933 91.0727 10.78C90.846 10.5667 90.5527 10.46 90.1927 10.46H88.2327V12.72H90.1927ZM100.237 15.28C98.7302 15.28 97.4702 14.7733 96.4569 13.76C95.4569 12.7467 94.9569 11.4933 94.9569 10C94.9569 8.50667 95.4569 7.25333 96.4569 6.24C97.4702 5.22667 98.7302 4.72 100.237 4.72C101.21 4.72 102.097 4.95333 102.897 5.42C103.697 5.88667 104.304 6.51333 104.717 7.3L102.497 8.6C102.297 8.18667 101.99 7.86 101.577 7.62C101.177 7.38 100.724 7.26 100.217 7.26C99.4435 7.26 98.8035 7.52 98.2969 8.04C97.7902 8.54667 97.5369 9.2 97.5369 10C97.5369 10.7867 97.7902 11.44 98.2969 11.96C98.8035 12.4667 99.4435 12.72 100.217 12.72C100.737 12.72 101.197 12.6067 101.597 12.38C102.01 12.14 102.317 11.8133 102.517 11.4L104.757 12.68C104.317 13.4667 103.697 14.1 102.897 14.58C102.097 15.0467 101.21 15.28 100.237 15.28ZM113.565 5H116.145V15H113.565V13.82C112.792 14.7933 111.705 15.28 110.305 15.28C108.972 15.28 107.825 14.7733 106.865 13.76C105.918 12.7333 105.445 11.48 105.445 10C105.445 8.52 105.918 7.27333 106.865 6.26C107.825 5.23333 108.972 4.72 110.305 4.72C111.705 4.72 112.792 5.20667 113.565 6.18V5ZM108.805 12.04C109.325 12.56 109.985 12.82 110.785 12.82C111.585 12.82 112.245 12.56 112.765 12.04C113.298 11.5067 113.565 10.8267 113.565 10C113.565 9.17333 113.298 8.5 112.765 7.98C112.245 7.44667 111.585 7.18 110.785 7.18C109.985 7.18 109.325 7.44667 108.805 7.98C108.285 8.5 108.025 9.17333 108.025 10C108.025 10.8267 108.285 11.5067 108.805 12.04ZM120.165 3.72V1.48H125.965V3.72H120.165ZM125.705 5H127.625V15H125.105V9.32L120.405 15H118.485V5H121.005V10.68L125.705 5Z" fill="url(#paint0_linear)"/>
<defs>
<linearGradient id="paint0_linear" x1="-4.80562e-07" y1="8" x2="129" y2="8" gradientUnits="userSpaceOnUse">
<stop stop-color="#90B54A"/>
<stop offset="0.398958" stop-color="#5F733A"/>
<stop offset="0.680208" stop-color="#6E6F6E"/>
<stop offset="1" stop-color="#8BD103"/>
</linearGradient>
</defs>
</svg>
